<svg width="16" height="16" viewBox="0 0 16 16" fill="none" xmlns="http://www.w3.org/2000/svg">
<path d="M7.36683 9.96666L6.1335 11.2C5.8735 11.46 5.46016 11.46 5.1935 11.2067C5.12016 11.1333 5.04683 11.0667 4.9735 10.9933C4.28683 10.3 3.66683 9.57333 3.1135 8.81333C2.56683 8.05333 2.12683 7.29333 1.80683 6.54C1.4935 5.78 1.3335 5.05333 1.3335 4.35999C1.3335 3.90666 1.4135 3.47333 1.5735 3.07333C1.7335 2.66666 1.98683 2.29333 2.34016 1.95999C2.76683 1.53999 3.2335 1.33333 3.72683 1.33333C3.9135 1.33333 4.10016 1.37333 4.26683 1.45333C4.44016 1.53333 4.5935 1.65333 4.7135 1.82666L6.26016 4.00666C6.38016 4.17333 6.46683 4.32666 6.52683 4.47333C6.58683 4.61333 6.62016 4.75333 6.62016 4.88C6.62016 5.04 6.5735 5.19999 6.48016 5.35333C6.3935 5.50666 6.26683 5.66666 6.10683 5.82666L5.60016 6.35333C5.52683 6.42666 5.4935 6.51333 5.4935 6.62C5.4935 6.67333 5.50016 6.72 5.5135 6.77333C5.5335 6.82666 5.5535 6.86666 5.56683 6.90666C5.68683 7.12666 5.8935 7.41333 6.18683 7.76C6.48683 8.10666 6.80683 8.46 7.1535 8.81333C7.22016 8.88 7.2935 8.94666 7.36016 9.01333C7.62683 9.27333 7.6335 9.7 7.36683 9.96666Z" fill="#f85000"/>
<path d="M14.6466 12.22C14.6466 12.4067 14.6132 12.6 14.5466 12.7867C14.5266 12.84 14.5066 12.8933 14.4799 12.9467C14.3666 13.1867 14.2199 13.4133 14.0266 13.6267C13.6999 13.9867 13.3399 14.2467 12.9332 14.4133C12.9266 14.4133 12.9199 14.42 12.9132 14.42C12.5199 14.58 12.0932 14.6667 11.6332 14.6667C10.9532 14.6667 10.2266 14.5067 9.4599 14.18C8.69324 13.8533 7.92657 13.4133 7.16657 12.86C6.90657 12.6667 6.64657 12.4733 6.3999 12.2667L8.5799 10.0867C8.76657 10.2267 8.93324 10.3333 9.07324 10.4067C9.10657 10.42 9.14657 10.44 9.19324 10.46C9.24657 10.48 9.2999 10.4867 9.3599 10.4867C9.47324 10.4867 9.5599 10.4467 9.63324 10.3733L10.1399 9.87333C10.3066 9.70667 10.4666 9.58 10.6199 9.5C10.7732 9.40667 10.9266 9.36 11.0932 9.36C11.2199 9.36 11.3532 9.38667 11.4999 9.44667C11.6466 9.50667 11.7999 9.59333 11.9666 9.70667L14.1732 11.2733C14.3466 11.3933 14.4666 11.5333 14.5399 11.7C14.6066 11.8667 14.6466 12.0333 14.6466 12.22Z" fill="#f85000"/>
</svg>
