<svg width="16" height="16" viewBox="0 0 16 16" fill="none" xmlns="http://www.w3.org/2000/svg">
<path d="M7.16583 3.09336L4.2125 1.63336C2.61917 0.853363 1.3125 1.6467 1.3125 3.39336V13.2867C1.3125 14.0467 1.94583 14.6667 2.71917 14.6667H7.66583C8.0325 14.6667 8.3325 14.3667 8.3325 14V4.94003C8.3325 4.24003 7.80583 3.4067 7.16583 3.09336ZM5.97917 9.1667H3.66583C3.3925 9.1667 3.16583 8.94003 3.16583 8.6667C3.16583 8.39336 3.3925 8.1667 3.66583 8.1667H5.97917C6.2525 8.1667 6.47917 8.39336 6.47917 8.6667C6.47917 8.94003 6.25917 9.1667 5.97917 9.1667ZM5.97917 6.50003H3.66583C3.3925 6.50003 3.16583 6.27336 3.16583 6.00003C3.16583 5.7267 3.3925 5.50003 3.66583 5.50003H5.97917C6.2525 5.50003 6.47917 5.7267 6.47917 6.00003C6.47917 6.27336 6.25917 6.50003 5.97917 6.50003Z" fill="#8C91FF"/>
<path d="M14.6654 12.0266V12.9999C14.6654 13.9199 13.9187 14.6666 12.9987 14.6666H9.9787C9.6187 14.6666 9.33203 14.3799 9.33203 14.0199V12.5799C10.0454 12.6666 10.7987 12.4599 11.3387 12.0266C11.792 12.3933 12.372 12.6133 13.0054 12.6133C13.6254 12.6133 14.2054 12.3933 14.6654 12.0266Z" fill="#8C91FF"/>
<path d="M14.6654 10.0334V10.0401C14.612 10.9134 13.8987 11.6134 13.0054 11.6134C12.0787 11.6134 11.3387 10.8601 11.3387 9.94672C11.3387 10.9667 10.3987 11.7867 9.33203 11.5801V8.00006C9.33203 7.57339 9.72536 7.25339 10.1454 7.34672L11.3387 7.61339L11.6587 7.68672L13.0187 7.99339C13.3454 8.06006 13.6454 8.17339 13.9054 8.34006C13.9054 8.34672 13.912 8.34672 13.912 8.34672C13.9787 8.39339 14.0454 8.44672 14.1054 8.50672C14.412 8.81339 14.612 9.26006 14.6587 9.91339C14.6587 9.95339 14.6654 9.99339 14.6654 10.0334Z" fill="#8C91FF"/>
</svg>
