<svg width="16" height="16" viewBox="0 0 16 16" fill="none" xmlns="http://www.w3.org/2000/svg">
<path d="M7.16583 3.09324L4.2125 1.63324C2.61917 0.85324 1.3125 1.64657 1.3125 3.39324V13.2866C1.3125 14.0466 1.94583 14.6666 2.71917 14.6666H7.66583C8.0325 14.6666 8.3325 14.3666 8.3325 13.9999V4.93991C8.3325 4.23991 7.80583 3.40657 7.16583 3.09324ZM5.97917 9.16657H3.66583C3.3925 9.16657 3.16583 8.93991 3.16583 8.66657C3.16583 8.39324 3.3925 8.16657 3.66583 8.16657H5.97917C6.2525 8.16657 6.47917 8.39324 6.47917 8.66657C6.47917 8.93991 6.25917 9.16657 5.97917 9.16657ZM5.97917 6.49991H3.66583C3.3925 6.49991 3.16583 6.27324 3.16583 5.99991C3.16583 5.72657 3.3925 5.49991 3.66583 5.49991H5.97917C6.2525 5.49991 6.47917 5.72657 6.47917 5.99991C6.47917 6.27324 6.25917 6.49991 5.97917 6.49991Z" fill="#A3A3B0"/>
<path d="M14.6654 12.0264V12.9997C14.6654 13.9197 13.9187 14.6664 12.9987 14.6664H9.9787C9.6187 14.6664 9.33203 14.3797 9.33203 14.0197V12.5797C10.0454 12.6664 10.7987 12.4597 11.3387 12.0264C11.792 12.393 12.372 12.613 13.0054 12.613C13.6254 12.613 14.2054 12.393 14.6654 12.0264Z" fill="#A3A3B0"/>
<path d="M14.6654 10.033V10.0397C14.612 10.913 13.8987 11.613 13.0054 11.613C12.0787 11.613 11.3387 10.8597 11.3387 9.94636C11.3387 10.9664 10.3987 11.7864 9.33203 11.5797V7.99969C9.33203 7.57302 9.72536 7.25302 10.1454 7.34636L11.3387 7.61302L11.6587 7.68636L13.0187 7.99302C13.3454 8.05969 13.6454 8.17302 13.9054 8.33969C13.9054 8.34636 13.912 8.34636 13.912 8.34636C13.9787 8.39302 14.0454 8.44636 14.1054 8.50636C14.412 8.81302 14.612 9.25969 14.6587 9.91302C14.6587 9.95302 14.6654 9.99302 14.6654 10.033Z" fill="#A3A3B0"/>
</svg>
