<svg width="36" height="36" viewBox="0 0 36 36" fill="none" xmlns="http://www.w3.org/2000/svg">
<path d="M23.7799 7.39429L18.4834 5.9751C17.3114 5.66107 16.0999 6.35101 15.7858 7.523L15.502 8.5823C15.188 9.75429 15.8809 10.9545 17.0529 11.2686L22.3607 12.6908C23.5327 13.0048 24.7329 12.3119 25.047 11.1399L25.3308 10.0806C25.6561 8.91159 24.9519 7.70832 23.7799 7.39429Z" fill="white"/>
<path d="M26.1848 11.4448C25.7047 13.2366 23.8471 14.3091 22.0553 13.829L16.7588 12.4098C14.9671 11.9297 13.8946 10.0721 14.3747 8.28034C14.5438 7.64927 13.9734 7.07368 13.3314 7.2157C11.516 7.63513 9.98422 9.02435 9.46788 10.9514L6.62648 21.5556C5.88367 24.3278 7.54183 27.1999 10.314 27.9427L19.8703 30.5033C22.6425 31.2461 25.5145 29.5879 26.2573 26.8157L29.0987 16.2114C29.6151 14.2844 28.9831 12.3154 27.6207 11.0445C27.1357 10.6005 26.3539 10.8138 26.1848 11.4448ZM19.5466 24.003C19.3323 24.1267 19.097 24.1483 18.8829 24.0909C18.6688 24.0335 18.4758 23.8973 18.3521 23.6829L17.1559 21.6111L15.0269 22.8403C14.8126 22.964 14.5773 22.9855 14.3632 22.9281C14.1491 22.8708 13.9561 22.7345 13.8324 22.5202C13.5931 22.1058 13.7381 21.5649 14.1524 21.3257L16.2815 20.0965L15.0853 18.0246C14.846 17.6102 14.991 17.0693 15.4053 16.8301C15.8197 16.5908 16.3606 16.7358 16.5999 17.1502L17.7961 19.222L19.7965 18.0671C20.2108 17.8278 20.7518 17.9728 20.991 18.3871C21.2302 18.8015 21.0853 19.3424 20.6709 19.5817L18.6705 20.7366L19.8667 22.8085C20.1059 23.2228 19.964 23.7525 19.5466 24.003Z" fill="white"/>
</svg>
