<svg width="16" height="16" viewBox="0 0 16 16" fill="none" xmlns="http://www.w3.org/2000/svg">
<path d="M9.56618 1.33334L6.43285 1.33334C5.73952 1.33334 5.17285 1.89334 5.17285 2.58667V3.21334C5.17285 3.90667 5.73285 4.46667 6.42618 4.46667H9.56618C10.2595 4.46667 10.8195 3.90667 10.8195 3.21334V2.58667C10.8262 1.89334 10.2595 1.33334 9.56618 1.33334Z" fill="white"/>
<path d="M11.4934 3.21334C11.4934 4.27334 10.6267 5.14 9.56669 5.14H6.43336C5.37336 5.14 4.50669 4.27334 4.50669 3.21334C4.50669 2.84 4.10669 2.60667 3.77336 2.78C2.83336 3.28 2.19336 4.27333 2.19336 5.41333L2.19336 11.6867C2.19336 13.3267 3.53336 14.6667 5.17336 14.6667H10.8267C12.4667 14.6667 13.8067 13.3267 13.8067 11.6867V5.41333C13.8067 4.27333 13.1667 3.28 12.2267 2.78C11.8934 2.60667 11.4934 2.84 11.4934 3.21334ZM9.68669 11.1267C9.58669 11.2267 9.46003 11.2733 9.33336 11.2733C9.20669 11.2733 9.08003 11.2267 8.98003 11.1267L8.01336 10.16L7.02003 11.1533C6.92003 11.2533 6.79336 11.3 6.66669 11.3C6.54003 11.3 6.41336 11.2533 6.31336 11.1533C6.12003 10.96 6.12003 10.64 6.31336 10.4467L7.30669 9.45334L6.34003 8.48667C6.14669 8.29334 6.14669 7.97334 6.34003 7.78C6.53336 7.58667 6.85336 7.58667 7.04669 7.78L8.01336 8.74667L8.94669 7.81334C9.14003 7.62 9.46003 7.62 9.65336 7.81334C9.84669 8.00667 9.84669 8.32667 9.65336 8.52L8.72003 9.45334L9.68669 10.42C9.88003 10.6133 9.88003 10.9267 9.68669 11.1267Z" fill="white"/>
</svg>
