<svg width="234" height="168" viewBox="0 0 234 168" fill="none" xmlns="http://www.w3.org/2000/svg">
<g clip-path="url(#clip0_296_9499)">
<path d="M138.922 198.81C184.125 186.698 210.951 140.234 198.839 95.0308C186.726 49.8273 140.263 23.0015 95.0592 35.1138C49.8556 47.226 23.0299 93.6896 35.1421 138.893C47.2544 184.097 93.718 210.922 138.922 198.81Z" fill="url(#paint0_linear_296_9499)"/>
<path d="M134.139 180.965C169.486 171.493 190.463 135.16 180.992 99.813C171.521 64.4655 135.188 43.4887 99.8402 52.96C64.4927 62.4313 43.5159 98.7642 52.9873 134.112C62.4586 169.459 98.7914 190.436 134.139 180.965Z" fill="url(#paint1_linear_296_9499)"/>
<path d="M99.4545 51.5167C103.479 50.4383 105.868 46.3014 104.789 42.2766C103.711 38.2519 99.5739 35.8634 95.5491 36.9419C91.5244 38.0203 89.136 42.1572 90.2144 46.1819C91.2928 50.2067 95.4297 52.5951 99.4545 51.5167Z" fill="url(#paint2_linear_296_9499)"/>
<path d="M98.9431 49.6078C101.915 48.8116 103.678 45.7574 102.882 42.786C102.085 39.8146 99.0313 38.0513 96.0599 38.8474C93.0885 39.6436 91.3251 42.6979 92.1213 45.6693C92.9175 48.6406 95.9717 50.404 98.9431 49.6078Z" fill="url(#paint3_linear_296_9499)"/>
<path d="M191.677 104.761C195.702 103.682 198.09 99.5455 197.012 95.5208C195.933 91.496 191.797 89.1076 187.772 90.186C183.747 91.2644 181.359 95.4014 182.437 99.4261C183.515 103.451 187.652 105.839 191.677 104.761Z" fill="url(#paint4_linear_296_9499)"/>
<path d="M191.166 102.854C194.137 102.058 195.901 99.0035 195.104 96.0321C194.308 93.0607 191.254 91.2974 188.283 92.0935C185.311 92.8897 183.548 95.9439 184.344 98.9153C185.14 101.887 188.194 103.65 191.166 102.854Z" fill="url(#paint5_linear_296_9499)"/>
<path d="M46.2103 143.737C50.235 142.659 52.6235 138.522 51.5451 134.497C50.4667 130.473 46.3297 128.084 42.305 129.163C38.2803 130.241 35.8918 134.378 36.9702 138.403C38.0487 142.427 42.1856 144.816 46.2103 143.737Z" fill="url(#paint6_linear_296_9499)"/>
<path d="M45.699 141.83C48.6704 141.034 50.4337 137.98 49.6375 135.009C48.8414 132.037 45.7871 130.274 42.8157 131.07C39.8443 131.866 38.081 134.921 38.8772 137.892C39.6733 140.863 42.7276 142.627 45.699 141.83Z" fill="url(#paint7_linear_296_9499)"/>
<path d="M91.3953 68.0825C91.0765 67.7869 90.6558 67.5841 90.1523 67.5389L76.4406 66.3054C75.2759 66.2005 74.2465 67.0599 74.1416 68.2243L72.9086 81.9335C72.8389 82.7085 73.1698 83.3577 73.6848 83.7681L83.3896 88.8453C83.5579 89.3005 83.879 89.6653 84.2761 89.9068L110.762 121.627L186.531 165.373C193.62 155.178 198.457 143.472 200.558 131.082L91.3953 68.0825Z" fill="url(#paint8_linear_296_9499)"/>
<path d="M195 150.053L122.98 108.472C120.547 106.758 117.4 106.095 114.301 106.926C108.758 108.411 105.468 114.109 106.953 119.653C107.784 122.752 109.931 125.145 112.631 126.395L184.652 167.976C188.816 162.446 192.292 156.424 195 150.053Z" fill="url(#paint9_linear_296_9499)"/>
<path d="M104.69 71.06C101.118 72.0171 106.083 102.127 107.163 106.157C108.086 109.605 112.005 115.754 115.355 116.865L189.999 159.961C195.922 149.903 199.779 138.636 201.167 126.848L104.69 71.06Z" fill="url(#paint10_linear_296_9499)"/>
<path d="M120.098 102.691C121.178 106.722 120.562 116.005 116.99 116.962C113.418 117.919 108.243 110.188 107.163 106.157C106.083 102.127 101.118 72.0171 104.69 71.06C108.262 70.1029 119.018 98.6605 120.098 102.691Z" fill="url(#paint11_linear_296_9499)"/>
<path d="M120.097 102.692C119.017 98.6611 108.261 70.1035 104.689 71.0605L116.989 116.963C120.561 116.006 121.177 106.723 120.097 102.692Z" fill="url(#paint12_linear_296_9499)"/>
<path d="M91.0517 74.255L122.455 111.865C122.997 112.514 122.41 112.88 121.762 113.421L112.416 121.222C111.768 121.763 111.303 122.275 110.761 121.627L79.3577 84.0165C78.6081 83.1189 77.2727 82.9989 76.375 83.7481C74.9267 84.957 72.7396 83.812 72.9085 81.9332L74.1416 68.2243C74.2464 67.0596 75.2755 66.2007 76.4406 66.3054L90.1523 67.5389C92.0312 67.7081 92.7682 70.0639 91.3199 71.2731C90.4222 72.0224 90.3021 73.3574 91.0517 74.255Z" fill="url(#paint13_linear_296_9499)"/>
<path d="M121.761 113.422C122.409 112.88 122.996 112.514 122.455 111.866L91.0509 74.2559C90.3013 73.3584 90.4214 72.0233 91.319 71.2737C92.7673 70.0648 92.0303 67.7087 90.1514 67.5395L76.4397 66.306C75.8572 66.2538 75.3088 66.4424 74.8927 66.7895L117.088 117.322L121.761 113.422Z" fill="url(#paint14_linear_296_9499)"/>
<path d="M119.68 126.999C125.224 125.513 128.513 119.815 127.028 114.272C125.543 108.728 119.845 105.438 114.301 106.924C108.758 108.409 105.468 114.107 106.953 119.651C108.439 125.194 114.137 128.484 119.68 126.999Z" fill="url(#paint15_linear_296_9499)"/>
<path d="M41.3123 60.8003C36.2874 66.399 32.4931 73.0167 30.1972 80.184C29.681 81.7956 27.6382 82.3391 26.3895 81.1969C20.8368 76.1172 14.2561 72.2595 7.11339 69.8972C5.52808 69.3728 4.99219 67.3584 6.1074 66.1154C11.1325 60.5171 14.9267 53.8994 17.2223 46.7322C17.7384 45.1206 19.7809 44.5772 21.0299 45.7193C26.5834 50.7988 33.1641 54.6566 40.3064 57.0189C41.8917 57.5433 42.4276 59.5577 41.3123 60.8003Z" fill="url(#paint16_linear_296_9499)"/>
<path d="M227.233 165.899C221.611 172.163 217.365 179.567 214.797 187.587C214.219 189.39 211.934 189.998 210.536 188.72C204.323 183.036 196.96 178.72 188.968 176.077C187.194 175.49 186.595 173.236 187.843 171.846C193.465 165.581 197.71 158.177 200.279 150.158C200.856 148.355 203.142 147.746 204.539 149.024C210.753 154.708 218.116 159.024 226.107 161.667C227.881 162.254 228.481 164.508 227.233 165.899Z" fill="url(#paint17_linear_296_9499)"/>
<path d="M170.978 49.6599C164.228 43.6013 156.249 39.0266 147.607 36.2587C145.664 35.6363 145.009 33.1736 146.386 31.668C152.51 24.9726 157.162 17.0387 160.01 8.42678C160.642 6.51523 163.071 5.86944 164.569 7.21396C171.32 13.2725 179.298 17.8469 187.94 20.6148C189.883 21.2372 190.538 23.6999 189.161 25.2055C183.037 31.9009 178.386 39.8355 175.538 48.4471C174.905 50.3587 172.476 51.0049 170.978 49.6599Z" fill="url(#paint18_linear_296_9499)"/>
<path d="M48.0639 181.633C44.2989 178.254 39.8491 175.703 35.0293 174.159C33.9454 173.812 33.5801 172.438 34.3482 171.598C37.7641 167.864 40.3582 163.439 41.9465 158.636C42.2992 157.57 43.654 157.21 44.4894 157.96C48.2544 161.339 52.7043 163.89 57.524 165.434C58.6079 165.781 58.9732 167.154 58.2051 167.994C54.7892 171.729 52.1952 176.154 50.6068 180.957C50.2541 182.023 48.8994 182.384 48.0639 181.633Z" fill="url(#paint19_linear_296_9499)"/>
</g>
<defs>
<linearGradient id="paint0_linear_296_9499" x1="95.882" y1="103.278" x2="180.87" y2="158.374" gradientUnits="userSpaceOnUse">
<stop stop-color="#F8F6FB"/>
<stop offset="1" stop-color="#EFDCFB"/>
</linearGradient>
<linearGradient id="paint1_linear_296_9499" x1="133.496" y1="127.663" x2="67.0384" y2="84.5798" gradientUnits="userSpaceOnUse">
<stop stop-color="#F8F6FB"/>
<stop offset="1" stop-color="#EFDCFB"/>
</linearGradient>
<linearGradient id="paint2_linear_296_9499" x1="99.3811" y1="45.4478" x2="91.8142" y2="40.5422" gradientUnits="userSpaceOnUse">
<stop stop-color="#F8F6FB"/>
<stop offset="1" stop-color="#EFDCFB"/>
</linearGradient>
<linearGradient id="paint3_linear_296_9499" x1="96.1142" y1="43.3281" x2="101.701" y2="46.9498" gradientUnits="userSpaceOnUse">
<stop stop-color="#9B62CD"/>
<stop offset="0.3003" stop-color="#985DCB"/>
<stop offset="0.6716" stop-color="#8F4EC7"/>
<stop offset="1" stop-color="#833AC1"/>
</linearGradient>
<linearGradient id="paint4_linear_296_9499" x1="191.604" y1="98.6923" x2="184.037" y2="93.7864" gradientUnits="userSpaceOnUse">
<stop stop-color="#F8F6FB"/>
<stop offset="1" stop-color="#EFDCFB"/>
</linearGradient>
<linearGradient id="paint5_linear_296_9499" x1="188.336" y1="96.5743" x2="193.923" y2="100.196" gradientUnits="userSpaceOnUse">
<stop stop-color="#9B62CD"/>
<stop offset="0.3003" stop-color="#985DCB"/>
<stop offset="0.6716" stop-color="#8F4EC7"/>
<stop offset="1" stop-color="#833AC1"/>
</linearGradient>
<linearGradient id="paint6_linear_296_9499" x1="46.1371" y1="137.669" x2="38.5701" y2="132.763" gradientUnits="userSpaceOnUse">
<stop stop-color="#F8F6FB"/>
<stop offset="1" stop-color="#EFDCFB"/>
</linearGradient>
<linearGradient id="paint7_linear_296_9499" x1="42.8702" y1="135.551" x2="48.4564" y2="139.172" gradientUnits="userSpaceOnUse">
<stop stop-color="#9B62CD"/>
<stop offset="0.3003" stop-color="#985DCB"/>
<stop offset="0.6716" stop-color="#8F4EC7"/>
<stop offset="1" stop-color="#833AC1"/>
</linearGradient>
<linearGradient id="paint8_linear_296_9499" x1="148.339" y1="118.883" x2="34.6891" y2="91.1481" gradientUnits="userSpaceOnUse">
<stop stop-color="#EFDCFB" stop-opacity="0"/>
<stop offset="0.4856" stop-color="#BAAAD6" stop-opacity="0.486"/>
<stop offset="1" stop-color="#8679B2"/>
</linearGradient>
<linearGradient id="paint9_linear_296_9499" x1="139.378" y1="132.002" x2="99.6907" y2="115.258" gradientUnits="userSpaceOnUse">
<stop stop-color="#EFDCFB" stop-opacity="0"/>
<stop offset="0.4856" stop-color="#BAAAD6" stop-opacity="0.486"/>
<stop offset="1" stop-color="#8679B2"/>
</linearGradient>
<linearGradient id="paint10_linear_296_9499" x1="138.386" y1="115.433" x2="91.7551" y2="115.027" gradientUnits="userSpaceOnUse">
<stop stop-color="#EFDCFB" stop-opacity="0"/>
<stop offset="0.4856" stop-color="#BAAAD6" stop-opacity="0.486"/>
<stop offset="1" stop-color="#8679B2"/>
</linearGradient>
<linearGradient id="paint11_linear_296_9499" x1="104.372" y1="95.7441" x2="117.308" y2="92.2781" gradientUnits="userSpaceOnUse">
<stop stop-color="#92F37F"/>
<stop offset="1" stop-color="#4AB272"/>
</linearGradient>
<linearGradient id="paint12_linear_296_9499" x1="114.585" y1="90.6669" x2="95.6743" y2="108.616" gradientUnits="userSpaceOnUse">
<stop stop-color="#005A01" stop-opacity="0"/>
<stop offset="1" stop-color="#005A01"/>
</linearGradient>
<linearGradient id="paint13_linear_296_9499" x1="84.1736" y1="95.2445" x2="123.674" y2="92.4594" gradientUnits="userSpaceOnUse">
<stop stop-color="#FFD945"/>
<stop offset="0.3043" stop-color="#FFCD3E"/>
<stop offset="0.8558" stop-color="#FFAD2B"/>
<stop offset="1" stop-color="#FFA325"/>
</linearGradient>
<linearGradient id="paint14_linear_296_9499" x1="98.4176" y1="81.3799" x2="106.329" y2="156.777" gradientUnits="userSpaceOnUse">
<stop stop-color="#F35227" stop-opacity="0"/>
<stop offset="1" stop-color="#F35227"/>
</linearGradient>
<linearGradient id="paint15_linear_296_9499" x1="114.402" y1="115.283" x2="124.824" y2="122.04" gradientUnits="userSpaceOnUse">
<stop stop-color="#FF819C"/>
<stop offset="0.2594" stop-color="#FF7E9A"/>
<stop offset="0.4757" stop-color="#FE7396"/>
<stop offset="0.6765" stop-color="#FC628E"/>
<stop offset="0.8668" stop-color="#FA4A83"/>
<stop offset="1" stop-color="#F83479"/>
</linearGradient>
<linearGradient id="paint16_linear_296_9499" x1="15.6984" y1="57.1331" x2="41.7249" y2="77.647" gradientUnits="userSpaceOnUse">
<stop stop-color="#FF819C"/>
<stop offset="0.2594" stop-color="#FF7E9A"/>
<stop offset="0.4757" stop-color="#FE7396"/>
<stop offset="0.6765" stop-color="#FC628E"/>
<stop offset="0.8668" stop-color="#FA4A83"/>
<stop offset="1" stop-color="#F83479"/>
</linearGradient>
<linearGradient id="paint17_linear_296_9499" x1="198.552" y1="161.833" x2="227.673" y2="184.786" gradientUnits="userSpaceOnUse">
<stop stop-color="#92F37F"/>
<stop offset="1" stop-color="#4AB272"/>
</linearGradient>
<linearGradient id="paint18_linear_296_9499" x1="160.535" y1="24.2582" x2="201.55" y2="47.9378" gradientUnits="userSpaceOnUse">
<stop stop-color="#00ADFB"/>
<stop offset="1" stop-color="#3F3CED"/>
</linearGradient>
<linearGradient id="paint19_linear_296_9499" x1="36.3315" y1="164.055" x2="58.1251" y2="176.637" gradientUnits="userSpaceOnUse">
<stop stop-color="#FF7044"/>
<stop offset="1" stop-color="#F82814"/>
</linearGradient>
<clipPath id="clip0_296_9499">
<rect width="190" height="190" fill="white" transform="translate(0.648438 49.8242) rotate(-15)"/>
</clipPath>
</defs>
</svg>
