<svg width="35" height="35" viewBox="0 0 35 35" fill="none" xmlns="http://www.w3.org/2000/svg">
<path d="M20.8209 6.36242C14.6116 4.69865 8.19598 8.40271 6.5322 14.612C4.86843 20.8213 8.57249 27.2369 14.7818 28.9007C20.9911 30.5645 27.4067 26.8604 29.0705 20.6511C30.7342 14.4418 27.0302 8.0262 20.8209 6.36242ZM20.8933 21.238C21.1325 21.6524 20.9876 22.1933 20.5732 22.4326C20.3589 22.5563 20.1236 22.5778 19.9095 22.5204C19.6954 22.4631 19.5024 22.3268 19.3787 22.1125L17.4813 18.8261L14.1949 20.7235C13.9805 20.8472 13.7453 20.8687 13.5312 20.8114C13.3171 20.754 13.1241 20.6177 13.0003 20.4034C12.7611 19.989 12.906 19.4481 13.3204 19.2089L16.6068 17.3115L14.7094 14.0251C14.4702 13.6107 14.6151 13.0698 15.0295 12.8306C15.4439 12.5913 15.9848 12.7363 16.224 13.1506L18.1214 16.437L21.4078 14.5396C21.8222 14.3004 22.3631 14.4453 22.6023 14.8597C22.8416 15.2741 22.6966 15.815 22.2823 16.0542L18.9959 17.9516L20.8933 21.238Z" fill="white"/>
</svg>
