<svg width="25" height="24" viewBox="0 0 25 24" fill="none" xmlns="http://www.w3.org/2000/svg">
<path d="M12.25 2C6.74 2 2.25 6.49 2.25 12C2.25 17.51 6.74 22 12.25 22C17.76 22 22.25 17.51 22.25 12C22.25 6.49 17.76 2 12.25 2ZM15.61 14.3C15.9 14.59 15.9 15.07 15.61 15.36C15.46 15.51 15.27 15.58 15.08 15.58C14.89 15.58 14.7 15.51 14.55 15.36L12.25 13.06L9.95 15.36C9.8 15.51 9.61 15.58 9.42 15.58C9.23 15.58 9.04 15.51 8.89 15.36C8.6 15.07 8.6 14.59 8.89 14.3L11.19 12L8.89 9.7C8.6 9.41 8.6 8.93 8.89 8.64C9.18 8.35 9.66 8.35 9.95 8.64L12.25 10.94L14.55 8.64C14.84 8.35 15.32 8.35 15.61 8.64C15.9 8.93 15.9 9.41 15.61 9.7L13.31 12L15.61 14.3Z" fill="white"/>
</svg>
