<svg width="180" height="146" viewBox="0 0 180 146" fill="none" xmlns="http://www.w3.org/2000/svg">
<path d="M144.345 82.0555C144.345 52.0068 119.958 27.6542 89.8958 27.711C59.9081 27.7679 35.4825 52.3919 35.6572 82.3788C35.7578 99.6666 43.9308 115.041 56.5972 124.925C59.9014 127.503 61.8366 131.457 61.8366 135.648C61.8366 144.681 69.1591 152.003 78.1919 152.003H101.81C110.843 152.003 118.165 144.681 118.165 135.648V135.647C118.165 131.46 120.095 127.506 123.397 124.931C136.147 114.986 144.345 99.4785 144.345 82.0555Z" fill="url(#paint0_linear_503_4600)"/>
<path d="M44.6641 112.027C47.9221 116.946 51.9555 121.305 56.5952 124.926C59.8995 127.504 61.8347 131.457 61.8347 135.648C61.8347 144.681 69.1571 152.004 78.1899 152.004H101.808C110.841 152.004 118.163 144.681 118.163 135.648V135.647C118.163 131.46 120.093 127.507 123.395 124.932C128.038 121.31 132.073 116.948 135.333 112.027H44.6641Z" fill="url(#paint1_linear_503_4600)"/>
<path d="M90.0008 132.697C117.555 132.697 139.892 110.36 139.892 82.8055C139.892 55.2512 117.555 32.9141 90.0008 32.9141C62.4465 32.9141 40.1094 55.2512 40.1094 82.8055C40.1094 110.36 62.4465 132.697 90.0008 132.697Z" fill="url(#paint2_linear_503_4600)"/>
<path d="M100.816 28.7891V152.004H101.809C110.841 152.004 118.164 144.682 118.164 135.649V135.648C118.164 131.46 120.094 127.507 123.395 124.932C136.145 114.986 144.344 99.479 144.344 82.0564C144.344 55.7467 125.648 33.804 100.816 28.7891Z" fill="url(#paint3_linear_503_4600)"/>
<path d="M68.5117 41.9725L87.6821 1.46965C88.6096 -0.489882 91.3978 -0.489882 92.3254 1.46965L111.496 41.9721C111.496 53.8775 68.5117 53.8775 68.5117 41.9725Z" fill="url(#paint4_linear_503_4600)"/>
<path d="M111.498 145.756L111.494 41.97C109.886 42.4016 108.089 42.4094 106.304 41.9033C103.872 41.2052 101.899 38.2828 100.719 36.0745C100.46 35.5959 99.9302 35.4508 99.4989 35.6075C99.2359 35.6979 99.0048 35.8976 98.8869 36.2036C98.8908 36.2075 98.8869 36.2114 98.8869 36.2114C98.7651 36.5213 98.6282 36.8234 98.4789 37.1135C98.4044 37.2508 98.3299 37.3881 98.2555 37.5254C98.2516 37.537 98.2477 37.5409 98.2399 37.549C97.989 37.9803 97.7105 38.3845 97.3968 38.7688C97.2948 38.8945 97.185 39.0197 97.0791 39.1415C96.8995 39.3406 96.7117 39.5322 96.5162 39.7154C95.1471 40.9987 93.3969 41.8825 91.4543 42.1775C90.9796 42.252 90.4971 42.2873 90.003 42.2873C89.5089 42.2873 89.0264 42.252 88.5517 42.1775C86.3317 41.8401 84.3623 40.734 82.9269 39.1415C82.821 39.0197 82.7112 38.8945 82.6092 38.7688C82.2955 38.3845 82.0131 37.9765 81.7661 37.549C81.7583 37.5413 81.7544 37.5374 81.7505 37.5254C81.676 37.3881 81.6016 37.2508 81.5268 37.1135C81.4484 36.9646 81.3778 36.8156 81.3111 36.6625C81.2444 36.5174 81.1816 36.3681 81.1226 36.2153C81.1188 36.2114 81.1188 36.2114 81.1188 36.2036C81.0012 35.8976 80.7697 35.6975 80.5068 35.6075C80.0751 35.4505 79.5457 35.5959 79.287 36.0745C78.1064 38.2828 76.1373 41.2013 73.7052 41.8994C71.9165 42.4094 70.1239 42.4055 68.5117 41.97L68.5078 145.756C68.5117 149 71.1397 151.628 74.3797 151.628H80.5068H99.4996H105.627C108.866 151.627 111.494 148.999 111.498 145.756Z" fill="url(#paint5_linear_503_4600)"/>
<path d="M99.4999 151.63V35.6094C99.237 35.6997 99.0058 35.8995 98.8879 36.2055C98.8918 36.2094 98.8879 36.2133 98.8879 36.2133C98.7662 36.5231 97.7112 38.3941 97.3975 38.7707C97.2955 38.9041 97.1896 39.0255 97.0798 39.1434C95.644 40.7358 93.675 41.842 91.455 42.1794C90.9803 42.2538 90.4978 42.2891 90.0037 42.2891C89.5096 42.2891 89.0271 42.2538 88.5524 42.1794C86.3324 41.842 84.363 40.7358 82.9276 39.1434C82.8178 39.0258 82.7119 38.9041 82.6099 38.7707C82.2962 38.3941 82.0138 37.9861 81.7668 37.5509C81.759 37.5431 81.7551 37.5393 81.7512 37.5273C81.6729 37.3938 81.1826 36.37 81.1237 36.2171C81.1198 36.2133 81.1198 36.2133 81.1198 36.2055C81.0023 35.8995 80.7708 35.6994 80.5078 35.6094V151.63H99.4999Z" fill="url(#paint6_linear_503_4600)"/>
<path d="M90.0004 11.1932C87.7423 11.1932 85.5742 10.8371 83.5508 10.1905L87.6788 1.46965C88.6063 -0.489882 91.3945 -0.489882 92.3221 1.46965L96.4497 10.1908C94.4263 10.8371 92.2585 11.1932 90.0004 11.1932Z" fill="url(#paint7_linear_503_4600)"/>
<path d="M90.0003 179.999C74.4455 179.999 61.8359 167.39 61.8359 151.835V144.578H118.165V151.835C118.165 167.39 105.555 179.999 90.0003 179.999Z" fill="url(#paint8_linear_503_4600)"/>
<path d="M59.8086 141.932V148.182C59.8086 149.612 61.2895 150.83 63.3147 151.076C71.1751 152.032 80.2859 152.579 90.0009 152.579C99.716 152.579 108.827 152.032 116.687 151.076C118.712 150.83 120.193 149.612 120.193 148.182V141.932C120.193 140.124 117.865 138.744 115.298 139.035C107.761 139.89 99.1502 140.376 90.0006 140.376C80.851 140.376 72.2402 139.89 64.7032 139.035C62.137 138.744 59.8086 140.124 59.8086 141.932Z" fill="url(#paint9_linear_503_4600)"/>
<path d="M148.293 82.808C148.293 79.0912 151.306 76.0781 155.023 76.0781H173.268C176.985 76.0781 179.998 79.0912 179.998 82.808C179.998 86.5248 176.985 89.5379 173.268 89.5379H155.023C151.306 89.5379 148.293 86.5248 148.293 82.808Z" fill="url(#paint10_linear_503_4600)"/>
<path d="M0 82.808C0 79.0912 3.01306 76.0781 6.72988 76.0781H24.9752C28.692 76.0781 31.7051 79.0912 31.7051 82.808C31.7051 86.5248 28.692 89.5379 24.9752 89.5379H6.72988C3.01306 89.5379 0 86.5248 0 82.808H0Z" fill="url(#paint11_linear_503_4600)"/>
<path d="M131.221 41.5858C128.593 38.9574 128.593 34.6963 131.221 32.068L144.123 19.1666C146.751 16.5382 151.012 16.5382 153.64 19.1666C156.269 21.7949 156.269 26.056 153.64 28.6843L140.739 41.5858C138.111 44.2141 133.849 44.2141 131.221 41.5858Z" fill="url(#paint12_linear_503_4600)"/>
<path d="M26.3619 146.445C23.7335 143.817 23.7335 139.556 26.3619 136.927L39.2633 124.026C41.8917 121.398 46.1527 121.398 48.7811 124.026C51.4094 126.654 51.4094 130.915 48.7811 133.544L35.8797 146.445C33.2513 149.073 28.9899 149.073 26.3619 146.445Z" fill="url(#paint13_linear_503_4600)"/>
<path d="M131.221 124.026C133.85 121.398 138.111 121.398 140.739 124.026L153.64 136.927C156.269 139.556 156.269 143.817 153.64 146.445C151.012 149.073 146.751 149.073 144.123 146.445L131.221 133.544C128.593 130.916 128.593 126.654 131.221 124.026Z" fill="url(#paint14_linear_503_4600)"/>
<path d="M26.3619 19.1666C28.9902 16.5382 33.2513 16.5382 35.8797 19.1666L48.7811 32.068C51.4094 34.6963 51.4094 38.9574 48.7811 41.5858C46.1527 44.2141 41.8917 44.2141 39.2633 41.5858L26.3619 28.684C23.7335 26.056 23.7335 21.7946 26.3619 19.1666Z" fill="url(#paint15_linear_503_4600)"/>
<defs>
<linearGradient id="paint0_linear_503_4600" x1="66.38" y1="64.2729" x2="118.947" y2="116.84" gradientUnits="userSpaceOnUse">
<stop stop-color="#FFEBB4"/>
<stop offset="1" stop-color="#FFCE47"/>
</linearGradient>
<linearGradient id="paint1_linear_503_4600" x1="89.9987" y1="120.936" x2="89.9987" y2="146.674" gradientUnits="userSpaceOnUse">
<stop stop-color="#FF9356" stop-opacity="0"/>
<stop offset="1" stop-color="#FF755C"/>
</linearGradient>
<linearGradient id="paint2_linear_503_4600" x1="95.1509" y1="93.1802" x2="70.1941" y2="42.9048" gradientUnits="userSpaceOnUse">
<stop stop-color="#FFEBB4" stop-opacity="0"/>
<stop offset="1" stop-color="#FFF5D9"/>
</linearGradient>
<linearGradient id="paint3_linear_503_4600" x1="126.405" y1="90.3964" x2="104.992" y2="90.3964" gradientUnits="userSpaceOnUse">
<stop stop-color="#FF9356" stop-opacity="0"/>
<stop offset="1" stop-color="#FF755C"/>
</linearGradient>
<linearGradient id="paint4_linear_503_4600" x1="68.511" y1="25.4633" x2="111.496" y2="25.4633" gradientUnits="userSpaceOnUse">
<stop stop-color="#FFE0EA"/>
<stop offset="1" stop-color="#FFC0D5"/>
</linearGradient>
<linearGradient id="paint5_linear_503_4600" x1="52.8281" y1="57.5426" x2="127.418" y2="132.133" gradientUnits="userSpaceOnUse">
<stop stop-color="#FFCE47"/>
<stop offset="1" stop-color="#FF9356"/>
</linearGradient>
<linearGradient id="paint6_linear_503_4600" x1="107.957" y1="93.3773" x2="64.5705" y2="93.3773" gradientUnits="userSpaceOnUse">
<stop stop-color="#FFCE47"/>
<stop offset="1" stop-color="#FF9356"/>
</linearGradient>
<linearGradient id="paint7_linear_503_4600" x1="88.7023" y1="5.60894" x2="99.67" y2="5.60894" gradientUnits="userSpaceOnUse">
<stop stop-color="#2F73A0"/>
<stop offset="1" stop-color="#174461"/>
</linearGradient>
<linearGradient id="paint8_linear_503_4600" x1="80.1733" y1="139.436" x2="105.235" y2="173.574" gradientUnits="userSpaceOnUse">
<stop stop-color="#45A2E0"/>
<stop offset="1" stop-color="#2F73A0"/>
</linearGradient>
<linearGradient id="paint9_linear_503_4600" x1="90.0013" y1="141.504" x2="90.0013" y2="151.434" gradientUnits="userSpaceOnUse">
<stop stop-color="#C7E9FF"/>
<stop offset="1" stop-color="#7ACBFF"/>
</linearGradient>
<linearGradient id="paint10_linear_503_4600" x1="164.146" y1="83.9907" x2="164.146" y2="77.3692" gradientUnits="userSpaceOnUse">
<stop stop-color="#6FA953"/>
<stop offset="1" stop-color="#43765A"/>
</linearGradient>
<linearGradient id="paint11_linear_503_4600" x1="15.8527" y1="83.9907" x2="15.8527" y2="77.3692" gradientUnits="userSpaceOnUse">
<stop stop-color="#FF755C"/>
<stop offset="1" stop-color="#FF4181"/>
</linearGradient>
<linearGradient id="paint12_linear_503_4600" x1="143.203" y1="31.1087" x2="138.521" y2="26.4272" gradientUnits="userSpaceOnUse">
<stop stop-color="#7ACBFF"/>
<stop offset="1" stop-color="#45A2E0"/>
</linearGradient>
<linearGradient id="paint13_linear_503_4600" x1="38.3593" y1="135.952" x2="33.6778" y2="131.271" gradientUnits="userSpaceOnUse">
<stop stop-color="#FF9356"/>
<stop offset="1" stop-color="#FF755C"/>
</linearGradient>
<linearGradient id="paint14_linear_503_4600" x1="141.67" y1="135.809" x2="146.352" y2="131.128" gradientUnits="userSpaceOnUse">
<stop stop-color="#FFCE47"/>
<stop offset="1" stop-color="#FF9356"/>
</linearGradient>
<linearGradient id="paint15_linear_503_4600" x1="36.8267" y1="30.9656" x2="41.5081" y2="26.2842" gradientUnits="userSpaceOnUse">
<stop stop-color="#FF4181"/>
<stop offset="1" stop-color="#843561"/>
</linearGradient>
</defs>
</svg>
