<svg width="16" height="16" viewBox="0 0 16 16" fill="none" xmlns="http://www.w3.org/2000/svg">
<path d="M14.1654 6.1C12.6254 3.68 10.372 2.28667 7.9987 2.28667C6.81203 2.28667 5.6587 2.63333 4.60536 3.28C3.55203 3.93333 2.60536 4.88667 1.83203 6.1C1.16536 7.14667 1.16536 8.84667 1.83203 9.89333C3.37203 12.32 5.62536 13.7067 7.9987 13.7067C9.18536 13.7067 10.3387 13.36 11.392 12.7133C12.4454 12.06 13.392 11.1067 14.1654 9.89333C14.832 8.85333 14.832 7.14667 14.1654 6.1ZM7.9987 10.6933C6.50536 10.6933 5.30536 9.48667 5.30536 8C5.30536 6.51333 6.50536 5.30667 7.9987 5.30667C9.49203 5.30667 10.692 6.51333 10.692 8C10.692 9.48667 9.49203 10.6933 7.9987 10.6933Z" fill="#E0E0E9"/>
<path d="M8.00156 6.09333C6.9549 6.09333 6.10156 6.94666 6.10156 8C6.10156 9.04666 6.9549 9.9 8.00156 9.9C9.04823 9.9 9.90823 9.04666 9.90823 8C9.90823 6.95333 9.04823 6.09333 8.00156 6.09333Z" fill="#E0E0E9"/>
</svg>
