<svg width="140" height="140" viewBox="0 0 140 140" fill="none" xmlns="http://www.w3.org/2000/svg">
<g clip-path="url(#clip0_536_11407)">
<path d="M42.0362 23.5858C42.0362 19.2647 38.5331 15.7617 34.2121 15.7617H7.82406C3.50301 15.7617 0 19.2645 0 23.5858V128.407C0 134.809 5.19042 139.999 11.5928 139.999H107.454C112.623 139.999 116.814 135.809 116.814 130.64V40.7692C116.814 35.6002 112.623 31.4098 107.454 31.4098H49.8602C45.5389 31.4098 42.0362 27.9068 42.0362 23.5858Z" fill="url(#paint0_linear_536_11407)"/>
<path d="M116.814 130.641V66.9004H0V128.407C0 134.81 5.19042 140 11.5928 140H107.454C112.624 140 116.814 135.81 116.814 130.641Z" fill="url(#paint1_linear_536_11407)"/>
<path d="M107.455 31.4102H93.6289V140H107.455C112.624 140 116.814 135.809 116.814 130.64V40.7696C116.814 35.6005 112.624 31.4102 107.455 31.4102Z" fill="url(#paint2_linear_536_11407)"/>
<path d="M120.466 0H19.5367C15.3183 0 11.8984 3.41984 11.8984 7.63822V93.3787C11.8984 97.5971 15.3183 101.017 19.5367 101.017H120.466C124.684 101.017 128.104 97.5974 128.104 93.3787V7.63822C128.104 3.41984 124.684 0 120.466 0V0ZM27.3607 93.273C27.3607 94.3027 26.5262 95.1372 25.4965 95.1372H19.3426C18.3129 95.1372 17.4784 94.3027 17.4784 93.273V87.1191C17.4784 86.0894 18.3129 85.2549 19.3426 85.2549H25.4965C26.5262 85.2549 27.3607 86.0894 27.3607 87.1191V93.273ZM27.3607 13.8979C27.3607 14.9273 26.5262 15.762 25.4965 15.762H19.3426C18.3129 15.762 17.4784 14.9275 17.4784 13.8979V7.74363C17.4784 6.71422 18.3129 5.87944 19.3426 5.87944H25.4965C26.5262 5.87944 27.3607 6.71395 27.3607 7.74363V13.8979ZM46.3933 93.273C46.3933 94.3027 45.5588 95.1372 44.5291 95.1372H38.3751C37.3457 95.1372 36.5109 94.3027 36.5109 93.273V87.1191C36.5109 86.0894 37.3457 85.2549 38.3751 85.2549H44.5291C45.5588 85.2549 46.3933 86.0894 46.3933 87.1191V93.273ZM46.3933 13.8979C46.3933 14.9273 45.5588 15.762 44.5291 15.762H38.3751C37.3457 15.762 36.5109 14.9275 36.5109 13.8979V7.74363C36.5109 6.71422 37.3457 5.87944 38.3751 5.87944H44.5291C45.5588 5.87944 46.3933 6.71395 46.3933 7.74363V13.8979ZM65.4261 93.273C65.4261 94.3027 64.5916 95.1372 63.5619 95.1372H57.408C56.3785 95.1372 55.5438 94.3027 55.5438 93.273V87.1191C55.5438 86.0894 56.3783 85.2549 57.408 85.2549H63.5619C64.5913 85.2549 65.4261 86.0894 65.4261 87.1191V93.273ZM65.4261 13.8979C65.4261 14.9273 64.5916 15.762 63.5619 15.762H57.408C56.3785 15.762 55.5438 14.9275 55.5438 13.8979V7.74363C55.5438 6.71422 56.3783 5.87944 57.408 5.87944H63.5619C64.5913 5.87944 65.4261 6.71395 65.4261 7.74363V13.8979ZM84.4586 93.273C84.4586 94.3027 83.6241 95.1372 82.5945 95.1372H76.4405C75.4108 95.1372 74.5763 94.3027 74.5763 93.273V87.1191C74.5763 86.0894 75.4108 85.2549 76.4405 85.2549H82.5945C83.6241 85.2549 84.4586 86.0894 84.4586 87.1191V93.273ZM84.4586 13.8979C84.4586 14.9273 83.6241 15.762 82.5945 15.762H76.4405C75.4108 15.762 74.5763 14.9275 74.5763 13.8979V7.74363C74.5763 6.71422 75.4108 5.87944 76.4405 5.87944H82.5945C83.6241 5.87944 84.4586 6.71395 84.4586 7.74363V13.8979ZM103.491 93.273C103.491 94.3027 102.657 95.1372 101.627 95.1372H95.4731C94.4436 95.1372 93.6089 94.3027 93.6089 93.273V87.1191C93.6089 86.0894 94.4436 85.2549 95.4731 85.2549H101.627C102.657 85.2549 103.491 86.0894 103.491 87.1191V93.273ZM103.491 13.8979C103.491 14.9273 102.657 15.762 101.627 15.762H95.4731C94.4436 15.762 93.6089 14.9275 93.6089 13.8979V7.74363C93.6089 6.71422 94.4436 5.87944 95.4731 5.87944H101.627C102.657 5.87944 103.491 6.71395 103.491 7.74363V13.8979ZM122.524 93.273C122.524 94.3027 121.689 95.1372 120.66 95.1372H114.506C113.476 95.1372 112.642 94.3027 112.642 93.273V87.1191C112.642 86.0894 113.476 85.2549 114.506 85.2549H120.66C121.689 85.2549 122.524 86.0894 122.524 87.1191V93.273ZM122.524 13.8979C122.524 14.9273 121.689 15.762 120.66 15.762H114.506C113.476 15.762 112.642 14.9275 112.642 13.8979V7.74363C112.642 6.71422 113.476 5.87944 114.506 5.87944H120.66C121.689 5.87944 122.524 6.71395 122.524 7.74363V13.8979Z" fill="white"/>
<path d="M87.1767 46.6404C86.7831 46.1457 86.3013 45.7013 85.7331 45.3258L65.5344 31.9939C61.406 29.27 55.9062 32.2308 55.9062 37.1753V63.8389C55.9062 68.7837 61.4063 71.7442 65.5344 69.0203L85.7331 55.6885C86.3013 55.313 86.7831 54.8688 87.1767 54.3739C88.9698 52.1306 88.9698 48.8842 87.1767 46.6404Z" fill="#F85000"/>
<path d="M11.8984 79.3318V93.3784C11.8984 97.5968 15.3183 101.017 19.5367 101.017H120.466C124.684 101.017 128.104 97.5971 128.104 93.3784V79.3318H11.8984ZM27.3607 93.273C27.3607 94.3027 26.5262 95.1372 25.4965 95.1372H19.3426C18.3129 95.1372 17.4784 94.3027 17.4784 93.273V87.1191C17.4784 86.0894 18.3129 85.2549 19.3426 85.2549H25.4965C26.5262 85.2549 27.3607 86.0894 27.3607 87.1191V93.273ZM46.3933 93.273C46.3933 94.3027 45.5588 95.1372 44.5291 95.1372H38.3751C37.3457 95.1372 36.5109 94.3027 36.5109 93.273V87.1191C36.5109 86.0894 37.3457 85.2549 38.3751 85.2549H44.5291C45.5588 85.2549 46.3933 86.0894 46.3933 87.1191V93.273ZM65.4261 93.273C65.4261 94.3027 64.5916 95.1372 63.5619 95.1372H57.408C56.3785 95.1372 55.5438 94.3027 55.5438 93.273V87.1191C55.5438 86.0894 56.3783 85.2549 57.408 85.2549H63.5619C64.5913 85.2549 65.4261 86.0894 65.4261 87.1191V93.273ZM84.4586 93.273C84.4586 94.3027 83.6241 95.1372 82.5945 95.1372H76.4405C75.4108 95.1372 74.5763 94.3027 74.5763 93.273V87.1191C74.5763 86.0894 75.4108 85.2549 76.4405 85.2549H82.5945C83.6241 85.2549 84.4586 86.0894 84.4586 87.1191V93.273ZM103.491 93.273C103.491 94.3027 102.657 95.1372 101.627 95.1372H95.4731C94.4436 95.1372 93.6089 94.3027 93.6089 93.273V87.1191C93.6089 86.0894 94.4436 85.2549 95.4731 85.2549H101.627C102.657 85.2549 103.491 86.0894 103.491 87.1191V93.273ZM122.524 93.273C122.524 94.3027 121.689 95.1372 120.66 95.1372H114.506C113.476 95.1372 112.642 94.3027 112.642 93.273V87.1191C112.642 86.0894 113.476 85.2549 114.506 85.2549H120.66C121.689 85.2549 122.524 86.0894 122.524 87.1191V93.273Z" fill="#433E3C"/>
<path d="M128.104 21.6849V7.63822C128.104 3.41984 124.684 0 120.466 0H19.5367C15.3183 0 11.8984 3.41984 11.8984 7.63822V21.6849H128.104ZM112.642 7.74363C112.642 6.71422 113.476 5.87944 114.506 5.87944H120.66C121.689 5.87944 122.524 6.71395 122.524 7.74363V13.8976C122.524 14.927 121.689 15.7618 120.66 15.7618H114.506C113.476 15.7618 112.642 14.9273 112.642 13.8976V7.74363ZM93.6089 7.74363C93.6089 6.71422 94.4436 5.87944 95.4731 5.87944H101.627C102.657 5.87944 103.491 6.71395 103.491 7.74363V13.8976C103.491 14.927 102.657 15.7618 101.627 15.7618H95.4731C94.4436 15.7618 93.6089 14.9273 93.6089 13.8976V7.74363ZM74.5763 7.74363C74.5763 6.71422 75.4108 5.87944 76.4405 5.87944H82.5945C83.6241 5.87944 84.4586 6.71395 84.4586 7.74363V13.8976C84.4586 14.927 83.6241 15.7618 82.5945 15.7618H76.4405C75.4108 15.7618 74.5763 14.9273 74.5763 13.8976V7.74363ZM55.5438 7.74363C55.5438 6.71422 56.3783 5.87944 57.408 5.87944H63.5619C64.5913 5.87944 65.4261 6.71395 65.4261 7.74363V13.8976C65.4261 14.927 64.5916 15.7618 63.5619 15.7618H57.408C56.3785 15.7618 55.5438 14.9273 55.5438 13.8976V7.74363ZM36.5109 7.74363C36.5109 6.71422 37.3457 5.87944 38.3751 5.87944H44.5291C45.5588 5.87944 46.3933 6.71395 46.3933 7.74363V13.8976C46.3933 14.927 45.5588 15.7618 44.5291 15.7618H38.3751C37.3457 15.7618 36.5109 14.9273 36.5109 13.8976V7.74363ZM17.4784 7.74363C17.4784 6.71422 18.3129 5.87944 19.3426 5.87944H25.4965C26.5262 5.87944 27.3607 6.71395 27.3607 7.74363V13.8976C27.3607 14.927 26.5262 15.7618 25.4965 15.7618H19.3426C18.3129 15.7618 17.4784 14.9273 17.4784 13.8976V7.74363Z" fill="#433E3C"/>
<path d="M124.864 128.124C123.413 135.045 117.31 140.002 110.239 140.002H11.5938C18.1553 140.002 23.8185 135.402 25.1641 128.98L40.5649 55.4819C41.4422 51.2953 45.1338 48.2969 49.4115 48.2969H133.113C137.484 48.2969 140.748 52.3162 139.852 56.5939L124.864 128.124Z" fill="url(#paint3_linear_536_11407)"/>
<path d="M124.864 128.124C123.413 135.045 117.31 140.002 110.239 140.002H11.5938C18.1553 140.002 23.8185 135.402 25.1641 128.98L40.5649 55.4819C41.4422 51.2953 45.1338 48.2969 49.4115 48.2969H133.113C137.484 48.2969 140.748 52.3162 139.852 56.5939L124.864 128.124Z" fill="url(#paint4_linear_536_11407)"/>
<path d="M139.851 56.5933L124.862 128.122C123.41 135.043 117.308 140 110.237 140H97.2578L116.471 48.2949H133.111C137.482 48.2949 140.746 52.3137 139.851 56.5933Z" fill="url(#paint5_linear_536_11407)"/>
<path d="M49.4127 48.2949C45.1331 48.2949 41.4409 51.2926 40.5652 55.4816L38.9813 63.0416L35.5664 79.3309H128.103V48.2949H49.4127Z" fill="url(#paint6_linear_536_11407)"/>
<path d="M38.9815 63.041L31.0234 101.017H120.464C124.683 101.017 128.104 97.5962 128.104 93.3798V63.041H38.9815ZM46.3932 93.2727C46.3932 94.3021 45.5587 95.1366 44.5293 95.1366H38.3748C37.3454 95.1366 36.5109 94.3021 36.5109 93.2727V87.1182C36.5109 86.0888 37.3454 85.2543 38.3748 85.2543H44.5293C45.5587 85.2543 46.3932 86.0888 46.3932 87.1182V93.2727ZM65.4249 93.2727C65.4249 94.3021 64.5904 95.1366 63.561 95.1366H57.4065C56.3771 95.1366 55.5426 94.3021 55.5426 93.2727V87.1182C55.5426 86.0888 56.3771 85.2543 57.4065 85.2543H63.561C64.5904 85.2543 65.4249 86.0888 65.4249 87.1182V93.2727ZM84.4594 93.2727C84.4594 94.3021 83.6249 95.1366 82.5927 95.1366H76.441C75.4116 95.1366 74.5771 94.3021 74.5771 93.2727V87.1182C74.5771 86.0888 75.4116 85.2543 76.441 85.2543H82.5927C83.6249 85.2543 84.4594 86.0888 84.4594 87.1182V93.2727ZM103.491 93.2727C103.491 94.3021 102.657 95.1366 101.627 95.1366H95.4727C94.4433 95.1366 93.6088 94.3021 93.6088 93.2727V87.1182C93.6088 86.0888 94.4433 85.2543 95.4727 85.2543H101.627C102.657 85.2543 103.491 86.0888 103.491 87.1182V93.2727ZM122.523 93.2727C122.523 94.3021 121.689 95.1366 120.659 95.1366H114.505C113.475 95.1366 112.641 94.3021 112.641 93.2727V87.1182C112.641 86.0888 113.475 85.2543 114.505 85.2543H120.659C121.689 85.2543 122.523 86.0888 122.523 87.1182V93.2727Z" fill="url(#paint7_linear_536_11407)"/>
<path d="M55.9062 63.8409C55.9062 68.7857 61.4063 71.7462 65.5344 69.0223L85.7331 55.6905C86.3013 55.3149 86.7831 54.8708 87.1767 54.3758C88.5646 52.639 88.8732 50.3032 88.1125 48.2949H55.9062V63.8409Z" fill="url(#paint8_linear_536_11407)"/>
<path d="M124.864 128.124L134.068 84.1953H34.5485L25.1644 128.98C23.8185 135.403 18.1553 140.002 11.5938 140.002H110.238C117.31 140.002 123.413 135.045 124.864 128.124Z" fill="url(#paint9_linear_536_11407)"/>
<path d="M134.067 84.1947L139.85 56.5936C140.746 52.3165 137.482 48.2974 133.113 48.2969H49.4083C45.1314 48.2977 41.4404 51.2956 40.5633 55.4819L34.5469 84.195H134.067V84.1947Z" fill="url(#paint10_linear_536_11407)"/>
</g>
<defs>
<linearGradient id="paint0_linear_536_11407" x1="10.4874" y1="37.1309" x2="88.7541" y2="115.398" gradientUnits="userSpaceOnUse">
<stop stop-color="#FEE45A"/>
<stop offset="1" stop-color="#FEA613"/>
</linearGradient>
<linearGradient id="paint1_linear_536_11407" x1="58.4071" y1="89.9449" x2="58.4071" y2="141.254" gradientUnits="userSpaceOnUse">
<stop stop-color="#FEA613" stop-opacity="0"/>
<stop offset="1" stop-color="#FF4A4A"/>
</linearGradient>
<linearGradient id="paint2_linear_536_11407" x1="105.559" y1="85.7051" x2="120.474" y2="85.7051" gradientUnits="userSpaceOnUse">
<stop stop-color="#FEA613" stop-opacity="0"/>
<stop offset="1" stop-color="#E94444"/>
</linearGradient>
<linearGradient id="paint3_linear_536_11407" x1="58.0435" y1="48.8195" x2="90.8759" y2="137.878" gradientUnits="userSpaceOnUse">
<stop stop-color="#FEE45A"/>
<stop offset="1" stop-color="#FEA613"/>
</linearGradient>
<linearGradient id="paint4_linear_536_11407" x1="58.0435" y1="48.8195" x2="90.8759" y2="137.878" gradientUnits="userSpaceOnUse">
<stop stop-color="#FEE45A"/>
<stop offset="1" stop-color="#FEA613"/>
</linearGradient>
<linearGradient id="paint5_linear_536_11407" x1="118.271" y1="94.8446" x2="136.938" y2="99.7857" gradientUnits="userSpaceOnUse">
<stop stop-color="#FEA613" stop-opacity="0"/>
<stop offset="1" stop-color="#E94444"/>
</linearGradient>
<linearGradient id="paint6_linear_536_11407" x1="80.5955" y1="58.1915" x2="92.3994" y2="111.721" gradientUnits="userSpaceOnUse">
<stop stop-color="#EAF9FA" stop-opacity="0"/>
<stop offset="1" stop-color="#B3DAFE"/>
</linearGradient>
<linearGradient id="paint7_linear_536_11407" x1="79.031" y1="73.9566" x2="82.5996" y2="128.035" gradientUnits="userSpaceOnUse">
<stop stop-color="#433F43" stop-opacity="0"/>
<stop offset="0.3007" stop-color="#3C393C" stop-opacity="0.301"/>
<stop offset="0.7373" stop-color="#292729" stop-opacity="0.737"/>
<stop offset="1" stop-color="#1A1A1A"/>
</linearGradient>
<linearGradient id="paint8_linear_536_11407" x1="69.4824" y1="51.9865" x2="87.9659" y2="87.4896" gradientUnits="userSpaceOnUse">
<stop stop-color="#FD4755" stop-opacity="0"/>
<stop offset="1" stop-color="#A72B2B"/>
</linearGradient>
<linearGradient id="paint9_linear_536_11407" x1="72.831" y1="118.671" x2="72.831" y2="145.168" gradientUnits="userSpaceOnUse">
<stop stop-color="#FEA613" stop-opacity="0"/>
<stop offset="1" stop-color="#E94444"/>
</linearGradient>
<linearGradient id="paint10_linear_536_11407" x1="86.7396" y1="66.3782" x2="81.7984" y2="38.5614" gradientUnits="userSpaceOnUse">
<stop stop-color="white" stop-opacity="0"/>
<stop offset="1" stop-color="white"/>
</linearGradient>
<clipPath id="clip0_536_11407">
<rect width="140" height="140" fill="white"/>
</clipPath>
</defs>
</svg>
