<svg width="152" height="19" viewBox="0 0 152 19" fill="none" xmlns="http://www.w3.org/2000/svg">
<g clip-path="url(#clip0_1530_18238)">
<path d="M139.83 9.28815C141.007 5.45296 143.542 3.27148 146.982 3.27148C150.211 3.27148 152.172 5.48815 151.599 9.11222C151.509 9.60481 151.448 10.1678 151.267 10.7307L150.633 12.7715C149.457 16.5715 146.952 18.7881 143.482 18.7881C140.253 18.7881 138.321 16.5715 138.864 12.9474C138.955 12.4548 139.046 11.8215 139.196 11.3289L139.83 9.28815ZM143.21 11.3993C143.059 11.8567 142.969 12.3141 142.938 12.6307C142.727 13.9678 143.119 15.0233 144.296 15.0233C145.292 15.0233 146.258 14.0733 146.922 11.8567L147.344 10.4844C147.495 10.027 147.586 9.56963 147.616 9.25296C147.827 7.91592 147.435 6.86037 146.258 6.86037C145.262 6.86037 144.296 7.81037 143.632 10.027L143.21 11.3993Z" fill="white"/>
<path d="M7.01714 11.4345L6.92661 11.153L5.05564 5.03082C4.78405 4.18637 3.99945 3.48267 3.24503 3.48267H0.46875L2.79237 11.153L4.54264 16.9586C4.63317 17.2753 4.81423 17.5919 5.05564 17.8382C5.41777 18.2253 5.9006 18.5067 6.32307 18.5067H9.09935L7.01714 11.4345Z" fill="white"/>
<path d="M15.8854 11.4345L15.7949 11.153L13.9239 5.03082C13.8334 4.71415 13.6523 4.39748 13.4109 4.15119C13.0488 3.76415 12.5659 3.48267 12.1435 3.48267H9.36719L11.5098 10.5901L11.6908 11.1882L13.4411 16.9938C13.5316 17.3104 13.7127 17.6271 13.9541 17.8734C14.3162 18.2604 14.799 18.5419 15.2215 18.5419H17.9978L15.8854 11.4345Z" fill="white"/>
<path d="M7.01562 11.435L9.15819 18.5424L11.512 10.5906L9.36942 3.51837L7.01562 11.435Z" fill="#F85000"/>
<path d="M22.4315 3.76412L22.3108 3.51783L20.7114 0.245605L15.6719 6.19191H17.4523L15.8831 11.4345L18.0257 18.5419L21.7073 6.19191H23.5782L22.4315 3.76412Z" fill="#F85000"/>
<path d="M23.5822 11.4345L23.6727 11.153L25.5437 5.03082C25.8153 4.18637 26.5999 3.48267 27.3543 3.48267H29.9797L27.6561 11.153L25.9058 16.9586C25.8153 17.2753 25.6342 17.5919 25.3928 17.8382C25.0307 18.2253 24.5479 18.5067 24.1254 18.5067H21.5L23.5822 11.4345Z" fill="white"/>
<path d="M57.2853 11.4345L57.3759 11.153L59.2468 5.03082C59.5184 4.18637 60.303 3.48267 61.0574 3.48267H63.6828L61.3592 11.153L59.6089 16.9586C59.5184 17.2753 59.3374 17.5919 59.0959 17.8382C58.7338 18.2253 58.251 18.5067 57.8285 18.5067H55.2031L57.2853 11.4345Z" fill="white"/>
<path d="M108.598 11.4343L108.688 11.1528L110.559 5.03057C110.831 4.18613 111.616 3.48242 112.37 3.48242H114.995L112.672 11.1528L110.921 16.9584C110.831 17.275 110.65 17.5917 110.408 17.838C110.046 18.225 109.563 18.5065 109.141 18.5065H106.516L108.598 11.4343Z" fill="white"/>
<path d="M139.188 5.94487C139.188 5.94487 139.188 5.90968 139.188 5.94487L139.912 3.51709L139.188 5.94487Z" fill="white"/>
<path d="M134.696 3.51709H132.071C131.347 3.51709 130.532 4.22079 130.26 5.06524L128.389 11.1875L128.299 11.4689L126.156 18.5763H128.782C128.812 18.5763 128.842 18.5763 128.842 18.5763H129.747H134.153C134.395 18.5763 134.666 18.506 134.908 18.3652C135.27 18.1541 135.571 17.7671 135.692 17.3801L136.416 14.9875H131.166L131.86 12.7356H135.722C135.934 12.7356 136.175 12.6652 136.386 12.5245C136.718 12.3134 136.99 11.9967 137.08 11.6449L137.714 9.49857H132.946H132.825L133.519 7.21153H137.563C137.805 7.21153 138.076 7.14116 138.318 7.00042C138.68 6.78931 138.981 6.43746 139.102 6.01524L139.826 3.58746L134.696 3.51709Z" fill="white"/>
<path d="M122.893 3.51709H121.384H118.758C118.034 3.51709 117.219 4.22079 116.948 5.06524L115.077 11.1875L114.986 11.4689L113.387 16.7115L112.844 18.5412H118.306C121.927 18.5412 124.884 15.9726 126.182 12.2782C126.333 11.856 126.484 11.3282 126.604 10.8708C126.695 10.4486 126.785 9.99116 126.846 9.60412C127.419 6.05042 126.001 3.51709 122.893 3.51709ZM122.772 9.78005C122.742 9.95597 122.681 10.3078 122.621 10.6245C122.531 11.0467 122.38 11.5041 122.229 11.856C121.384 14.1078 119.875 14.9171 118.457 14.9171H117.913L120.267 7.14117H120.961C121.987 7.14117 123.074 7.70412 122.772 9.78005Z" fill="white"/>
<path d="M84.5467 3.27148C80.8349 3.27148 78.5113 5.87518 77.425 9.42889L76.9723 10.9419C76.7912 11.4696 76.6404 12.1382 76.5498 12.7011C75.9161 16.8178 78.0285 18.8233 81.2574 18.8233C84.8183 18.8233 87.0816 16.5363 88.0472 13.3344L88.3792 12.2437L88.9525 10.3437H86.2366H86.0857H84.426C84.2449 10.3437 84.0337 10.4141 83.8828 10.5196C83.6112 10.6956 83.3698 10.9419 83.2793 11.2585L82.7059 13.1585H84.4864L84.3355 13.6159C84.0941 14.3548 83.2793 15.1641 82.0119 15.1641C80.8953 15.1641 80.3219 14.1085 80.5634 12.6307C80.6237 12.3141 80.7142 11.927 80.835 11.4696L81.2574 10.0974C81.8911 7.9863 82.8568 6.89556 84.0337 6.89556C85.3011 6.89556 85.5124 7.95112 85.452 8.51408C85.4218 8.61964 85.4218 8.76037 85.3917 8.83075H89.194C89.2241 8.72519 89.2845 8.40852 89.2845 8.33815C89.6466 5.98074 88.5602 3.27148 84.5467 3.27148Z" fill="white"/>
<path d="M41.2402 3.51685C40.5159 3.51685 39.7011 4.22055 39.4296 5.06499L37.5586 11.1872L37.468 11.4687L37.2568 12.1372L36.0497 3.51685H33.6959C32.9717 3.51685 32.1569 4.22055 31.8853 5.06499L30.0144 11.1872L29.9238 11.4687L27.7812 18.5761H30.1351C30.5877 18.5761 31.0705 18.3298 31.4025 17.9076C31.6439 17.6613 31.825 17.3446 31.9155 17.028L33.6658 11.2224L33.9374 10.3428L35.2651 18.5761H36.4722H37.5888C38.0414 18.5761 38.5242 18.3298 38.8562 17.9076C39.0976 17.6613 39.2787 17.3446 39.3692 17.028L41.1195 11.2224L43.4431 3.55203H41.2402V3.51685Z" fill="white"/>
<path d="M54.8808 3.51709C54.1565 3.51709 53.3418 4.22079 53.0702 5.06524L51.1992 11.1875L51.1087 11.4689L50.8974 12.1375L49.6904 3.51709H47.3366C46.6123 3.51709 45.7975 4.22079 45.5259 5.06524L43.655 11.1875L43.5644 11.4689L41.4219 18.5763H43.7757C44.2283 18.5763 44.7112 18.3301 45.0431 17.9078C45.2845 17.6615 45.4656 17.3449 45.5561 17.0282L47.3064 11.2226L47.578 10.343L48.9058 18.5763H50.1128H51.2294C51.682 18.5763 52.1649 18.3301 52.4968 17.9078C52.7382 17.6615 52.9193 17.3449 53.0098 17.0282L54.7601 11.2226L57.0837 3.55228H54.8808V3.51709Z" fill="white"/>
<path d="M74.9433 3.51709C74.219 3.51709 73.4043 4.22079 73.1327 5.06524L71.2617 11.1875L71.1712 11.4689L70.9599 12.1375L69.7529 3.51709H67.3991C66.6748 3.51709 65.86 4.22079 65.5884 5.06524L63.7175 11.1875L63.6269 11.4689L61.4844 18.5763H63.8382C64.2908 18.5763 64.7737 18.3301 65.1056 17.9078C65.347 17.6615 65.5281 17.3449 65.6186 17.0282L67.3689 11.2226L67.6405 10.343L68.9683 18.5763H70.1753H71.2919C71.7445 18.5763 72.2274 18.3301 72.5593 17.9078C72.8007 17.6615 72.9818 17.3449 73.0723 17.0282L74.8226 11.2226L77.1462 3.55228H74.9433V3.51709Z" fill="white"/>
<path d="M105.125 3.5181C104.673 3.5181 104.19 3.76439 103.858 4.18661C103.617 4.43291 103.436 4.74958 103.345 5.06624L101.474 11.1885L101.384 11.47L101.263 11.8218L101.142 11.47L101.052 11.1885L99.1806 5.06624C98.9091 4.2218 98.1245 3.5181 97.37 3.5181H94.5938L96.9174 11.1885L98.6676 16.994C98.7582 17.3107 98.9392 17.6274 99.1806 17.8736C99.2108 17.9088 99.2712 17.9792 99.3013 18.0144C99.6333 18.3311 100.056 18.5422 100.448 18.5422H101.927H103.224L105.488 11.1885L105.669 10.5903L107.811 3.48291H105.125V3.5181Z" fill="white"/>
<path d="M93.1723 15.165C94.1078 15.165 94.7113 15.8687 94.5605 16.9947C94.3794 18.1558 93.5646 18.7891 92.6291 18.7891C91.7238 18.7891 91.0901 18.1558 91.241 16.9947C91.4221 15.8336 92.267 15.165 93.1723 15.165Z" fill="white"/>
</g>
<defs>
<clipPath id="clip0_1530_18238">
<rect width="152" height="19" fill="white"/>
</clipPath>
</defs>
</svg>
