<svg width="116" height="20" viewBox="0 0 116 20" fill="none" xmlns="http://www.w3.org/2000/svg">
<path d="M9.56442 0.772788C9.75568 0.433465 10.2443 0.433465 10.4356 0.772787L13.0617 5.43195C13.133 5.55854 13.2559 5.64783 13.3984 5.67657L18.641 6.73438C19.0228 6.81142 19.1738 7.27614 18.9102 7.56289L15.2906 11.5002C15.1922 11.6072 15.1453 11.7517 15.162 11.896L15.776 17.2089C15.8207 17.5959 15.4254 17.8831 15.0712 17.721L10.2081 15.4952C10.076 15.4348 9.92405 15.4348 9.79192 15.4952L4.92877 17.721C4.57459 17.8831 4.17927 17.5959 4.22399 17.2089L4.83802 11.896C4.8547 11.7517 4.80776 11.6072 4.70942 11.5002L1.0898 7.56289C0.826186 7.27614 0.977183 6.81142 1.359 6.73438L6.60164 5.67657C6.74408 5.64783 6.86697 5.55854 6.93832 5.43195L9.56442 0.772788Z" fill="#FFBB54"/>
<path d="M33.5644 0.772788C33.7557 0.433465 34.2443 0.433465 34.4356 0.772787L37.0617 5.43195C37.133 5.55854 37.2559 5.64783 37.3984 5.67657L42.641 6.73438C43.0228 6.81142 43.1738 7.27614 42.9102 7.56289L39.2906 11.5002C39.1922 11.6072 39.1453 11.7517 39.162 11.896L39.776 17.2089C39.8207 17.5959 39.4254 17.8831 39.0712 17.721L34.2081 15.4952C34.076 15.4348 33.924 15.4348 33.7919 15.4952L28.9288 17.721C28.5746 17.8831 28.1793 17.5959 28.224 17.2089L28.838 11.896C28.8547 11.7517 28.8078 11.6072 28.7094 11.5002L25.0898 7.56289C24.8262 7.27614 24.9772 6.81142 25.359 6.73438L30.6016 5.67657C30.7441 5.64783 30.867 5.55854 30.9383 5.43195L33.5644 0.772788Z" fill="#FFBB54"/>
<path d="M57.5644 0.772788C57.7557 0.433465 58.2443 0.433465 58.4356 0.772787L61.0617 5.43195C61.133 5.55854 61.2559 5.64783 61.3984 5.67657L66.641 6.73438C67.0228 6.81142 67.1738 7.27614 66.9102 7.56289L63.2906 11.5002C63.1922 11.6072 63.1453 11.7517 63.162 11.896L63.776 17.2089C63.8207 17.5959 63.4254 17.8831 63.0712 17.721L58.2081 15.4952C58.076 15.4348 57.924 15.4348 57.7919 15.4952L52.9288 17.721C52.5746 17.8831 52.1793 17.5959 52.224 17.2089L52.838 11.896C52.8547 11.7517 52.8078 11.6072 52.7094 11.5002L49.0898 7.56289C48.8262 7.27614 48.9772 6.81142 49.359 6.73438L54.6016 5.67657C54.7441 5.64783 54.867 5.55854 54.9383 5.43195L57.5644 0.772788Z" fill="#FFBB54"/>
<path d="M81.5644 0.772788C81.7557 0.433465 82.2443 0.433465 82.4356 0.772787L85.0617 5.43195C85.133 5.55854 85.2559 5.64783 85.3984 5.67657L90.641 6.73438C91.0228 6.81142 91.1738 7.27614 90.9102 7.56289L87.2906 11.5002C87.1922 11.6072 87.1453 11.7517 87.162 11.896L87.776 17.2089C87.8207 17.5959 87.4254 17.8831 87.0712 17.721L82.2081 15.4952C82.076 15.4348 81.924 15.4348 81.7919 15.4952L76.9288 17.721C76.5746 17.8831 76.1793 17.5959 76.224 17.2089L76.838 11.896C76.8547 11.7517 76.8078 11.6072 76.7094 11.5002L73.0898 7.56289C72.8262 7.27614 72.9772 6.81142 73.359 6.73438L78.6016 5.67657C78.7441 5.64783 78.867 5.55854 78.9383 5.43195L81.5644 0.772788Z" fill="#FFBB54"/>
<path d="M105.564 0.772788C105.756 0.433465 106.244 0.433465 106.436 0.772787L109.062 5.43195C109.133 5.55854 109.256 5.64783 109.398 5.67657L114.641 6.73438C115.023 6.81142 115.174 7.27614 114.91 7.56289L111.291 11.5002C111.192 11.6072 111.145 11.7517 111.162 11.896L111.776 17.2089C111.821 17.5959 111.425 17.8831 111.071 17.721L106.208 15.4952C106.076 15.4348 105.924 15.4348 105.792 15.4952L100.929 17.721C100.575 17.8831 100.179 17.5959 100.224 17.2089L100.838 11.896C100.855 11.7517 100.808 11.6072 100.709 11.5002L97.0898 7.56289C96.8262 7.27614 96.9772 6.81142 97.359 6.73438L102.602 5.67657C102.744 5.64783 102.867 5.55854 102.938 5.43195L105.564 0.772788Z" fill="#FFBB54"/>
</svg>
