<svg width="171" height="36" viewBox="0 0 171 36" fill="none" xmlns="http://www.w3.org/2000/svg">
<g clip-path="url(#clip0_1138_10691)">
<path d="M57.9925 30.103C52.4916 30.103 48 25.7751 48 20.3653L48.0505 9.20136C48.0505 7.67677 49.3121 6.39807 50.9271 6.39807C52.4916 6.39807 53.8037 7.62759 53.8037 9.20136V13.3817L60.9196 13.3817C62.4841 13.3817 63.7963 14.6112 63.7963 16.185C63.7963 17.7095 62.5346 18.9882 60.9196 18.9882H53.8037V20.3653C53.8037 22.6768 55.7215 24.5456 58.0935 24.5456H62.3832C63.9477 24.5456 65.2598 25.7751 65.2598 27.3489C65.2598 28.8735 63.9981 30.1522 62.3832 30.1522H57.9925V30.103Z" fill="white"/>
<path d="M114.365 30.1028C108.864 30.1028 104.423 25.7749 104.423 20.365V9.20111C104.423 7.67652 105.685 6.39783 107.299 6.39783C108.864 6.39783 110.176 7.62734 110.176 9.20111V13.3814L114.466 13.3814C116.03 13.3814 117.342 14.6109 117.342 16.1847C117.342 17.7093 116.081 18.988 114.466 18.988H110.176V20.365C110.176 22.6765 112.094 24.5454 114.466 24.5454H115.929C117.494 24.5454 118.806 25.7749 118.806 27.3486C118.806 28.8732 117.544 30.1519 115.929 30.1519H114.365V30.1028Z" fill="white"/>
<path d="M129.354 30.1034C123.853 30.1034 119.412 25.7755 119.412 20.3656V9.20172C119.412 7.67713 120.673 6.39844 122.288 6.39844C123.853 6.39844 125.165 7.62795 125.165 9.20172V13.382L129.455 13.382C131.019 13.382 132.331 14.6115 132.331 16.1853C132.331 17.7099 131.07 18.9886 129.455 18.9886H125.165V20.3656C125.165 22.6771 127.083 24.546 129.455 24.546H130.918C132.483 24.546 133.795 25.7755 133.795 27.3493C133.795 28.8738 132.533 30.1525 130.918 30.1525H129.354V30.1034Z" fill="white"/>
<path d="M153.678 21.7414C153.678 17.1184 157.463 13.3807 162.207 13.3807H166.497C168.062 13.3807 169.374 14.6102 169.374 16.184C169.374 17.7086 168.112 18.9873 166.497 18.9873L162.207 18.9873C160.643 18.9873 159.331 20.2168 159.331 21.7906L159.381 27.3479C159.381 28.8725 158.12 30.1512 156.505 30.1512C154.94 30.1512 153.628 28.9217 153.628 27.3479V21.7414H153.678Z" fill="white"/>
<path d="M91.6041 13.381C90.0396 13.381 88.7274 14.6105 88.7274 16.1843V21.7416C88.7274 23.2662 87.4658 24.5449 85.8508 24.5449C84.2863 24.5449 82.9742 23.3154 82.9742 21.7416V16.1843C82.9742 14.6597 81.7125 13.381 80.0975 13.381C78.533 13.381 77.2209 14.6105 77.2209 16.1843V21.7416C77.2209 23.2662 75.9592 24.5449 74.3443 24.5449C72.7798 24.5449 71.4676 23.3154 71.4676 21.7416V16.1843C71.4676 14.6597 70.206 13.381 68.591 13.381C67.0265 13.381 65.7144 14.6105 65.7144 16.1843V21.7416C65.7144 26.3646 69.5499 30.1023 74.2938 30.1023C76.5144 30.1023 78.4826 29.2662 79.9966 27.9875C81.5106 29.3154 83.5293 30.1023 85.6994 30.1023C90.4433 30.1023 94.2788 26.3646 94.2788 21.7416V16.1843C94.4302 14.6597 93.1686 13.381 91.6041 13.381Z" fill="white"/>
<path d="M99.426 13.3833C97.8615 13.3833 96.5493 14.6128 96.5493 16.1866V27.3013C96.5493 28.8259 97.811 30.1046 99.426 30.1046C101.041 30.1046 102.303 28.8751 102.303 27.3013V16.1866C102.303 14.662 101.041 13.3833 99.426 13.3833Z" fill="white"/>
<path d="M99.4269 12.0061C100.991 12.0061 102.304 10.7766 102.304 9.20282C102.304 7.67823 101.042 6.39954 99.4269 6.39954C97.812 6.39954 96.5503 7.62905 96.5503 9.20282C96.6008 10.7766 97.8624 12.0061 99.4269 12.0061Z" fill="white"/>
<path d="M151.51 20.3656C151.51 21.3492 151.107 23.1197 149.593 23.1197C148.482 23.1197 140.155 23.1197 140.155 23.1197C140.458 24.3 141.568 25.2344 142.931 25.2344L148.987 25.2344C150.35 25.2344 151.46 26.3164 151.46 27.6443C151.46 28.9721 150.35 30.0541 148.987 30.0541L142.931 30.0541C138.187 30.0541 134.352 26.2672 134.352 21.0049C134.352 16.382 138.187 13.382 142.931 13.382C147.675 13.382 151.51 16.5295 151.51 20.3656ZM145.808 19.677C145.808 18.3983 144.546 17.3656 142.931 17.3656C141.367 17.3656 140.054 18.3983 140.054 19.677L145.808 19.677Z" fill="white"/>
<path fill-rule="evenodd" clip-rule="evenodd" d="M18.5 0.768433C8.83502 0.768433 1 8.60345 1 18.2684C1 27.9334 8.83502 35.7684 18.5 35.7684C28.165 35.7684 36 27.9334 36 18.2684C36 8.60345 28.165 0.768433 18.5 0.768433ZM25.1734 13.3465C25.939 13.2371 26.5952 13.1278 27.2515 12.7996C26.814 13.5653 26.1577 14.2215 25.3921 14.659C25.6109 19.7996 21.8921 25.3778 15.2202 25.3778C13.2515 25.3778 11.3921 24.7215 9.7515 23.7371C11.6109 23.9559 13.5796 23.409 14.8921 22.4246C13.2515 22.4246 11.939 21.3309 11.5015 19.909C12.0484 20.0184 12.5952 19.909 13.1421 19.7996L13.1421 19.7996C11.5015 19.3621 10.2984 17.8309 10.2984 16.1903C10.8452 16.409 11.3921 16.6278 11.939 16.6278C10.4077 15.534 9.86087 13.4559 10.8452 11.8153C12.7046 14.0028 15.3296 15.4246 18.2827 15.534C17.7359 13.3465 19.4859 11.159 21.7827 11.159C22.7671 11.159 23.7515 11.5965 24.4077 12.2528C25.2827 12.034 26.0484 11.8153 26.7046 11.3778C26.4859 12.2528 25.939 12.909 25.1734 13.3465Z" fill="white"/>
</g>
<defs>
<clipPath id="clip0_1138_10691">
<rect width="170" height="35" fill="white" transform="translate(0.271973 0.769409)"/>
</clipPath>
</defs>
</svg>
