<svg width="152" height="19" viewBox="0 0 152 19" fill="none" xmlns="http://www.w3.org/2000/svg">
<g clip-path="url(#clip0_1530_18181)">
<path d="M139.83 9.288C141.007 5.45281 143.542 3.27133 146.982 3.27133C150.211 3.27133 152.172 5.488 151.599 9.11207C151.509 9.60466 151.448 10.1676 151.267 10.7306L150.633 12.7713C149.457 16.5713 146.952 18.788 143.482 18.788C140.253 18.788 138.321 16.5713 138.864 12.9473C138.955 12.4547 139.046 11.8213 139.196 11.3287L139.83 9.288ZM143.21 11.3991C143.059 11.8565 142.969 12.3139 142.938 12.6306C142.727 13.9676 143.119 15.0232 144.296 15.0232C145.292 15.0232 146.258 14.0732 146.922 11.8565L147.344 10.4843C147.495 10.0269 147.586 9.56947 147.616 9.25281C147.827 7.91577 147.435 6.86022 146.258 6.86022C145.262 6.86022 144.296 7.81022 143.632 10.0269L143.21 11.3991Z" fill="#1B2BF3"/>
<path d="M7.01714 11.4344L6.92661 11.1529L5.05564 5.03066C4.78405 4.18622 3.99945 3.48251 3.24503 3.48251H0.46875L2.79237 11.1529L4.54264 16.9584C4.63317 17.2751 4.81423 17.5918 5.05564 17.8381C5.41777 18.2251 5.9006 18.5066 6.32307 18.5066H9.09935L7.01714 11.4344Z" fill="#1B2BF3"/>
<path d="M15.8854 11.4344L15.7949 11.1529L13.9239 5.03066C13.8334 4.714 13.6523 4.39733 13.4109 4.15104C13.0488 3.764 12.5659 3.48251 12.1435 3.48251H9.36719L11.5098 10.5899L11.6908 11.1881L13.4411 16.9936C13.5316 17.3103 13.7127 17.627 13.9541 17.8733C14.3162 18.2603 14.799 18.5418 15.2215 18.5418H17.9978L15.8854 11.4344Z" fill="#1B2BF3"/>
<path d="M7.01562 11.4349L9.15819 18.5423L11.512 10.5905L9.36942 3.51825L7.01562 11.4349Z" fill="#F85000"/>
<path d="M22.4315 3.764L22.3108 3.51771L20.7114 0.245483L15.6719 6.19178H17.4523L15.8831 11.4344L18.0257 18.5418L21.7073 6.19178H23.5782L22.4315 3.764Z" fill="#F85000"/>
<path d="M23.5822 11.4344L23.6727 11.1529L25.5437 5.03071C25.8153 4.18627 26.5999 3.48256 27.3543 3.48256H29.9797L27.6561 11.1529L25.9058 16.9585C25.8153 17.2752 25.6342 17.5918 25.3928 17.8381C25.0307 18.2252 24.5479 18.5066 24.1254 18.5066H21.5L23.5822 11.4344Z" fill="#1B2BF3"/>
<path d="M57.2853 11.4344L57.3759 11.153L59.2468 5.03073C59.5184 4.18628 60.303 3.48257 61.0574 3.48257H63.6828L61.3592 11.153L59.6089 16.9585C59.5184 17.2752 59.3374 17.5918 59.0959 17.8381C58.7338 18.2252 58.251 18.5067 57.8285 18.5067H55.2031L57.2853 11.4344Z" fill="#1B2BF3"/>
<path d="M108.598 11.4344L108.688 11.1529L110.559 5.03066C110.831 4.18622 111.616 3.48251 112.37 3.48251H114.995L112.672 11.1529L110.921 16.9584C110.831 17.2751 110.65 17.5918 110.408 17.8381C110.046 18.2251 109.563 18.5066 109.141 18.5066H106.516L108.598 11.4344Z" fill="#1B2BF3"/>
<path d="M139.188 5.94459C139.188 5.94459 139.188 5.90941 139.188 5.94459L139.912 3.51682L139.188 5.94459Z" fill="#1B2BF3"/>
<path d="M134.696 3.51682H132.071C131.347 3.51682 130.532 4.22052 130.26 5.06496L128.389 11.1872L128.299 11.4687L126.156 18.5761H128.782C128.812 18.5761 128.842 18.5761 128.842 18.5761H129.747H134.153C134.395 18.5761 134.666 18.5057 134.908 18.365C135.27 18.1539 135.571 17.7668 135.692 17.3798L136.416 14.9872H131.166L131.86 12.7353H135.722C135.934 12.7353 136.175 12.665 136.386 12.5242C136.718 12.3131 136.99 11.9964 137.08 11.6446L137.714 9.4983H132.946H132.825L133.519 7.21126H137.563C137.805 7.21126 138.076 7.14089 138.318 7.00015C138.68 6.78904 138.981 6.43719 139.102 6.01497L139.826 3.58718L134.696 3.51682Z" fill="#1B2BF3"/>
<path d="M122.893 3.51682H121.384H118.758C118.034 3.51682 117.219 4.22052 116.948 5.06496L115.077 11.1872L114.986 11.4687L113.387 16.7113L112.844 18.5409H118.306C121.927 18.5409 124.884 15.9724 126.182 12.2779C126.333 11.8557 126.484 11.3279 126.604 10.8705C126.695 10.4483 126.785 9.99088 126.846 9.60385C127.419 6.05014 126.001 3.51682 122.893 3.51682ZM122.772 9.77977C122.742 9.9557 122.681 10.3076 122.621 10.6242C122.531 11.0464 122.38 11.5039 122.229 11.8557C121.384 14.1076 119.875 14.9168 118.457 14.9168H117.913L120.267 7.14089H120.961C121.987 7.14089 123.074 7.70385 122.772 9.77977Z" fill="#1B2BF3"/>
<path d="M84.5467 3.27133C80.8349 3.27133 78.5113 5.87503 77.425 9.42873L76.9723 10.9417C76.7912 11.4695 76.6404 12.138 76.5498 12.701C75.9161 16.8176 78.0285 18.8232 81.2574 18.8232C84.8183 18.8232 87.0816 16.5361 88.0472 13.3343L88.3792 12.2435L88.9525 10.3436H86.2366H86.0857H84.426C84.2449 10.3436 84.0337 10.4139 83.8828 10.5195C83.6112 10.6954 83.3698 10.9417 83.2793 11.2584L82.7059 13.1584H84.4864L84.3355 13.6158C84.0941 14.3547 83.2793 15.1639 82.0119 15.1639C80.8953 15.1639 80.3219 14.1084 80.5634 12.6306C80.6237 12.3139 80.7142 11.9269 80.835 11.4695L81.2574 10.0973C81.8911 7.98615 82.8568 6.89541 84.0337 6.89541C85.3011 6.89541 85.5124 7.95096 85.452 8.51393C85.4218 8.61948 85.4218 8.76022 85.3917 8.83059H89.194C89.2241 8.72504 89.2845 8.40837 89.2845 8.338C89.6466 5.98059 88.5602 3.27133 84.5467 3.27133Z" fill="#1B2BF3"/>
<path d="M41.2402 3.51682C40.5159 3.51682 39.7011 4.22052 39.4296 5.06496L37.5586 11.1872L37.468 11.4687L37.2568 12.1372L36.0497 3.51682H33.6959C32.9717 3.51682 32.1569 4.22052 31.8853 5.06496L30.0144 11.1872L29.9238 11.4687L27.7812 18.5761H30.1351C30.5877 18.5761 31.0705 18.3298 31.4025 17.9076C31.6439 17.6613 31.825 17.3446 31.9155 17.0279L33.6658 11.2224L33.9374 10.3427L35.2651 18.5761H36.4722H37.5888C38.0414 18.5761 38.5242 18.3298 38.8562 17.9076C39.0976 17.6613 39.2787 17.3446 39.3692 17.0279L41.1195 11.2224L43.4431 3.552H41.2402V3.51682Z" fill="#1B2BF3"/>
<path d="M54.8808 3.51682C54.1565 3.51682 53.3418 4.22052 53.0702 5.06496L51.1992 11.1872L51.1087 11.4687L50.8974 12.1372L49.6904 3.51682H47.3366C46.6123 3.51682 45.7975 4.22052 45.5259 5.06496L43.655 11.1872L43.5644 11.4687L41.4219 18.5761H43.7757C44.2283 18.5761 44.7112 18.3298 45.0431 17.9076C45.2845 17.6613 45.4656 17.3446 45.5561 17.0279L47.3064 11.2224L47.578 10.3427L48.9058 18.5761H50.1128H51.2294C51.682 18.5761 52.1649 18.3298 52.4968 17.9076C52.7382 17.6613 52.9193 17.3446 53.0098 17.0279L54.7601 11.2224L57.0837 3.552H54.8808V3.51682Z" fill="#1B2BF3"/>
<path d="M74.9433 3.51682C74.219 3.51682 73.4043 4.22052 73.1327 5.06496L71.2617 11.1872L71.1712 11.4687L70.9599 12.1372L69.7529 3.51682H67.3991C66.6748 3.51682 65.86 4.22052 65.5884 5.06496L63.7175 11.1872L63.6269 11.4687L61.4844 18.5761H63.8382C64.2908 18.5761 64.7737 18.3298 65.1056 17.9076C65.347 17.6613 65.5281 17.3446 65.6186 17.0279L67.3689 11.2224L67.6405 10.3427L68.9683 18.5761H70.1753H71.2919C71.7445 18.5761 72.2274 18.3298 72.5593 17.9076C72.8007 17.6613 72.9818 17.3446 73.0723 17.0279L74.8226 11.2224L77.1462 3.552H74.9433V3.51682Z" fill="#1B2BF3"/>
<path d="M105.125 3.51776C104.673 3.51776 104.19 3.76406 103.858 4.18628C103.617 4.43257 103.436 4.74924 103.345 5.06591L101.474 11.1881L101.384 11.4696L101.263 11.8215L101.142 11.4696L101.052 11.1881L99.1806 5.06591C98.9091 4.22146 98.1245 3.51776 97.37 3.51776H94.5938L96.9174 11.1881L98.6676 16.9937C98.7582 17.3104 98.9392 17.627 99.1806 17.8733C99.2108 17.9085 99.2712 17.9789 99.3013 18.0141C99.6333 18.3307 100.056 18.5418 100.448 18.5418H101.927H103.224L105.488 11.1881L105.669 10.59L107.811 3.48257H105.125V3.51776Z" fill="#1B2BF3"/>
<path d="M93.1723 15.1649C94.1078 15.1649 94.7113 15.8686 94.5605 16.9945C94.3794 18.1556 93.5646 18.789 92.6291 18.789C91.7238 18.789 91.0901 18.1556 91.241 16.9945C91.4221 15.8334 92.267 15.1649 93.1723 15.1649Z" fill="#1B2BF3"/>
</g>
<defs>
<clipPath id="clip0_1530_18181">
<rect width="152" height="19" fill="white"/>
</clipPath>
</defs>
</svg>
