<svg width="171" height="41" viewBox="0 0 171 41" fill="none" xmlns="http://www.w3.org/2000/svg">
<g clip-path="url(#clip0_296_10560)">
<path fill-rule="evenodd" clip-rule="evenodd" d="M20.5357 37.6324C30.1201 37.6468 37.9016 29.8234 37.9161 20.1585C37.9307 10.4935 30.1727 2.64681 20.5883 2.6324C11.0038 2.618 3.22236 10.4413 3.20783 20.1063C3.19487 28.7313 9.37167 35.9082 17.5126 37.3631L17.5304 25.4795L13.1154 25.4729L13.1229 20.5336L17.5378 20.5402L17.5435 16.7756C17.5499 12.4938 20.1481 10.1315 24.1215 10.1375C26.0234 10.1403 28.013 10.477 28.013 10.477L28.0067 14.6821L25.8128 14.6788C23.6528 14.6756 22.9785 15.9929 22.9764 17.3445L22.9716 20.5484L27.794 20.5556L27.0157 25.4938L22.9642 25.4877L22.9462 37.4288C22.1042 37.5575 21.2439 37.626 20.3682 37.6313C20.424 37.6319 20.4798 37.6323 20.5357 37.6324Z" fill="white"/>
<g clip-path="url(#clip1_296_10560)">
<path d="M57.5474 31.5652L53.0141 31.5584L53.0312 20.1625L49.9431 20.1578L49.9487 16.4475L53.0367 16.4522L53.0407 13.812C53.0454 10.6835 54.4146 8.44175 58.9356 8.44855C59.8918 8.44998 61.3927 8.64659 61.3927 8.64659L61.3876 12.0918L59.8108 12.0894C58.2042 12.087 57.5762 12.5789 57.5742 13.9413L57.5704 16.459L61.3208 16.4646L60.9813 20.1744L57.5647 20.1693L57.5474 31.5652ZM67.9724 16.1781C67.9063 16.178 67.8383 16.1804 67.7711 16.1819C63.5675 16.1756 61.6395 19.3612 61.6327 23.8874C61.6241 29.5891 64.1154 31.8749 67.7803 31.8804C69.8772 31.8835 71.2562 30.9956 72.096 29.336L72.0926 31.5887L76.4044 31.5951L76.4271 16.4889L72.1153 16.4824L72.1118 18.8056C71.4304 17.3099 70.0159 16.1989 67.9724 16.1781ZM69.0634 19.7493C70.8289 19.752 71.8867 20.9954 71.8835 23.1077L71.8844 25.2651C71.8822 26.6888 71.0045 28.353 69.0504 28.3501C66.0464 28.3456 66.1315 25.0747 66.1332 23.9853C66.1387 20.3206 67.7401 19.7473 69.0634 19.7493ZM78.1571 24.0454C78.1599 22.2098 78.0818 16.2031 85.8421 16.2148C88.9572 16.2195 90.2565 17.2203 90.2565 17.2203L89.2061 20.4886C89.2061 20.4886 87.9081 19.7653 86.2154 19.7627C84.0473 19.7595 82.662 21.0248 82.6587 23.2548L82.6587 24.8537C82.6554 26.9965 83.9881 28.4288 86.2068 28.4322C87.7489 28.4345 89.1713 27.7085 89.1713 27.7085L90.2093 30.9116C90.2093 30.9116 89.0185 31.915 85.8403 31.9102C78.4513 31.8991 78.1535 26.5097 78.1572 24.0454L78.1571 24.0454ZM115.54 16.2537C119.743 16.2601 121.692 19.4515 121.685 23.9776C121.677 29.6794 119.179 31.9576 115.514 31.9521C113.417 31.949 111.868 31.0568 111.033 29.3945L111.03 31.6472L106.772 31.6391L106.806 8.97981L111.327 8.58904L111.312 18.6598C111.967 16.8989 114.112 16.2516 115.54 16.2537L115.54 16.2537ZM114.267 19.8173C112.502 19.8146 111.309 21.0546 111.306 23.1669L111.298 25.3243C111.293 26.748 112.118 28.4148 114.254 28.418C117.258 28.4225 117.183 25.1514 117.185 24.062C117.19 20.3973 115.591 19.8193 114.267 19.8173ZM98.1013 16.24C93.3335 16.2329 90.8125 18.8504 90.8055 23.5088L90.8042 24.3743C90.7951 30.4204 94.3276 31.9824 98.5417 31.9887C102.638 31.9949 104.494 30.8423 104.494 30.8423L103.652 27.7644C103.652 27.7644 101.47 28.6969 99.0886 28.6933C96.6199 28.6896 95.5592 28.0535 95.2906 25.6607L104.863 25.6751L104.866 23.2069C104.874 18.1537 102.052 16.2458 98.1012 16.2399L98.1013 16.24ZM98.2116 19.321C99.862 19.3234 100.93 20.3456 100.868 22.7123L95.3034 22.7039C95.4036 20.213 96.5582 19.3186 98.2116 19.3211L98.2116 19.321ZM130.711 16.2683C125.814 16.2609 123.233 19.0394 123.225 24.0254C123.215 30.8666 127.656 31.9745 130.695 31.9791C135.144 31.9857 138.107 29.5751 138.115 24.1099C138.124 18.4217 134.799 16.2744 130.711 16.2683ZM130.644 19.8543C132.797 19.8575 133.647 21.4836 133.644 23.3331L133.642 24.9232C133.639 27.1637 132.443 28.4579 130.623 28.4551C128.92 28.4526 127.725 27.2385 127.729 24.9143L127.731 23.3242C127.735 20.8454 129.16 19.852 130.644 19.8543ZM147.132 16.293C142.236 16.2856 139.654 19.0641 139.647 24.0501C139.637 30.8913 144.078 31.9992 147.117 32.0037C151.565 32.0104 154.529 29.5998 154.537 24.1346C154.545 18.4464 151.221 16.2991 147.132 16.293ZM147.065 19.8789C149.218 19.8822 150.069 21.5083 150.066 23.3578L150.064 24.9479C150.06 27.1884 148.865 28.4825 147.044 28.4798C145.342 28.4772 144.147 27.2632 144.15 24.939L144.153 23.3489C144.157 20.8701 145.582 19.8767 147.065 19.8789ZM156.234 31.7135L156.268 9.05414L160.802 8.66352L160.779 23.8513L165.288 16.621L170.076 16.6282L165.372 24.1166L170.234 31.7346L165.432 31.7274L160.778 24.3303L160.767 31.7203L156.234 31.7135Z" fill="white"/>
</g>
</g>
<defs>
<clipPath id="clip0_296_10560">
<rect width="170" height="40" fill="white" transform="translate(0.758301 0.102539) rotate(0.0861103)"/>
</clipPath>
<clipPath id="clip1_296_10560">
<rect width="121.267" height="24" fill="white" transform="translate(49.481 8.17468) rotate(0.0861103)"/>
</clipPath>
</defs>
</svg>
