<svg width="16" height="16" viewBox="0 0 16 16" fill="none" xmlns="http://www.w3.org/2000/svg">
<path d="M7.9987 1.33333C6.25203 1.33333 4.83203 2.75333 4.83203 4.5C4.83203 6.21333 6.17203 7.6 7.9187 7.66C7.97203 7.65333 8.02536 7.65333 8.06536 7.66C8.0787 7.66 8.08536 7.66 8.0987 7.66C8.10536 7.66 8.10536 7.66 8.11203 7.66C9.8187 7.6 11.1587 6.21333 11.1654 4.5C11.1654 2.75333 9.74536 1.33333 7.9987 1.33333Z" fill="#B7B7C2"/>
<path d="M11.3886 9.43333C9.52859 8.19333 6.49526 8.19333 4.62193 9.43333C3.77526 10 3.30859 10.7667 3.30859 11.5867C3.30859 12.4067 3.77526 13.1667 4.61526 13.7267C5.54859 14.3533 6.77526 14.6667 8.00193 14.6667C9.22859 14.6667 10.4553 14.3533 11.3886 13.7267C12.2286 13.16 12.6953 12.4 12.6953 11.5733C12.6886 10.7533 12.2286 9.99333 11.3886 9.43333Z" fill="#B7B7C2"/>
</svg>
