<svg width="65" height="16" viewBox="0 0 65 16" fill="none" xmlns="http://www.w3.org/2000/svg">
<path fill-rule="evenodd" clip-rule="evenodd" d="M0.5 8C0.5 3.58172 4.08173 0 8.5 0C12.9183 0 16.5 3.58172 16.5 8C16.5 12.4183 12.9183 16 8.5 16C4.08173 16 0.5 12.4183 0.5 8ZM10.0907 4.34925C10.0702 4.23595 10.0591 4.11888 10.0591 4H8.68576L8.6839 9.51103C8.66165 10.1277 8.15311 10.6236 7.53142 10.6236C7.33839 10.6236 7.15652 10.5753 6.99507 10.4899C7.00066 10.4977 7.00554 10.5057 7.00977 10.5139L7.0036 10.5058L6.99319 10.4918C6.62573 10.2967 6.37334 9.91224 6.37334 9.4683C6.37334 8.8312 6.89113 8.31297 7.52769 8.31297C7.64647 8.31297 7.76154 8.33339 7.86917 8.36683V7.28951L7.86511 7.2896L7.86919 7.28765V6.96262C7.75783 6.94775 7.64462 6.93845 7.52769 6.93845C6.13394 6.93662 5 8.0715 5 9.4683C5 10.3246 5.42683 11.0824 6.08008 11.5412C6.49023 11.8291 6.99135 12 7.52956 12C8.92331 12 10.0591 10.8632 10.0591 9.4683V6.67284C10.5973 7.0592 11.258 7.28765 11.9707 7.28765V6.21963L11.9707 5.91317C11.5866 5.91317 11.2303 5.79986 10.9296 5.60296C10.499 5.32251 10.1891 4.87303 10.0907 4.34925Z" fill="white"/>
<path d="M27.9043 12H26.7563V2.62H27.9043V12ZM31.6983 3.656H22.9483V2.62H31.6983V3.656ZM33.8181 12H32.6701V5.07H33.8181V12ZM33.8181 4.202H32.6701V2.62H33.8181V4.202ZM42.3761 12H41.0181L38.7921 8.962H36.0621V7.926H38.7921L41.0321 5.07H42.3901L39.7301 8.388L42.3761 12ZM36.5661 12H35.4181V2.62H36.5661V12ZM47.6194 12H46.0934C45.3841 12 44.8194 11.832 44.3994 11.496C43.9888 11.1507 43.7834 10.572 43.7834 9.76V3.46H44.9314V9.774C44.9314 10.2407 45.0481 10.558 45.2814 10.726C45.5148 10.8847 45.8741 10.964 46.3594 10.964H47.6194V12ZM47.6194 6.05H42.5794V5.07H47.6194V6.05ZM52.1102 12.14C51.3542 12.14 50.6915 11.986 50.1222 11.678C49.5528 11.37 49.1095 10.9453 48.7922 10.404C48.4748 9.86267 48.3162 9.242 48.3162 8.542C48.3162 7.83267 48.4748 7.20733 48.7922 6.666C49.1095 6.12467 49.5528 5.7 50.1222 5.392C50.6915 5.084 51.3542 4.93 52.1102 4.93C52.8755 4.93 53.5382 5.084 54.0982 5.392C54.6675 5.7 55.1108 6.12467 55.4282 6.666C55.7455 7.20733 55.9042 7.83267 55.9042 8.542C55.9042 9.242 55.7455 9.86267 55.4282 10.404C55.1108 10.9453 54.6675 11.37 54.0982 11.678C53.5382 11.986 52.8755 12.14 52.1102 12.14ZM52.1102 11.118C53.0342 11.118 53.7062 10.8893 54.1262 10.432C54.5555 9.97467 54.7702 9.34467 54.7702 8.542C54.7702 7.73 54.5555 7.09533 54.1262 6.638C53.7062 6.18067 53.0342 5.952 52.1102 5.952C51.1955 5.952 50.5235 6.18067 50.0942 6.638C49.6648 7.09533 49.4502 7.73 49.4502 8.542C49.4502 9.34467 49.6648 9.97467 50.0942 10.432C50.5235 10.8893 51.1955 11.118 52.1102 11.118ZM64.1144 12H62.7564L60.5304 8.962H57.8004V7.926H60.5304L62.7704 5.07H64.1284L61.4684 8.388L64.1144 12ZM58.3044 12H57.1564V2.62H58.3044V12Z" fill="white"/>
</svg>
