<svg width="85" height="16" viewBox="0 0 85 16" fill="none" xmlns="http://www.w3.org/2000/svg">
<circle cx="8.5" cy="8" r="8" fill="#1B2BF3"/>
<path d="M8.5 16C12.9183 16 16.5 12.4183 16.5 8C16.5 3.58172 12.9183 0 8.5 0C4.08172 0 0.5 3.58172 0.5 8C0.5 11.2458 2.43297 14.0401 5.21056 15.2946C5.21429 15.208 5.21848 15.1287 5.22208 15.0606C5.22698 14.9679 5.23077 14.8961 5.23077 14.8558C5.23077 14.6154 5.39423 13.4231 5.39423 13.4231L6.39423 9.3173C6.24039 9.0673 6.125 8.53846 6.125 8.13461C6.125 6.26922 7.16346 5.86538 7.79808 5.86538C8.60577 5.86538 8.78846 6.74038 8.78846 7.38461C8.78846 7.72537 8.6117 8.25876 8.4298 8.80765C8.23702 9.38939 8.03846 9.98854 8.03846 10.3942C8.03846 11.1827 8.81731 11.5769 9.35577 11.5769C10.7788 11.5769 12.0865 9.78845 12.0865 7.99999C12.0865 6.21153 11.25 4.04807 8.50962 4.04807C5.76923 4.04807 4.53846 6.13461 4.53846 7.73076C4.53846 8.80769 4.94231 9.59615 5.14423 9.73076C5.20192 9.78205 5.3 9.94038 5.23077 10.1635C5.16154 10.3865 5.03526 10.8846 4.98077 11.1058C4.97436 11.157 4.91346 11.2442 4.72116 11.1827C4.48077 11.1058 2.95192 10.1442 2.95192 7.73076C2.95192 5.3173 4.84616 2.50961 8.50962 2.50961C12.1731 2.50961 14.0481 4.97115 14.0481 7.99999C14.0481 11.0288 11.5962 12.9615 9.73077 12.9615C8.23846 12.9615 7.65385 12.2949 7.54808 11.9615L6.98077 14.125C6.84682 14.4839 6.59693 15.129 6.28878 15.6905C6.99106 15.892 7.73292 16 8.5 16Z" fill="white"/>
<path d="M27.9049 9.018H23.9849V7.982H27.8069C28.6003 7.982 29.2023 7.814 29.6129 7.478C30.0236 7.142 30.2289 6.59133 30.2289 5.826C30.2289 5.06067 30.0236 4.51 29.6129 4.174C29.2023 3.82867 28.6003 3.656 27.8069 3.656H23.9849V2.62H27.9049C28.5863 2.62 29.1883 2.746 29.7109 2.998C30.2336 3.25 30.6396 3.614 30.9289 4.09C31.2276 4.566 31.3769 5.14467 31.3769 5.826C31.3769 6.498 31.2276 7.072 30.9289 7.548C30.6396 8.024 30.2336 8.388 29.7109 8.64C29.1883 8.892 28.5863 9.018 27.9049 9.018ZM24.6569 12H23.5089V2.62H24.6569V12ZM33.5573 12H32.4093V5.07H33.5573V12ZM33.5573 4.202H32.4093V2.62H33.5573V4.202ZM42.1014 12H40.9534V8.15C40.9534 7.44067 40.7807 6.89933 40.4354 6.526C40.09 6.15267 39.53 5.966 38.7554 5.966C37.9434 5.966 37.332 6.19933 36.9214 6.666C36.5107 7.12333 36.3054 7.77667 36.3054 8.626H36.0394L36.0114 7.24H36.2774C36.3614 6.848 36.52 6.47467 36.7534 6.12C36.996 5.76533 37.318 5.48067 37.7194 5.266C38.13 5.042 38.6294 4.93 39.2174 4.93C39.8614 4.93 40.398 5.06533 40.8274 5.336C41.2567 5.60667 41.574 5.97067 41.7794 6.428C41.994 6.876 42.1014 7.37533 42.1014 7.926V12ZM36.3054 12H35.1574V5.07H36.2074V7.268L36.3054 7.338V12ZM48.0013 12H46.4753C45.7659 12 45.2013 11.832 44.7813 11.496C44.3706 11.1507 44.1653 10.572 44.1653 9.76V3.46H45.3133V9.774C45.3133 10.2407 45.4299 10.558 45.6633 10.726C45.8966 10.8847 46.2559 10.964 46.7413 10.964H48.0013V12ZM48.0013 6.05H42.9613V5.07H48.0013V6.05ZM52.408 12.14C51.6613 12.14 51.008 11.9953 50.448 11.706C49.8973 11.4167 49.468 11.0013 49.16 10.46C48.8613 9.91867 48.712 9.27933 48.712 8.542C48.712 7.83267 48.8613 7.20733 49.16 6.666C49.468 6.12467 49.8973 5.7 50.448 5.392C50.9987 5.084 51.6473 4.93 52.394 4.93C53.0753 4.93 53.6773 5.06067 54.2 5.322C54.732 5.574 55.1473 5.94267 55.446 6.428C55.7447 6.904 55.894 7.492 55.894 8.192C55.894 8.31333 55.8893 8.43 55.88 8.542C55.8707 8.64467 55.8567 8.74267 55.838 8.836H49.44V8.15H55.124L54.788 8.556C54.7973 8.472 54.802 8.38333 54.802 8.29C54.8113 8.18733 54.816 8.08933 54.816 7.996C54.816 7.28667 54.606 6.75467 54.186 6.4C53.766 6.04533 53.1593 5.868 52.366 5.868C51.4607 5.868 50.8073 6.092 50.406 6.54C50.0047 6.97867 49.804 7.59467 49.804 8.388V8.654C49.804 9.44733 50 10.068 50.392 10.516C50.7933 10.964 51.456 11.188 52.38 11.188C53.164 11.188 53.738 11.0573 54.102 10.796C54.4753 10.5253 54.662 10.152 54.662 9.676V9.578H55.81V9.676C55.81 10.1613 55.6607 10.5907 55.362 10.964C55.0727 11.3373 54.6713 11.6267 54.158 11.832C53.6447 12.0373 53.0613 12.14 52.408 12.14ZM58.3171 12H57.1691V5.07H58.2191V7.03L58.3171 7.1V12ZM58.3171 8.206H58.0231V6.946H58.2891C58.3544 6.57267 58.4851 6.23667 58.6811 5.938C58.8864 5.63 59.1571 5.38733 59.4931 5.21C59.8291 5.02333 60.2351 4.93 60.7111 4.93C61.2524 4.93 61.6911 5.04667 62.0271 5.28C62.3631 5.504 62.6104 5.80267 62.7691 6.176C62.9278 6.54933 63.0071 6.95533 63.0071 7.394V8.136H61.8591V7.59C61.8591 7.03 61.7331 6.61467 61.4811 6.344C61.2291 6.064 60.8138 5.924 60.2351 5.924C59.5631 5.924 59.0731 6.12 58.7651 6.512C58.4664 6.904 58.3171 7.46867 58.3171 8.206ZM67.4471 12.14C66.7004 12.14 66.0471 11.9953 65.4871 11.706C64.9364 11.4167 64.5071 11.0013 64.1991 10.46C63.9004 9.91867 63.7511 9.27933 63.7511 8.542C63.7511 7.83267 63.9004 7.20733 64.1991 6.666C64.5071 6.12467 64.9364 5.7 65.4871 5.392C66.0377 5.084 66.6864 4.93 67.4331 4.93C68.1144 4.93 68.7164 5.06067 69.2391 5.322C69.7711 5.574 70.1864 5.94267 70.4851 6.428C70.7837 6.904 70.9331 7.492 70.9331 8.192C70.9331 8.31333 70.9284 8.43 70.9191 8.542C70.9097 8.64467 70.8957 8.74267 70.8771 8.836H64.4791V8.15H70.1631L69.8271 8.556C69.8364 8.472 69.8411 8.38333 69.8411 8.29C69.8504 8.18733 69.8551 8.08933 69.8551 7.996C69.8551 7.28667 69.6451 6.75467 69.2251 6.4C68.8051 6.04533 68.1984 5.868 67.4051 5.868C66.4997 5.868 65.8464 6.092 65.4451 6.54C65.0437 6.97867 64.8431 7.59467 64.8431 8.388V8.654C64.8431 9.44733 65.0391 10.068 65.4311 10.516C65.8324 10.964 66.4951 11.188 67.4191 11.188C68.2031 11.188 68.7771 11.0573 69.1411 10.796C69.5144 10.5253 69.7011 10.152 69.7011 9.676V9.578H70.8491V9.676C70.8491 10.1613 70.6997 10.5907 70.4011 10.964C70.1117 11.3373 69.7104 11.6267 69.1971 11.832C68.6837 12.0373 68.1004 12.14 67.4471 12.14ZM75.3302 12.14C74.2475 12.14 73.4075 11.93 72.8102 11.51C72.2128 11.09 71.9142 10.4787 71.9142 9.676V9.648H73.0622V9.732C73.0622 10.2733 73.2348 10.656 73.5802 10.88C73.9348 11.0947 74.5182 11.202 75.3302 11.202C76.0768 11.202 76.5948 11.1133 76.8842 10.936C77.1735 10.7587 77.3182 10.488 77.3182 10.124C77.3182 9.77867 77.2062 9.536 76.9822 9.396C76.7582 9.24667 76.3708 9.13 75.8202 9.046L73.9442 8.78C73.3095 8.696 72.8055 8.514 72.4322 8.234C72.0588 7.954 71.8722 7.52467 71.8722 6.946C71.8722 6.54467 71.9935 6.19467 72.2362 5.896C72.4882 5.588 72.8475 5.35 73.3142 5.182C73.7808 5.014 74.3408 4.93 74.9942 4.93C75.6662 4.93 76.2495 5.02333 76.7442 5.21C77.2482 5.39667 77.6355 5.672 77.9062 6.036C78.1768 6.4 78.3122 6.85733 78.3122 7.408V7.436H77.1642V7.366C77.1642 7.03933 77.0988 6.76867 76.9682 6.554C76.8375 6.33 76.6135 6.162 76.2962 6.05C75.9788 5.938 75.5355 5.882 74.9662 5.882C74.2568 5.882 73.7528 5.97067 73.4542 6.148C73.1555 6.316 73.0062 6.59133 73.0062 6.974C73.0062 7.30067 73.1088 7.53867 73.3142 7.688C73.5288 7.828 73.9115 7.94467 74.4622 8.038L76.1282 8.276C76.8935 8.36933 77.4722 8.56067 77.8642 8.85C78.2562 9.13 78.4522 9.55467 78.4522 10.124C78.4522 10.5533 78.3168 10.922 78.0462 11.23C77.7848 11.5287 77.4162 11.7573 76.9402 11.916C76.4735 12.0653 75.9368 12.14 75.3302 12.14ZM84.0403 12H82.5143C81.805 12 81.2403 11.832 80.8203 11.496C80.4097 11.1507 80.2043 10.572 80.2043 9.76V3.46H81.3523V9.774C81.3523 10.2407 81.469 10.558 81.7023 10.726C81.9357 10.8847 82.295 10.964 82.7803 10.964H84.0403V12ZM84.0403 6.05H79.0003V5.07H84.0403V6.05Z" fill="white"/>
</svg>
