<svg width="148" height="36" viewBox="0 0 148 36" fill="none" xmlns="http://www.w3.org/2000/svg">
<g clip-path="url(#clip0_296_10550)">
<path d="M43.9738 8.98139L61.2275 8.98618L59.6778 13.8705L55.2538 13.8692L55.2488 31.7793L49.7187 31.7778L49.7237 13.759L44.0831 13.7574L43.9738 8.98139ZM89.5414 8.99406L107.237 8.99897L105.688 13.8832L100.821 13.8819L100.816 31.792L95.1757 31.7904L95.1807 13.7716L89.5401 13.77L89.5414 8.99406ZM62.3316 16.2591L67.8616 16.2606L67.8573 31.6742L62.3273 31.6727L62.3316 16.2591ZM70.0756 8.88L75.6057 8.88153L75.6027 19.5191L81.1342 14.2019L87.7702 14.2037L80.8006 20.8231L88.5396 31.68L82.4565 31.6783L77.2605 24.0785L75.601 25.5977L75.5994 31.5678L70.0693 31.5663L70.0756 8.88ZM128.583 8.89626L134.113 8.8978L134.11 19.5354L139.642 14.2181L146.278 14.22L139.308 20.8393L147.047 31.6962L140.964 31.6945L135.768 24.0948L134.109 25.6139L134.107 31.5841L128.577 31.5825L128.583 8.89626ZM65.0971 14.4146C66.6241 14.4151 67.8624 13.2004 67.8628 11.7017C67.8633 10.2031 66.6257 8.98769 65.0987 8.98726C63.5716 8.98684 62.3333 10.2015 62.3329 11.7002C62.3325 13.1989 63.5701 14.4142 65.0971 14.4146Z" fill="white"/>
<path d="M115.861 13.1267C110.663 13.1253 106.349 17.2489 106.347 22.4591C106.346 27.5608 110.547 31.7953 115.856 31.7967C121.165 31.7982 125.369 27.6747 125.371 22.4644C125.372 17.3628 121.06 13.1282 115.861 13.1267V13.1267ZM115.858 27.0207C113.314 27.02 111.213 24.957 111.214 22.4605C111.214 19.9639 113.316 17.9021 115.86 17.9028C118.404 17.9035 120.505 19.9665 120.504 22.4631C120.503 24.9596 118.401 27.0214 115.858 27.0207Z" fill="white"/>
</g>
<path fill-rule="evenodd" clip-rule="evenodd" d="M0.349139 18.2975C0.351826 8.63256 8.18903 0.799724 17.854 0.802411C27.519 0.805098 35.3518 8.64229 35.3491 18.3073C35.3465 27.9723 27.5092 35.8051 17.8443 35.8024C8.1793 35.7997 0.346453 27.9625 0.349139 18.2975ZM21.3313 10.3177C21.2867 10.0698 21.2624 9.81371 21.2625 9.55366L18.2583 9.55283L18.2509 21.6082C18.2018 22.9572 17.0891 24.0417 15.7291 24.0413C15.3069 24.0412 14.9091 23.9354 14.556 23.7484C14.5682 23.7656 14.5789 23.7831 14.5881 23.8009L14.5746 23.7832L14.5519 23.7525C13.7482 23.3256 13.1963 22.4845 13.1965 21.5133C13.1969 20.1197 14.3299 18.9864 15.7224 18.9867C15.9822 18.9868 16.2339 19.0316 16.4693 19.1048L16.47 16.7481L16.4611 16.7483L16.47 16.7441L16.4702 16.0331C16.2266 16.0005 15.979 15.9801 15.7232 15.98C12.6744 15.9751 10.1932 18.457 10.1924 21.5125C10.1918 23.3855 11.1251 25.0436 12.5538 26.0476C13.4508 26.6776 14.5469 27.0518 15.7242 27.0521C18.7731 27.053 21.2583 24.567 21.2591 21.5156L21.2608 15.4005C22.438 16.246 23.8831 16.7461 25.442 16.7466L25.4427 14.4103L25.443 13.7399C24.6027 13.7396 23.8233 13.4916 23.1657 13.0607C22.224 12.4469 21.5462 11.4635 21.3313 10.3177Z" fill="white"/>
<defs>
<clipPath id="clip0_296_10550">
<rect width="104" height="23" fill="white" transform="translate(43.3521 8.80902) rotate(0.0159269)"/>
</clipPath>
</defs>
</svg>
