<svg width="79" height="16" viewBox="0 0 79 16" fill="none" xmlns="http://www.w3.org/2000/svg">
<path d="M0.5 8C0.5 12.4183 4.08172 16 8.5 16C12.9183 16 16.5 12.4183 16.5 8C16.5 3.58172 12.9183 0 8.5 0C4.08172 0 0.5 3.58172 0.5 8Z" fill="white"/>
<path d="M6.3 12H4.6V6.65H6.3V12ZM5.45 5.9C4.9 5.9 4.5 5.5 4.5 4.95C4.5 4.4 4.95 4 5.45 4C6 4 6.4 4.4 6.4 4.95C6.4 5.5 6 5.9 5.45 5.9ZM12.5 12H10.8V9.1C10.8 8.25 10.45 8 9.95 8C9.45 8 8.95 8.4 8.95 9.15V12H7.25V6.65H8.85V7.4C9 7.05 9.6 6.5 10.45 6.5C11.4 6.5 12.4 7.05 12.4 8.7V12H12.5Z" fill="#1B2BF3"/>
<path d="M24.8015 12H23.6535V2.62H24.8015V12ZM30.7095 12H24.0035V10.964H30.7095V12ZM32.9362 12H31.7882V5.07H32.9362V12ZM32.9362 4.202H31.7882V2.62H32.9362V4.202ZM41.4803 12H40.3323V8.15C40.3323 7.44067 40.1596 6.89933 39.8143 6.526C39.4689 6.15267 38.9089 5.966 38.1343 5.966C37.3223 5.966 36.7109 6.19933 36.3003 6.666C35.8896 7.12333 35.6843 7.77667 35.6843 8.626H35.4183L35.3903 7.24H35.6563C35.7403 6.848 35.8989 6.47467 36.1323 6.12C36.3749 5.76533 36.6969 5.48067 37.0983 5.266C37.5089 5.042 38.0083 4.93 38.5963 4.93C39.2403 4.93 39.7769 5.06533 40.2063 5.336C40.6356 5.60667 40.9529 5.97067 41.1583 6.428C41.3729 6.876 41.4803 7.37533 41.4803 7.926V12ZM35.6843 12H34.5363V5.07H35.5863V7.268L35.6843 7.338V12ZM49.9982 12H48.6402L46.4142 8.962H43.6842V7.926H46.4142L48.6542 5.07H50.0122L47.3522 8.388L49.9982 12ZM44.1882 12H43.0402V2.62H44.1882V12ZM54.2615 12.14C53.5148 12.14 52.8615 11.9953 52.3015 11.706C51.7508 11.4167 51.3215 11.0013 51.0135 10.46C50.7148 9.91867 50.5655 9.27933 50.5655 8.542C50.5655 7.83267 50.7148 7.20733 51.0135 6.666C51.3215 6.12467 51.7508 5.7 52.3015 5.392C52.8522 5.084 53.5008 4.93 54.2475 4.93C54.9288 4.93 55.5308 5.06067 56.0535 5.322C56.5855 5.574 57.0008 5.94267 57.2995 6.428C57.5982 6.904 57.7475 7.492 57.7475 8.192C57.7475 8.31333 57.7428 8.43 57.7335 8.542C57.7242 8.64467 57.7102 8.74267 57.6915 8.836H51.2935V8.15H56.9775L56.6415 8.556C56.6508 8.472 56.6555 8.38333 56.6555 8.29C56.6648 8.18733 56.6695 8.08933 56.6695 7.996C56.6695 7.28667 56.4595 6.75467 56.0395 6.4C55.6195 6.04533 55.0128 5.868 54.2195 5.868C53.3142 5.868 52.6608 6.092 52.2595 6.54C51.8582 6.97867 51.6575 7.59467 51.6575 8.388V8.654C51.6575 9.44733 51.8535 10.068 52.2455 10.516C52.6468 10.964 53.3095 11.188 54.2335 11.188C55.0175 11.188 55.5915 11.0573 55.9555 10.796C56.3288 10.5253 56.5155 10.152 56.5155 9.676V9.578H57.6635V9.676C57.6635 10.1613 57.5142 10.5907 57.2155 10.964C56.9262 11.3373 56.5248 11.6267 56.0115 11.832C55.4982 12.0373 54.9148 12.14 54.2615 12.14ZM62.0326 12.14C61.2953 12.14 60.6699 11.986 60.1566 11.678C59.6433 11.37 59.2559 10.9453 58.9946 10.404C58.7333 9.86267 58.6026 9.242 58.6026 8.542C58.6026 7.83267 58.7333 7.20733 58.9946 6.666C59.2559 6.12467 59.6339 5.7 60.1286 5.392C60.6326 5.084 61.2393 4.93 61.9486 4.93C62.7606 4.93 63.4139 5.126 63.9086 5.518C64.4126 5.90067 64.7346 6.39067 64.8746 6.988H65.2246V8.514H64.9586C64.9586 7.702 64.7253 7.07667 64.2586 6.638C63.7919 6.19933 63.1433 5.98 62.3126 5.98C61.8086 5.98 61.3606 6.064 60.9686 6.232C60.5859 6.39067 60.2873 6.65667 60.0726 7.03C59.8579 7.394 59.7506 7.898 59.7506 8.542C59.7506 9.17667 59.8533 9.68067 60.0586 10.054C60.2733 10.418 60.5766 10.684 60.9686 10.852C61.3606 11.0107 61.8179 11.09 62.3406 11.09C62.8726 11.09 63.3299 10.9967 63.7126 10.81C64.1046 10.614 64.4079 10.334 64.6226 9.97C64.8466 9.606 64.9586 9.16267 64.9586 8.64H65.2246L65.2806 9.97H64.9866C64.8279 10.6607 64.4873 11.1973 63.9646 11.58C63.4513 11.9533 62.8073 12.14 62.0326 12.14ZM66.1066 12H65.0566V9.76L64.9586 9.578V2.62H66.1066V12ZM68.8386 12H67.6906V5.07H68.8386V12ZM68.8386 4.202H67.6906V2.62H68.8386V4.202ZM77.3826 12H76.2346V8.15C76.2346 7.44067 76.062 6.89933 75.7166 6.526C75.3713 6.15267 74.8113 5.966 74.0366 5.966C73.2246 5.966 72.6133 6.19933 72.2026 6.666C71.792 7.12333 71.5866 7.77667 71.5866 8.626H71.3206L71.2926 7.24H71.5586C71.6426 6.848 71.8013 6.47467 72.0346 6.12C72.2773 5.76533 72.5993 5.48067 73.0006 5.266C73.4113 5.042 73.9106 4.93 74.4986 4.93C75.1426 4.93 75.6793 5.06533 76.1086 5.336C76.538 5.60667 76.8553 5.97067 77.0606 6.428C77.2753 6.876 77.3826 7.37533 77.3826 7.926V12ZM71.5866 12H70.4386V5.07H71.4886V7.268L71.5866 7.338V12Z" fill="white"/>
</svg>
