<svg width="73" height="18" viewBox="0 0 73 18" fill="none" xmlns="http://www.w3.org/2000/svg">
<path d="M0.5 9C0.5 13.9706 4.52944 18 9.5 18C14.4706 18 18.5 13.9706 18.5 9C18.5 4.02944 14.4706 0 9.5 0C4.52944 0 0.5 4.02944 0.5 9Z" fill="#CFCFDD"/>
<path d="M7.025 13.5H5.1125V7.48125H7.025V13.5ZM6.06875 6.6375C5.45 6.6375 5 6.1875 5 5.56875C5 4.95 5.50625 4.5 6.06875 4.5C6.6875 4.5 7.1375 4.95 7.1375 5.56875C7.1375 6.1875 6.6875 6.6375 6.06875 6.6375ZM14 13.5H12.0875V10.2375C12.0875 9.28125 11.6937 9 11.1312 9C10.5687 9 10.0062 9.45 10.0062 10.2937V13.5H8.09375V7.48125H9.89375V8.325C10.0625 7.93125 10.7375 7.3125 11.6937 7.3125C12.7625 7.3125 13.8875 7.93125 13.8875 9.7875V13.5H14Z" fill="white"/>
<path d="M26.4727 13H25.4887V4.96H26.4727V13ZM31.5367 13H25.7887V12.112H31.5367V13ZM33.4453 13H32.4613V7.06H33.4453V13ZM33.4453 6.316H32.4613V4.96H33.4453V6.316ZM40.7688 13H39.7848V9.7C39.7848 9.092 39.6368 8.628 39.3408 8.308C39.0448 7.988 38.5648 7.828 37.9008 7.828C37.2048 7.828 36.6808 8.028 36.3288 8.428C35.9768 8.82 35.8008 9.38 35.8008 10.108H35.5728L35.5488 8.92H35.7768C35.8488 8.584 35.9848 8.264 36.1848 7.96C36.3928 7.656 36.6688 7.412 37.0128 7.228C37.3648 7.036 37.7928 6.94 38.2968 6.94C38.8488 6.94 39.3088 7.056 39.6768 7.288C40.0448 7.52 40.3168 7.832 40.4928 8.224C40.6768 8.608 40.7688 9.036 40.7688 9.508V13ZM35.8008 13H34.8168V7.06H35.7168V8.944L35.8008 9.004V13ZM48.0699 13H46.9059L44.9979 10.396H42.6579V9.508H44.9979L46.9179 7.06H48.0819L45.8019 9.904L48.0699 13ZM43.0899 13H42.1059V4.96H43.0899V13ZM51.7242 13.12C51.0842 13.12 50.5242 12.996 50.0442 12.748C49.5722 12.5 49.2042 12.144 48.9402 11.68C48.6842 11.216 48.5562 10.668 48.5562 10.036C48.5562 9.428 48.6842 8.892 48.9402 8.428C49.2042 7.964 49.5722 7.6 50.0442 7.336C50.5162 7.072 51.0722 6.94 51.7122 6.94C52.2962 6.94 52.8122 7.052 53.2602 7.276C53.7162 7.492 54.0722 7.808 54.3282 8.224C54.5842 8.632 54.7122 9.136 54.7122 9.736C54.7122 9.84 54.7082 9.94 54.7002 10.036C54.6922 10.124 54.6802 10.208 54.6642 10.288H49.1802V9.7H54.0522L53.7642 10.048C53.7722 9.976 53.7762 9.9 53.7762 9.82C53.7842 9.732 53.7882 9.648 53.7882 9.568C53.7882 8.96 53.6082 8.504 53.2482 8.2C52.8882 7.896 52.3682 7.744 51.6882 7.744C50.9122 7.744 50.3522 7.936 50.0082 8.32C49.6642 8.696 49.4922 9.224 49.4922 9.904V10.132C49.4922 10.812 49.6602 11.344 49.9962 11.728C50.3402 12.112 50.9082 12.304 51.7002 12.304C52.3722 12.304 52.8642 12.192 53.1762 11.968C53.4962 11.736 53.6562 11.416 53.6562 11.008V10.924H54.6402V11.008C54.6402 11.424 54.5122 11.792 54.2562 12.112C54.0082 12.432 53.6642 12.68 53.2242 12.856C52.7842 13.032 52.2842 13.12 51.7242 13.12ZM58.3851 13.12C57.7531 13.12 57.2171 12.988 56.7771 12.724C56.3371 12.46 56.0051 12.096 55.7811 11.632C55.5571 11.168 55.4451 10.636 55.4451 10.036C55.4451 9.428 55.5571 8.892 55.7811 8.428C56.0051 7.964 56.3291 7.6 56.7531 7.336C57.1851 7.072 57.7051 6.94 58.3131 6.94C59.0091 6.94 59.5691 7.108 59.9931 7.444C60.4251 7.772 60.7011 8.192 60.8211 8.704H61.1211V10.012H60.8931C60.8931 9.316 60.6931 8.78 60.2931 8.404C59.8931 8.028 59.3371 7.84 58.6251 7.84C58.1931 7.84 57.8091 7.912 57.4731 8.056C57.1451 8.192 56.8891 8.42 56.7051 8.74C56.5211 9.052 56.4291 9.484 56.4291 10.036C56.4291 10.58 56.5171 11.012 56.6931 11.332C56.8771 11.644 57.1371 11.872 57.4731 12.016C57.8091 12.152 58.2011 12.22 58.6491 12.22C59.1051 12.22 59.4971 12.14 59.8251 11.98C60.1611 11.812 60.4211 11.572 60.6051 11.26C60.7971 10.948 60.8931 10.568 60.8931 10.12H61.1211L61.1691 11.26H60.9171C60.7811 11.852 60.4891 12.312 60.0411 12.64C59.6011 12.96 59.0491 13.12 58.3851 13.12ZM61.8771 13H60.9771V11.08L60.8931 10.924V4.96H61.8771V13ZM64.2188 13H63.2348V7.06H64.2188V13ZM64.2188 6.316H63.2348V4.96H64.2188V6.316ZM71.5423 13H70.5583V9.7C70.5583 9.092 70.4103 8.628 70.1143 8.308C69.8183 7.988 69.3383 7.828 68.6743 7.828C67.9783 7.828 67.4543 8.028 67.1023 8.428C66.7503 8.82 66.5743 9.38 66.5743 10.108H66.3463L66.3223 8.92H66.5503C66.6223 8.584 66.7583 8.264 66.9583 7.96C67.1663 7.656 67.4423 7.412 67.7863 7.228C68.1383 7.036 68.5663 6.94 69.0703 6.94C69.6223 6.94 70.0823 7.056 70.4503 7.288C70.8183 7.52 71.0903 7.832 71.2663 8.224C71.4503 8.608 71.5423 9.036 71.5423 9.508V13ZM66.5743 13H65.5903V7.06H66.4902V8.944L66.5743 9.004V13Z" fill="#1B1B1D"/>
</svg>
