<svg width="73" height="16" viewBox="0 0 73 16" fill="none" xmlns="http://www.w3.org/2000/svg">
<path d="M0.5 8C0.5 12.4183 4.08172 16 8.5 16C12.9183 16 16.5 12.4183 16.5 8C16.5 3.58172 12.9183 0 8.5 0C4.08172 0 0.5 3.58172 0.5 8Z" fill="white"/>
<path d="M12.5 5.5C12.2 5.65 11.9 5.7 11.55 5.75C11.9 5.55 12.15 5.25 12.25 4.85C11.95 5.05 11.6 5.15 11.2 5.25C10.9 4.95 10.45 4.75 10 4.75C8.95 4.75 8.15 5.75 8.4 6.75C7.05 6.7 5.85 6.05 5 5.05C4.55 5.8 4.8 6.75 5.5 7.25C5.25 7.25 5 7.15 4.75 7.05C4.75 7.8 5.3 8.5 6.05 8.7C5.8 8.75 5.55 8.8 5.3 8.75C5.5 9.4 6.1 9.9 6.85 9.9C6.25 10.35 5.35 10.6 4.5 10.5C5.25 10.95 6.1 11.25 7 11.25C10.05 11.25 11.75 8.7 11.65 6.35C12 6.15 12.3 5.85 12.5 5.5Z" fill="#1B2BF3"/>
<path d="M27.7549 12H26.6069V2.62H27.7549V12ZM31.5489 3.656H22.7989V2.62H31.5489V3.656ZM35.4467 12H34.0187L31.8347 5.07H33.0247L34.4107 9.452L34.7467 11.02H34.8307L35.3347 9.368L37.0427 5.07H38.5127L40.2067 9.368L40.7107 11.02H40.7947L41.1307 9.452L42.5167 5.07H43.6927L41.4947 12H40.0527L38.3447 7.632L37.7987 6.05H37.7147L37.1687 7.632L35.4467 12ZM45.7546 12H44.6066V5.07H45.7546V12ZM45.7546 4.202H44.6066V2.62H45.7546V4.202ZM51.6946 12H50.1686C49.4593 12 48.8946 11.832 48.4746 11.496C48.064 11.1507 47.8586 10.572 47.8586 9.76V3.46H49.0066V9.774C49.0066 10.2407 49.1233 10.558 49.3566 10.726C49.59 10.8847 49.9493 10.964 50.4346 10.964H51.6946V12ZM51.6946 6.05H46.6546V5.07H51.6946V6.05ZM57.0814 12H55.5554C54.846 12 54.2814 11.832 53.8614 11.496C53.4507 11.1507 53.2454 10.572 53.2454 9.76V3.46H54.3934V9.774C54.3934 10.2407 54.51 10.558 54.7434 10.726C54.9767 10.8847 55.336 10.964 55.8214 10.964H57.0814V12ZM57.0814 6.05H52.0414V5.07H57.0814V6.05ZM61.4881 12.14C60.7414 12.14 60.0881 11.9953 59.5281 11.706C58.9774 11.4167 58.5481 11.0013 58.2401 10.46C57.9414 9.91867 57.7921 9.27933 57.7921 8.542C57.7921 7.83267 57.9414 7.20733 58.2401 6.666C58.5481 6.12467 58.9774 5.7 59.5281 5.392C60.0787 5.084 60.7274 4.93 61.4741 4.93C62.1554 4.93 62.7574 5.06067 63.2801 5.322C63.8121 5.574 64.2274 5.94267 64.5261 6.428C64.8247 6.904 64.9741 7.492 64.9741 8.192C64.9741 8.31333 64.9694 8.43 64.9601 8.542C64.9507 8.64467 64.9367 8.74267 64.9181 8.836H58.5201V8.15H64.2041L63.8681 8.556C63.8774 8.472 63.8821 8.38333 63.8821 8.29C63.8914 8.18733 63.8961 8.08933 63.8961 7.996C63.8961 7.28667 63.6861 6.75467 63.2661 6.4C62.8461 6.04533 62.2394 5.868 61.4461 5.868C60.5407 5.868 59.8874 6.092 59.4861 6.54C59.0847 6.97867 58.8841 7.59467 58.8841 8.388V8.654C58.8841 9.44733 59.0801 10.068 59.4721 10.516C59.8734 10.964 60.5361 11.188 61.4601 11.188C62.2441 11.188 62.8181 11.0573 63.1821 10.796C63.5554 10.5253 63.7421 10.152 63.7421 9.676V9.578H64.8901V9.676C64.8901 10.1613 64.7407 10.5907 64.4421 10.964C64.1527 11.3373 63.7514 11.6267 63.2381 11.832C62.7247 12.0373 62.1414 12.14 61.4881 12.14ZM67.3972 12H66.2492V5.07H67.2992V7.03L67.3972 7.1V12ZM67.3972 8.206H67.1032V6.946H67.3692C67.4345 6.57267 67.5652 6.23667 67.7612 5.938C67.9665 5.63 68.2372 5.38733 68.5732 5.21C68.9092 5.02333 69.3152 4.93 69.7912 4.93C70.3325 4.93 70.7712 5.04667 71.1072 5.28C71.4432 5.504 71.6905 5.80267 71.8492 6.176C72.0078 6.54933 72.0872 6.95533 72.0872 7.394V8.136H70.9392V7.59C70.9392 7.03 70.8132 6.61467 70.5612 6.344C70.3092 6.064 69.8938 5.924 69.3152 5.924C68.6432 5.924 68.1532 6.12 67.8452 6.512C67.5465 6.904 67.3972 7.46867 67.3972 8.206Z" fill="white"/>
</svg>
