<svg width="210" height="161" viewBox="0 0 210 161" fill="none" xmlns="http://www.w3.org/2000/svg">
<path d="M136.444 55.7665C133.566 60.3116 127.524 61.6584 122.986 58.7682L104.507 47.0037C99.346 43.7161 93.6484 41.5029 87.7421 40.3998L96.542 22.889C103.858 25.1022 110.909 28.2818 117.488 32.4114L133.424 42.4192C137.961 45.2671 139.313 51.2414 136.444 55.7665Z" fill="url(#paint0_linear_296_9470)"/>
<path d="M148.43 60.0125C145.313 64.2671 139.322 65.1697 135.088 62.024L117.842 49.2202C111.129 44.2346 103.262 41.2096 95.092 40.3341L91.6075 20.0551C105.913 21.7887 119.673 27.1552 131.501 35.8192L146.383 46.7257C150.62 49.8296 151.536 55.7769 148.43 60.0125Z" fill="url(#paint1_linear_296_9470)"/>
<path d="M158.59 59.3906C155.465 63.7692 149.357 64.7797 144.986 61.6427L127.187 48.8737C120.26 43.9014 112.18 40.9424 103.82 40.1764L99.9774 19.5866C114.618 21.1324 128.752 26.3841 140.956 35.0225L156.313 45.897C160.686 48.9914 161.705 55.0314 158.59 59.3906Z" fill="url(#paint2_linear_296_9470)"/>
<path d="M99.7911 134.543C123.115 138.656 145.356 123.082 149.468 99.7585C153.581 76.4351 138.007 54.1938 114.684 50.0812C91.3605 45.9687 69.1192 61.5422 65.0067 84.8656C60.8941 108.189 76.4676 130.43 99.7911 134.543Z" fill="url(#paint3_linear_296_9470)"/>
<path d="M101.232 126.376C120.044 129.693 137.984 117.132 141.301 98.3193C144.618 79.5069 132.057 61.5674 113.244 58.2503C94.4321 54.9332 76.4926 67.4946 73.1755 86.3069C69.8583 105.119 82.4197 123.059 101.232 126.376Z" fill="url(#paint4_linear_296_9470)"/>
<path d="M101.968 122.205C118.476 125.116 134.219 114.092 137.13 97.5837C140.041 81.0749 129.018 65.3321 112.509 62.4211C96.0002 59.5102 80.2574 70.5334 77.3465 87.0422C74.4355 103.551 85.4587 119.294 101.968 122.205Z" fill="url(#paint5_linear_296_9470)"/>
<path d="M111.581 87.3552L113.367 77.2264C117.816 78.3684 118.742 80.8208 121.032 81.2244C124.084 81.7627 126.006 78.1671 126.336 76.294C127.18 71.5072 119.259 68.9662 114.982 68.0691L115.288 66.3346C115.459 65.3635 114.3 64.2291 112.982 63.9967C111.456 63.7276 110.187 64.4339 110.016 65.405L109.673 67.3476C102.136 67.0916 94.8687 70.1735 93.3152 78.984C91.7494 87.8639 98.7158 92.168 104.67 95.7216L102.689 106.96C97.7139 105.153 96.0769 100.644 93.1632 100.13C90.5271 99.6654 87.8343 102.767 87.4183 105.126C86.6354 109.566 92.6756 115.066 100.952 116.811L100.646 118.546C100.474 119.517 101.425 120.615 102.952 120.884C104.27 121.116 105.747 120.446 105.918 119.475L106.273 117.464C114.622 117.577 121.089 113.352 122.606 104.75C124.258 95.384 117.479 90.8267 111.581 87.3552ZM107.296 84.8826C104.856 83.3076 103.272 81.741 103.627 79.7289C103.921 78.064 105.52 76.7007 108.752 76.6269L107.296 84.8826ZM107.28 107.698L108.919 98.402C111.208 100.022 112.686 101.784 112.282 104.074C111.841 106.571 109.736 107.559 107.28 107.698Z" fill="url(#paint6_linear_296_9470)"/>
<path d="M64.7637 86.4355C61.602 109.179 76.9925 130.523 99.7919 134.543C122.591 138.563 144.354 123.771 149.162 101.317L64.7637 86.4355Z" fill="url(#paint7_linear_296_9470)"/>
<path d="M143.878 114.61C143.666 114.959 143.448 115.304 143.226 115.649C134.137 129.654 117.267 137.624 99.7906 134.543C76.4681 130.43 60.8938 108.188 65.0062 84.8653C66.1247 78.522 68.5823 72.7553 72.0436 67.7999C72.7553 66.7714 73.5137 65.7833 74.3124 64.8311L113.912 71.8136L143.878 114.61Z" fill="url(#paint8_linear_296_9470)"/>
<path d="M154.119 64.0791L147.494 56.5381C147.2 56.2231 146.902 55.9122 146.601 55.6051C138.484 47.3307 127.633 42.3118 116.114 41.0253C106.48 39.9495 102.562 39.8205 89.0198 43.8288C86.6584 44.5277 85.8843 46.7573 87.297 48.7743L87.684 49.3271C96.3185 55.1018 104.395 61.6573 111.813 68.9062C116.072 73.0683 116.03 79.9369 111.742 84.0707C107.84 87.8331 101.734 88.0257 97.5841 84.5381C90.4595 78.5497 82.167 74.0688 73.213 71.4009C71.502 70.891 69.7408 70.5704 67.9653 70.386C62.3719 69.805 48.8488 68.3054 44.4958 66.9684C44.4557 66.9559 44.4152 66.9438 44.3748 66.9313C32.9834 63.4131 25.2774 52.8037 25.415 40.8808L25.4233 40.1712C25.5983 24.7704 38.2313 12.4256 53.6352 12.6036L80.2342 12.911L96.9554 13.2608C123.157 14.0161 147.998 25.108 165.993 44.0869L170.302 48.9671C174.509 53.4024 174.306 60.3935 169.85 64.5849C165.378 68.7919 158.314 68.5634 154.119 64.0791Z" fill="url(#paint9_linear_296_9470)"/>
<path d="M111.742 84.071C107.84 87.8334 101.733 88.0261 97.5837 84.5381C89.725 77.9325 80.4458 73.1615 70.4245 70.634C70.2738 70.5959 70.1237 70.5573 69.9736 70.5179C53.0721 66.0712 56.5141 41.1338 73.9887 41.4225C75.2444 41.4432 76.4679 41.8256 77.5116 42.5239L87.6833 49.327C96.3178 55.1017 104.394 61.6572 111.812 68.9065C116.071 73.069 116.029 79.9375 111.742 84.071Z" fill="url(#paint10_linear_296_9470)"/>
<path d="M163.213 206.653L15.5297 180.612C11.2002 179.849 8.30923 175.72 9.07263 171.391L17.3125 124.66L180.675 153.465L172.435 200.196C171.671 204.525 167.543 207.416 163.213 206.653Z" fill="url(#paint11_linear_296_9470)"/>
<path d="M17.3125 124.66L14.861 138.563L48.3571 186.401L163.213 206.653C167.543 207.416 171.671 204.525 172.435 200.196L180.675 153.465L17.3125 124.66Z" fill="url(#paint12_linear_296_9470)"/>
<path d="M11.7969 155.941L9.07289 171.39C8.30949 175.719 11.2005 179.848 15.5299 180.611L163.214 206.652C167.543 207.416 171.672 204.525 172.435 200.195L175.159 184.747L11.7969 155.941Z" fill="url(#paint13_linear_296_9470)"/>
<path d="M179.202 167.54L13.8832 138.39C10.5843 137.808 8.3816 134.663 8.96328 131.364L12.2615 112.659C12.8432 109.36 15.989 107.157 19.2878 107.739L184.607 136.889C187.906 137.471 190.109 140.616 189.527 143.915L186.229 162.62C185.647 165.919 182.501 168.122 179.202 167.54Z" fill="url(#paint14_linear_296_9470)"/>
<path d="M11.0354 119.611L8.96296 131.365C8.38128 134.664 10.584 137.809 13.8829 138.391L179.202 167.541C182.501 168.123 185.647 165.92 186.228 162.621L188.301 150.868L11.0354 119.611Z" fill="url(#paint15_linear_296_9470)"/>
<defs>
<linearGradient id="paint0_linear_296_9470" x1="109.399" y1="53.9361" x2="113.074" y2="45.4224" gradientUnits="userSpaceOnUse">
<stop stop-color="#FFEEE6"/>
<stop offset="1" stop-color="#FFB09E"/>
</linearGradient>
<linearGradient id="paint1_linear_296_9470" x1="114.262" y1="54.5661" x2="119.087" y2="44.1876" gradientUnits="userSpaceOnUse">
<stop stop-color="#FFEEE6"/>
<stop offset="1" stop-color="#FFB09E"/>
</linearGradient>
<linearGradient id="paint2_linear_296_9470" x1="121.364" y1="55.44" x2="127.209" y2="43.4266" gradientUnits="userSpaceOnUse">
<stop stop-color="#FFEEE6"/>
<stop offset="1" stop-color="#FFB09E"/>
</linearGradient>
<linearGradient id="paint3_linear_296_9470" x1="92.3504" y1="71.051" x2="135.586" y2="132.797" gradientUnits="userSpaceOnUse">
<stop stop-color="#FEE45A"/>
<stop offset="1" stop-color="#FE9738"/>
</linearGradient>
<linearGradient id="paint4_linear_296_9470" x1="119.246" y1="109.462" x2="84.3733" y2="59.6585" gradientUnits="userSpaceOnUse">
<stop stop-color="#FEE45A"/>
<stop offset="1" stop-color="#FE9738"/>
</linearGradient>
<linearGradient id="paint5_linear_296_9470" x1="96.701" y1="77.2642" x2="127.304" y2="120.969" gradientUnits="userSpaceOnUse">
<stop stop-color="#FEE45A"/>
<stop offset="1" stop-color="#FE9738"/>
</linearGradient>
<linearGradient id="paint6_linear_296_9470" x1="95.8234" y1="79.9276" x2="124.819" y2="109.59" gradientUnits="userSpaceOnUse">
<stop stop-color="#FE9738"/>
<stop offset="1" stop-color="#F46700"/>
</linearGradient>
<linearGradient id="paint7_linear_296_9470" x1="105.216" y1="103.782" x2="99.5161" y2="136.108" gradientUnits="userSpaceOnUse">
<stop stop-color="#FE7701" stop-opacity="0"/>
<stop offset="0.209" stop-color="#FA7303" stop-opacity="0.209"/>
<stop offset="0.4275" stop-color="#ED6809" stop-opacity="0.428"/>
<stop offset="0.6502" stop-color="#D85613" stop-opacity="0.65"/>
<stop offset="0.8745" stop-color="#BB3C21" stop-opacity="0.875"/>
<stop offset="1" stop-color="#A72B2B"/>
</linearGradient>
<linearGradient id="paint8_linear_296_9470" x1="105.513" y1="115.394" x2="99.0886" y2="67.2359" gradientUnits="userSpaceOnUse">
<stop stop-color="#FE7701" stop-opacity="0"/>
<stop offset="0.1854" stop-color="#F87204" stop-opacity="0.185"/>
<stop offset="0.4314" stop-color="#E7630C" stop-opacity="0.431"/>
<stop offset="0.7114" stop-color="#CB4B19" stop-opacity="0.711"/>
<stop offset="1" stop-color="#A72B2B"/>
</linearGradient>
<linearGradient id="paint9_linear_296_9470" x1="92.0253" y1="0.476919" x2="102.237" y2="68.5789" gradientUnits="userSpaceOnUse">
<stop stop-color="#FFEEE6"/>
<stop offset="1" stop-color="#FFB09E"/>
</linearGradient>
<linearGradient id="paint10_linear_296_9470" x1="86.9909" y1="65.9587" x2="84.725" y2="91.0046" gradientUnits="userSpaceOnUse">
<stop stop-color="#F89580" stop-opacity="0"/>
<stop offset="0.3577" stop-color="#E98A75" stop-opacity="0.359"/>
<stop offset="0.9972" stop-color="#C5715A"/>
</linearGradient>
<linearGradient id="paint11_linear_296_9470" x1="88.3034" y1="139.113" x2="112.849" y2="231.6" gradientUnits="userSpaceOnUse">
<stop stop-color="#D9B1EE"/>
<stop offset="1" stop-color="#814AA0"/>
</linearGradient>
<linearGradient id="paint12_linear_296_9470" x1="88.3296" y1="199.542" x2="106.736" y2="95.1545" gradientUnits="userSpaceOnUse">
<stop stop-color="#5B3374" stop-opacity="0"/>
<stop offset="1" stop-color="#5B3374"/>
</linearGradient>
<linearGradient id="paint13_linear_296_9470" x1="92.0684" y1="178.338" x2="88.9629" y2="195.95" gradientUnits="userSpaceOnUse">
<stop stop-color="#5B3374" stop-opacity="0"/>
<stop offset="1" stop-color="#5B3374"/>
</linearGradient>
<linearGradient id="paint14_linear_296_9470" x1="90.0605" y1="110.842" x2="114.96" y2="183.49" gradientUnits="userSpaceOnUse">
<stop stop-color="#D9B1EE"/>
<stop offset="1" stop-color="#814AA0"/>
</linearGradient>
<linearGradient id="paint15_linear_296_9470" x1="98.6875" y1="140.801" x2="95.5468" y2="158.613" gradientUnits="userSpaceOnUse">
<stop stop-color="#5B3374" stop-opacity="0"/>
<stop offset="1" stop-color="#5B3374"/>
</linearGradient>
</defs>
</svg>
