<svg width="67" height="18" viewBox="0 0 67 18" fill="none" xmlns="http://www.w3.org/2000/svg">
<path d="M0 9C0 13.9706 4.02944 18 9 18C13.9706 18 18 13.9706 18 9C18 4.02944 13.9706 0 9 0C4.02944 0 0 4.02944 0 9Z" fill="#CFCFDD"/>
<path d="M13.5 6.1875C13.1625 6.35625 12.825 6.4125 12.4313 6.46875C12.825 6.24375 13.1062 5.90625 13.2188 5.45625C12.8812 5.68125 12.4875 5.79375 12.0375 5.90625C11.7 5.56875 11.1937 5.34375 10.6875 5.34375C9.50625 5.34375 8.60625 6.46875 8.8875 7.59375C7.36875 7.5375 6.01875 6.80625 5.0625 5.68125C4.55625 6.525 4.8375 7.59375 5.625 8.15625C5.34375 8.15625 5.0625 8.04375 4.78125 7.93125C4.78125 8.775 5.4 9.5625 6.24375 9.7875C5.9625 9.84375 5.68125 9.9 5.4 9.84375C5.625 10.575 6.3 11.1375 7.14375 11.1375C6.46875 11.6437 5.45625 11.925 4.5 11.8125C5.34375 12.3187 6.3 12.6562 7.3125 12.6562C10.7437 12.6562 12.6562 9.7875 12.5437 7.14375C12.9375 6.91875 13.275 6.58125 13.5 6.1875Z" fill="white"/>
<path d="M28.5756 13H27.5916V4.96H28.5756V13ZM31.8276 5.848H24.3276V4.96H31.8276V5.848ZM35.1686 13H33.9446L32.0726 7.06H33.0926L34.2806 10.816L34.5686 12.16H34.6406L35.0726 10.744L36.5366 7.06H37.7966L39.2486 10.744L39.6806 12.16H39.7526L40.0406 10.816L41.2286 7.06H42.2366L40.3526 13H39.1166L37.6526 9.256L37.1846 7.9H37.1126L36.6446 9.256L35.1686 13ZM44.0039 13H43.0199V7.06H44.0039V13ZM44.0039 6.316H43.0199V4.96H44.0039V6.316ZM49.0954 13H47.7874C47.1794 13 46.6954 12.856 46.3354 12.568C45.9834 12.272 45.8074 11.776 45.8074 11.08V5.68H46.7914V11.092C46.7914 11.492 46.8914 11.764 47.0914 11.908C47.2914 12.044 47.5994 12.112 48.0154 12.112H49.0954V13ZM49.0954 7.9H44.7754V7.06H49.0954V7.9ZM53.7126 13H52.4046C51.7966 13 51.3126 12.856 50.9526 12.568C50.6006 12.272 50.4246 11.776 50.4246 11.08V5.68H51.4086V11.092C51.4086 11.492 51.5086 11.764 51.7086 11.908C51.9086 12.044 52.2166 12.112 52.6326 12.112H53.7126V13ZM53.7126 7.9H49.3926V7.06H53.7126V7.9ZM57.4898 13.12C56.8498 13.12 56.2898 12.996 55.8098 12.748C55.3378 12.5 54.9698 12.144 54.7058 11.68C54.4498 11.216 54.3218 10.668 54.3218 10.036C54.3218 9.428 54.4498 8.892 54.7058 8.428C54.9698 7.964 55.3378 7.6 55.8098 7.336C56.2818 7.072 56.8378 6.94 57.4778 6.94C58.0618 6.94 58.5778 7.052 59.0258 7.276C59.4818 7.492 59.8378 7.808 60.0938 8.224C60.3498 8.632 60.4778 9.136 60.4778 9.736C60.4778 9.84 60.4738 9.94 60.4658 10.036C60.4578 10.124 60.4458 10.208 60.4298 10.288H54.9458V9.7H59.8178L59.5298 10.048C59.5378 9.976 59.5418 9.9 59.5418 9.82C59.5498 9.732 59.5538 9.648 59.5538 9.568C59.5538 8.96 59.3738 8.504 59.0138 8.2C58.6538 7.896 58.1338 7.744 57.4538 7.744C56.6778 7.744 56.1178 7.936 55.7738 8.32C55.4298 8.696 55.2578 9.224 55.2578 9.904V10.132C55.2578 10.812 55.4258 11.344 55.7618 11.728C56.1058 12.112 56.6738 12.304 57.4658 12.304C58.1378 12.304 58.6298 12.192 58.9418 11.968C59.2618 11.736 59.4218 11.416 59.4218 11.008V10.924H60.4058V11.008C60.4058 11.424 60.2778 11.792 60.0218 12.112C59.7738 12.432 59.4298 12.68 58.9898 12.856C58.5498 13.032 58.0498 13.12 57.4898 13.12ZM62.5547 13H61.5707V7.06H62.4707V8.74L62.5547 8.8V13ZM62.5547 9.748H62.3027V8.668H62.5307C62.5867 8.348 62.6987 8.06 62.8667 7.804C63.0427 7.54 63.2747 7.332 63.5627 7.18C63.8507 7.02 64.1987 6.94 64.6067 6.94C65.0707 6.94 65.4467 7.04 65.7347 7.24C66.0227 7.432 66.2347 7.688 66.3707 8.008C66.5067 8.328 66.5747 8.676 66.5747 9.052V9.688H65.5907V9.22C65.5907 8.74 65.4827 8.384 65.2667 8.152C65.0507 7.912 64.6947 7.792 64.1987 7.792C63.6227 7.792 63.2027 7.96 62.9387 8.296C62.6827 8.632 62.5547 9.116 62.5547 9.748Z" fill="#1B1B1D"/>
</svg>
