<svg width="65" height="18" viewBox="0 0 65 18" fill="none" xmlns="http://www.w3.org/2000/svg">
<path d="M18 9C18 4.02944 13.9706 0 9 0C4.02944 0 0 4.02944 0 9C0 13.9706 4.02944 18 9 18C13.9706 18 18 13.9706 18 9Z" fill="#CFCFDD"/>
<path fill-rule="evenodd" clip-rule="evenodd" d="M13.4059 9.1021C13.4059 8.78301 13.3773 8.47619 13.3241 8.18164H9.08594V9.92233H11.5078C11.4034 10.4848 11.0864 10.9614 10.6098 11.2805V12.4096H12.0641C12.915 11.6262 13.4059 10.4726 13.4059 9.1021Z" fill="white"/>
<path fill-rule="evenodd" clip-rule="evenodd" d="M9.08387 13.5005C10.2989 13.5005 11.3175 13.0975 12.0621 12.4102L10.6077 11.2812C10.2048 11.5512 9.68933 11.7107 9.08387 11.7107C7.91182 11.7107 6.91978 10.9191 6.56591 9.85547H5.0625V11.0214C5.80296 12.4921 7.32478 13.5005 9.08387 13.5005Z" fill="white"/>
<path fill-rule="evenodd" clip-rule="evenodd" d="M6.56799 9.85443C6.47799 9.58443 6.42685 9.29602 6.42685 8.99943C6.42685 8.70284 6.47799 8.41443 6.56799 8.14443V6.97852H5.06457C4.7598 7.58602 4.58594 8.27329 4.58594 8.99943C4.58594 9.72557 4.7598 10.4128 5.06457 11.0203L6.56799 9.85443Z" fill="white"/>
<path fill-rule="evenodd" clip-rule="evenodd" d="M9.08387 6.28978C9.74456 6.28978 10.3377 6.51682 10.8041 6.96273L12.0948 5.67205C11.3155 4.94591 10.2968 4.5 9.08387 4.5C7.32478 4.5 5.80296 5.50841 5.0625 6.9791L6.56591 8.14501C6.91978 7.08137 7.91182 6.28978 9.08387 6.28978Z" fill="white"/>
<path d="M28.7572 13.12C27.9892 13.12 27.3092 12.952 26.7172 12.616C26.1332 12.272 25.6732 11.792 25.3372 11.176C25.0092 10.552 24.8452 9.82 24.8452 8.98C24.8452 8.14 25.0172 7.412 25.3612 6.796C25.7132 6.172 26.1972 5.692 26.8132 5.356C27.4372 5.012 28.1572 4.84 28.9732 4.84C29.6932 4.84 30.3332 4.96 30.8932 5.2C31.4532 5.44 31.8932 5.78 32.2132 6.22C32.5332 6.66 32.6932 7.184 32.6932 7.792V7.9H31.6132V7.792C31.6132 7.152 31.3892 6.66 30.9412 6.316C30.4932 5.964 29.8292 5.788 28.9492 5.788C28.2852 5.788 27.7252 5.908 27.2692 6.148C26.8132 6.388 26.4692 6.744 26.2372 7.216C26.0052 7.68 25.8892 8.268 25.8892 8.98C25.8892 9.684 26.0052 10.272 26.2372 10.744C26.4692 11.216 26.8092 11.572 27.2572 11.812C27.7052 12.052 28.2572 12.172 28.9132 12.172C29.5532 12.172 30.0772 12.096 30.4852 11.944C30.9012 11.792 31.2092 11.556 31.4092 11.236C31.6092 10.916 31.7092 10.504 31.7092 10V9.808L32.6932 9.868V10.06L31.9012 11.248H31.7332C31.6132 11.672 31.4092 12.024 31.1212 12.304C30.8412 12.576 30.5012 12.78 30.1012 12.916C29.7012 13.052 29.2532 13.12 28.7572 13.12ZM32.6932 13H31.8052V11.044L31.7092 10.9V9.148H32.6932V13ZM32.6932 9.76H28.5772V8.992H32.6932V9.76ZM36.886 13.12C36.238 13.12 35.67 12.988 35.182 12.724C34.694 12.46 34.314 12.096 34.042 11.632C33.77 11.168 33.634 10.636 33.634 10.036C33.634 9.428 33.77 8.892 34.042 8.428C34.314 7.964 34.694 7.6 35.182 7.336C35.67 7.072 36.238 6.94 36.886 6.94C37.542 6.94 38.11 7.072 38.59 7.336C39.078 7.6 39.458 7.964 39.73 8.428C40.002 8.892 40.138 9.428 40.138 10.036C40.138 10.636 40.002 11.168 39.73 11.632C39.458 12.096 39.078 12.46 38.59 12.724C38.11 12.988 37.542 13.12 36.886 13.12ZM36.886 12.244C37.678 12.244 38.254 12.048 38.614 11.656C38.982 11.264 39.166 10.724 39.166 10.036C39.166 9.34 38.982 8.796 38.614 8.404C38.254 8.012 37.678 7.816 36.886 7.816C36.102 7.816 35.526 8.012 35.158 8.404C34.79 8.796 34.606 9.34 34.606 10.036C34.606 10.724 34.79 11.264 35.158 11.656C35.526 12.048 36.102 12.244 36.886 12.244ZM44.1633 13.12C43.5153 13.12 42.9473 12.988 42.4593 12.724C41.9713 12.46 41.5913 12.096 41.3193 11.632C41.0473 11.168 40.9113 10.636 40.9113 10.036C40.9113 9.428 41.0473 8.892 41.3193 8.428C41.5913 7.964 41.9713 7.6 42.4593 7.336C42.9473 7.072 43.5153 6.94 44.1633 6.94C44.8193 6.94 45.3873 7.072 45.8673 7.336C46.3553 7.6 46.7353 7.964 47.0073 8.428C47.2793 8.892 47.4153 9.428 47.4153 10.036C47.4153 10.636 47.2793 11.168 47.0073 11.632C46.7353 12.096 46.3553 12.46 45.8673 12.724C45.3873 12.988 44.8193 13.12 44.1633 13.12ZM44.1633 12.244C44.9553 12.244 45.5313 12.048 45.8913 11.656C46.2593 11.264 46.4433 10.724 46.4433 10.036C46.4433 9.34 46.2593 8.796 45.8913 8.404C45.5313 8.012 44.9553 7.816 44.1633 7.816C43.3793 7.816 42.8033 8.012 42.4353 8.404C42.0673 8.796 41.8833 9.34 41.8833 10.036C41.8833 10.724 42.0673 11.264 42.4353 11.656C42.8033 12.048 43.3793 12.244 44.1633 12.244ZM51.4647 15.16C50.9207 15.16 50.4287 15.072 49.9887 14.896C49.5567 14.72 49.2127 14.468 48.9567 14.14C48.7087 13.812 48.5847 13.416 48.5847 12.952H49.5687C49.5687 13.28 49.6407 13.544 49.7847 13.744C49.9287 13.944 50.1447 14.088 50.4327 14.176C50.7207 14.272 51.0807 14.32 51.5127 14.32C52.0087 14.32 52.4047 14.264 52.7007 14.152C53.0047 14.04 53.2247 13.848 53.3607 13.576C53.4967 13.304 53.5647 12.928 53.5647 12.448V9.016L53.6487 8.92V7.06H54.5487V12.4C54.5487 13.056 54.4167 13.584 54.1527 13.984C53.8967 14.392 53.5367 14.688 53.0727 14.872C52.6167 15.064 52.0807 15.16 51.4647 15.16ZM51.0447 12.496C50.4527 12.496 49.9447 12.38 49.5207 12.148C49.0967 11.908 48.7687 11.58 48.5367 11.164C48.3127 10.748 48.2007 10.268 48.2007 9.724C48.2007 9.172 48.3167 8.688 48.5487 8.272C48.7887 7.856 49.1287 7.532 49.5687 7.3C50.0087 7.06 50.5327 6.94 51.1407 6.94C51.7647 6.94 52.3007 7.084 52.7487 7.372C53.1967 7.652 53.4767 8.052 53.5887 8.572H53.8527L53.7927 9.568H53.5647C53.5647 9.192 53.4727 8.876 53.2887 8.62C53.1127 8.356 52.8647 8.156 52.5447 8.02C52.2247 7.876 51.8407 7.804 51.3927 7.804C50.9527 7.804 50.5687 7.868 50.2407 7.996C49.9127 8.116 49.6567 8.316 49.4727 8.596C49.2887 8.868 49.1967 9.244 49.1967 9.724C49.1967 10.196 49.2847 10.572 49.4607 10.852C49.6447 11.132 49.8967 11.332 50.2167 11.452C50.5367 11.572 50.9087 11.632 51.3327 11.632C52.0367 11.632 52.5847 11.472 52.9767 11.152C53.3687 10.824 53.5647 10.36 53.5647 9.76H53.7927V10.924H53.5047C53.3847 11.38 53.1127 11.756 52.6887 12.052C52.2727 12.348 51.7247 12.496 51.0447 12.496ZM56.9024 13H55.9184V4.96H56.9024V13ZM61.1538 13.12C60.5138 13.12 59.9538 12.996 59.4738 12.748C59.0018 12.5 58.6338 12.144 58.3698 11.68C58.1138 11.216 57.9858 10.668 57.9858 10.036C57.9858 9.428 58.1138 8.892 58.3698 8.428C58.6338 7.964 59.0018 7.6 59.4738 7.336C59.9458 7.072 60.5018 6.94 61.1418 6.94C61.7258 6.94 62.2418 7.052 62.6898 7.276C63.1458 7.492 63.5018 7.808 63.7578 8.224C64.0138 8.632 64.1418 9.136 64.1418 9.736C64.1418 9.84 64.1378 9.94 64.1298 10.036C64.1218 10.124 64.1098 10.208 64.0938 10.288H58.6098V9.7H63.4818L63.1938 10.048C63.2018 9.976 63.2058 9.9 63.2058 9.82C63.2138 9.732 63.2178 9.648 63.2178 9.568C63.2178 8.96 63.0378 8.504 62.6778 8.2C62.3178 7.896 61.7978 7.744 61.1178 7.744C60.3418 7.744 59.7818 7.936 59.4378 8.32C59.0938 8.696 58.9218 9.224 58.9218 9.904V10.132C58.9218 10.812 59.0898 11.344 59.4258 11.728C59.7698 12.112 60.3378 12.304 61.1298 12.304C61.8018 12.304 62.2938 12.192 62.6058 11.968C62.9258 11.736 63.0858 11.416 63.0858 11.008V10.924H64.0698V11.008C64.0698 11.424 63.9418 11.792 63.6858 12.112C63.4378 12.432 63.0938 12.68 62.6538 12.856C62.2138 13.032 61.7138 13.12 61.1538 13.12Z" fill="#1B1B1D"/>
</svg>
