<svg width="89" height="16" viewBox="0 0 89 16" fill="none" xmlns="http://www.w3.org/2000/svg">
<path d="M0.5 8C0.5 12.4183 4.08172 16 8.5 16C12.9183 16 16.5 12.4183 16.5 8C16.5 3.58172 12.9183 0 8.5 0C4.08172 0 0.5 3.58172 0.5 8Z" fill="white"/>
<path d="M12.5 8C12.5 5.8 10.7 4 8.5 4C6.3 4 4.5 5.8 4.5 8C4.5 10 5.95 11.65 7.85 11.95V9.15H6.85V8H7.85V7.1C7.85 6.1 8.45 5.55 9.35 5.55C9.8 5.55 10.25 5.65 10.25 5.65V6.65H9.75C9.25 6.65 9.1 6.95 9.1 7.25V8H10.2L10 9.15H9.05V12C11.05 11.7 12.5 10 12.5 8Z" fill="#1B2BF3"/>
<path d="M24.4558 12H23.3078V2.62H24.4558V12ZM30.2658 8.08H23.6858V7.044H30.2658V8.08ZM30.4758 3.656H23.6858V2.62H30.4758V3.656ZM37.9876 12H36.9376V10.138L36.8676 10.082V7.744C36.8676 7.1 36.7136 6.64267 36.4056 6.372C36.0976 6.092 35.5796 5.952 34.8516 5.952C34.1423 5.952 33.601 6.08267 33.2276 6.344C32.8636 6.60533 32.6816 7.03 32.6816 7.618V7.674H31.5336V7.618C31.5336 7.114 31.6643 6.66133 31.9256 6.26C32.1963 5.85867 32.5836 5.53667 33.0876 5.294C33.601 5.05133 34.2123 4.93 34.9216 4.93C35.6403 4.93 36.2236 5.056 36.6716 5.308C37.1196 5.55067 37.451 5.882 37.6656 6.302C37.8803 6.71267 37.9876 7.17933 37.9876 7.702V12ZM33.6756 12.14C32.9943 12.14 32.439 11.986 32.0096 11.678C31.5896 11.3607 31.3796 10.922 31.3796 10.362C31.3796 9.98867 31.473 9.68067 31.6596 9.438C31.8463 9.19533 32.1076 9.00867 32.4436 8.878C32.7796 8.738 33.167 8.64 33.6056 8.584L37.0076 8.22V8.948L33.9556 9.284C33.4796 9.33067 33.1203 9.424 32.8776 9.564C32.6443 9.704 32.5276 9.942 32.5276 10.278C32.5276 10.6047 32.6396 10.852 32.8636 11.02C33.097 11.188 33.4656 11.272 33.9696 11.272C34.5203 11.272 35.0103 11.1927 35.4396 11.034C35.8783 10.8753 36.2236 10.628 36.4756 10.292C36.737 9.956 36.8676 9.52667 36.8676 9.004L37.0636 9.06V10.18H36.8676C36.6716 10.796 36.2936 11.2767 35.7336 11.622C35.1736 11.9673 34.4876 12.14 33.6756 12.14ZM42.8966 12.14C42.1499 12.14 41.4966 11.986 40.9366 11.678C40.3859 11.37 39.9566 10.9453 39.6486 10.404C39.3406 9.86267 39.1866 9.242 39.1866 8.542C39.1866 7.83267 39.3406 7.20733 39.6486 6.666C39.9566 6.12467 40.3859 5.7 40.9366 5.392C41.4966 5.084 42.1499 4.93 42.8966 4.93C43.5499 4.93 44.1379 5.05133 44.6606 5.294C45.1926 5.52733 45.6126 5.85867 45.9206 6.288C46.2286 6.71733 46.3826 7.212 46.3826 7.772V7.898H45.2486V7.814C45.2486 7.21667 45.0386 6.75933 44.6186 6.442C44.2079 6.12467 43.6246 5.966 42.8686 5.966C41.9913 5.966 41.3473 6.19 40.9366 6.638C40.5353 7.086 40.3346 7.72067 40.3346 8.542C40.3346 9.354 40.5353 9.984 40.9366 10.432C41.3473 10.88 41.9913 11.104 42.8686 11.104C43.6246 11.104 44.2079 10.9453 44.6186 10.628C45.0386 10.3107 45.2486 9.85333 45.2486 9.256V9.172H46.3826V9.298C46.3826 9.858 46.2286 10.3527 45.9206 10.782C45.6126 11.2113 45.1926 11.5473 44.6606 11.79C44.1379 12.0233 43.5499 12.14 42.8966 12.14ZM51.0174 12.14C50.2707 12.14 49.6174 11.9953 49.0574 11.706C48.5067 11.4167 48.0774 11.0013 47.7694 10.46C47.4707 9.91867 47.3214 9.27933 47.3214 8.542C47.3214 7.83267 47.4707 7.20733 47.7694 6.666C48.0774 6.12467 48.5067 5.7 49.0574 5.392C49.608 5.084 50.2567 4.93 51.0034 4.93C51.6847 4.93 52.2867 5.06067 52.8094 5.322C53.3414 5.574 53.7567 5.94267 54.0554 6.428C54.354 6.904 54.5034 7.492 54.5034 8.192C54.5034 8.31333 54.4987 8.43 54.4894 8.542C54.48 8.64467 54.466 8.74267 54.4474 8.836H48.0494V8.15H53.7334L53.3974 8.556C53.4067 8.472 53.4114 8.38333 53.4114 8.29C53.4207 8.18733 53.4254 8.08933 53.4254 7.996C53.4254 7.28667 53.2154 6.75467 52.7954 6.4C52.3754 6.04533 51.7687 5.868 50.9754 5.868C50.07 5.868 49.4167 6.092 49.0154 6.54C48.614 6.97867 48.4134 7.59467 48.4134 8.388V8.654C48.4134 9.44733 48.6094 10.068 49.0014 10.516C49.4027 10.964 50.0654 11.188 50.9894 11.188C51.7734 11.188 52.3474 11.0573 52.7114 10.796C53.0847 10.5253 53.2714 10.152 53.2714 9.676V9.578H54.4194V9.676C54.4194 10.1613 54.27 10.5907 53.9714 10.964C53.682 11.3373 53.2807 11.6267 52.7674 11.832C52.254 12.0373 51.6707 12.14 51.0174 12.14ZM59.8525 12.14C59.0685 12.14 58.4198 11.9533 57.9065 11.58C57.3931 11.1973 57.0571 10.6607 56.8985 9.97H56.5905L56.6605 8.64H56.9265C56.9265 9.16267 57.0291 9.606 57.2345 9.97C57.4491 10.334 57.7525 10.614 58.1445 10.81C58.5365 10.9967 58.9985 11.09 59.5305 11.09C60.0718 11.09 60.5338 11.0107 60.9165 10.852C61.3085 10.684 61.6071 10.418 61.8125 10.054C62.0178 9.68067 62.1205 9.17667 62.1205 8.542C62.1205 7.898 62.0131 7.394 61.7985 7.03C61.5931 6.65667 61.2991 6.39067 60.9165 6.232C60.5338 6.064 60.0811 5.98 59.5585 5.98C58.7185 5.98 58.0698 6.19933 57.6125 6.638C57.1551 7.07667 56.9265 7.702 56.9265 8.514H56.6605V6.988H56.9965C57.1458 6.39067 57.4631 5.90067 57.9485 5.518C58.4431 5.126 59.1058 4.93 59.9365 4.93C60.6551 4.93 61.2618 5.084 61.7565 5.392C62.2511 5.7 62.6291 6.12467 62.8905 6.666C63.1518 7.20733 63.2825 7.83267 63.2825 8.542C63.2825 9.242 63.1518 9.86267 62.8905 10.404C62.6291 10.9453 62.2418 11.37 61.7285 11.678C61.2245 11.986 60.5991 12.14 59.8525 12.14ZM56.8285 12H55.7785V2.62H56.9265V9.578L56.8285 9.76V12ZM67.8904 12.14C67.1344 12.14 66.4718 11.986 65.9024 11.678C65.3331 11.37 64.8898 10.9453 64.5724 10.404C64.2551 9.86267 64.0964 9.242 64.0964 8.542C64.0964 7.83267 64.2551 7.20733 64.5724 6.666C64.8898 6.12467 65.3331 5.7 65.9024 5.392C66.4718 5.084 67.1344 4.93 67.8904 4.93C68.6558 4.93 69.3184 5.084 69.8784 5.392C70.4478 5.7 70.8911 6.12467 71.2084 6.666C71.5258 7.20733 71.6844 7.83267 71.6844 8.542C71.6844 9.242 71.5258 9.86267 71.2084 10.404C70.8911 10.9453 70.4478 11.37 69.8784 11.678C69.3184 11.986 68.6558 12.14 67.8904 12.14ZM67.8904 11.118C68.8144 11.118 69.4864 10.8893 69.9064 10.432C70.3358 9.97467 70.5504 9.34467 70.5504 8.542C70.5504 7.73 70.3358 7.09533 69.9064 6.638C69.4864 6.18067 68.8144 5.952 67.8904 5.952C66.9758 5.952 66.3038 6.18067 65.8744 6.638C65.4451 7.09533 65.2304 7.73 65.2304 8.542C65.2304 9.34467 65.4451 9.97467 65.8744 10.432C66.3038 10.8893 66.9758 11.118 67.8904 11.118ZM76.3807 12.14C75.6247 12.14 74.962 11.986 74.3927 11.678C73.8233 11.37 73.38 10.9453 73.0627 10.404C72.7453 9.86267 72.5867 9.242 72.5867 8.542C72.5867 7.83267 72.7453 7.20733 73.0627 6.666C73.38 6.12467 73.8233 5.7 74.3927 5.392C74.962 5.084 75.6247 4.93 76.3807 4.93C77.146 4.93 77.8087 5.084 78.3687 5.392C78.938 5.7 79.3813 6.12467 79.6987 6.666C80.016 7.20733 80.1747 7.83267 80.1747 8.542C80.1747 9.242 80.016 9.86267 79.6987 10.404C79.3813 10.9453 78.938 11.37 78.3687 11.678C77.8087 11.986 77.146 12.14 76.3807 12.14ZM76.3807 11.118C77.3047 11.118 77.9767 10.8893 78.3967 10.432C78.826 9.97467 79.0407 9.34467 79.0407 8.542C79.0407 7.73 78.826 7.09533 78.3967 6.638C77.9767 6.18067 77.3047 5.952 76.3807 5.952C75.466 5.952 74.794 6.18067 74.3647 6.638C73.9353 7.09533 73.7207 7.73 73.7207 8.542C73.7207 9.34467 73.9353 9.97467 74.3647 10.432C74.794 10.8893 75.466 11.118 76.3807 11.118ZM88.3849 12H87.0269L84.8009 8.962H82.0709V7.926H84.8009L87.0409 5.07H88.3989L85.7389 8.388L88.3849 12ZM82.5749 12H81.4269V2.62H82.5749V12Z" fill="white"/>
</svg>
