<svg width="81" height="18" viewBox="0 0 81 18" fill="none" xmlns="http://www.w3.org/2000/svg">
<path d="M0 9C0 13.9706 4.02944 18 9 18C13.9706 18 18 13.9706 18 9C18 4.02944 13.9706 0 9 0C4.02944 0 0 4.02944 0 9Z" fill="#CFCFDD"/>
<path d="M13.5 9C13.5 6.525 11.475 4.5 9 4.5C6.525 4.5 4.5 6.525 4.5 9C4.5 11.25 6.13125 13.1062 8.26875 13.4437V10.2937H7.14375V9H8.26875V7.9875C8.26875 6.8625 8.94375 6.24375 9.95625 6.24375C10.4625 6.24375 10.9688 6.35625 10.9688 6.35625V7.48125H10.4062C9.84375 7.48125 9.675 7.81875 9.675 8.15625V9H10.9125L10.6875 10.2937H9.61875V13.5C11.8688 13.1625 13.5 11.25 13.5 9Z" fill="white"/>
<path d="M25.8907 13H24.9067V4.96H25.8907V13ZM30.8707 9.64H25.2307V8.752H30.8707V9.64ZM31.0507 5.848H25.2307V4.96H31.0507V5.848ZM37.4894 13H36.5894V11.404L36.5294 11.356V9.352C36.5294 8.8 36.3974 8.408 36.1334 8.176C35.8694 7.936 35.4254 7.816 34.8014 7.816C34.1934 7.816 33.7294 7.928 33.4094 8.152C33.0974 8.376 32.9414 8.74 32.9414 9.244V9.292H31.9574V9.244C31.9574 8.812 32.0694 8.424 32.2934 8.08C32.5254 7.736 32.8574 7.46 33.2894 7.252C33.7294 7.044 34.2534 6.94 34.8614 6.94C35.4774 6.94 35.9774 7.048 36.3614 7.264C36.7454 7.472 37.0294 7.756 37.2134 8.116C37.3974 8.468 37.4894 8.868 37.4894 9.316V13ZM33.7934 13.12C33.2094 13.12 32.7334 12.988 32.3654 12.724C32.0054 12.452 31.8254 12.076 31.8254 11.596C31.8254 11.276 31.9054 11.012 32.0654 10.804C32.2254 10.596 32.4494 10.436 32.7374 10.324C33.0254 10.204 33.3574 10.12 33.7334 10.072L36.6494 9.76V10.384L34.0334 10.672C33.6254 10.712 33.3174 10.792 33.1094 10.912C32.9094 11.032 32.8094 11.236 32.8094 11.524C32.8094 11.804 32.9054 12.016 33.0974 12.16C33.2974 12.304 33.6134 12.376 34.0454 12.376C34.5174 12.376 34.9374 12.308 35.3054 12.172C35.6814 12.036 35.9774 11.824 36.1934 11.536C36.4174 11.248 36.5294 10.88 36.5294 10.432L36.6974 10.48V11.44H36.5294C36.3614 11.968 36.0374 12.38 35.5574 12.676C35.0774 12.972 34.4894 13.12 33.7934 13.12ZM41.6971 13.12C41.0571 13.12 40.4971 12.988 40.0171 12.724C39.5451 12.46 39.1771 12.096 38.9131 11.632C38.6491 11.168 38.5171 10.636 38.5171 10.036C38.5171 9.428 38.6491 8.892 38.9131 8.428C39.1771 7.964 39.5451 7.6 40.0171 7.336C40.4971 7.072 41.0571 6.94 41.6971 6.94C42.2571 6.94 42.7611 7.044 43.2091 7.252C43.6651 7.452 44.0251 7.736 44.2891 8.104C44.5531 8.472 44.6851 8.896 44.6851 9.376V9.484H43.7131V9.412C43.7131 8.9 43.5331 8.508 43.1731 8.236C42.8211 7.964 42.3211 7.828 41.6731 7.828C40.9211 7.828 40.3691 8.02 40.0171 8.404C39.6731 8.788 39.5011 9.332 39.5011 10.036C39.5011 10.732 39.6731 11.272 40.0171 11.656C40.3691 12.04 40.9211 12.232 41.6731 12.232C42.3211 12.232 42.8211 12.096 43.1731 11.824C43.5331 11.552 43.7131 11.16 43.7131 10.648V10.576H44.6851V10.684C44.6851 11.164 44.5531 11.588 44.2891 11.956C44.0251 12.324 43.6651 12.612 43.2091 12.82C42.7611 13.02 42.2571 13.12 41.6971 13.12ZM48.6578 13.12C48.0178 13.12 47.4578 12.996 46.9778 12.748C46.5058 12.5 46.1378 12.144 45.8738 11.68C45.6178 11.216 45.4897 10.668 45.4897 10.036C45.4897 9.428 45.6178 8.892 45.8738 8.428C46.1378 7.964 46.5058 7.6 46.9778 7.336C47.4498 7.072 48.0058 6.94 48.6458 6.94C49.2298 6.94 49.7458 7.052 50.1938 7.276C50.6498 7.492 51.0058 7.808 51.2617 8.224C51.5178 8.632 51.6458 9.136 51.6458 9.736C51.6458 9.84 51.6418 9.94 51.6338 10.036C51.6258 10.124 51.6138 10.208 51.5978 10.288H46.1138V9.7H50.9858L50.6978 10.048C50.7058 9.976 50.7098 9.9 50.7098 9.82C50.7178 9.732 50.7218 9.648 50.7218 9.568C50.7218 8.96 50.5418 8.504 50.1818 8.2C49.8218 7.896 49.3018 7.744 48.6217 7.744C47.8458 7.744 47.2858 7.936 46.9418 8.32C46.5978 8.696 46.4258 9.224 46.4258 9.904V10.132C46.4258 10.812 46.5938 11.344 46.9298 11.728C47.2738 12.112 47.8418 12.304 48.6338 12.304C49.3058 12.304 49.7978 12.192 50.1098 11.968C50.4298 11.736 50.5898 11.416 50.5898 11.008V10.924H51.5738V11.008C51.5738 11.424 51.4458 11.792 51.1898 12.112C50.9418 12.432 50.5978 12.68 50.1578 12.856C49.7178 13.032 49.2178 13.12 48.6578 13.12ZM56.2307 13.12C55.5587 13.12 55.0027 12.96 54.5627 12.64C54.1227 12.312 53.8347 11.852 53.6987 11.26H53.4347L53.4947 10.12H53.7227C53.7227 10.568 53.8107 10.948 53.9867 11.26C54.1707 11.572 54.4307 11.812 54.7667 11.98C55.1027 12.14 55.4987 12.22 55.9547 12.22C56.4187 12.22 56.8147 12.152 57.1427 12.016C57.4787 11.872 57.7347 11.644 57.9107 11.332C58.0867 11.012 58.1747 10.58 58.1747 10.036C58.1747 9.484 58.0827 9.052 57.8987 8.74C57.7227 8.42 57.4707 8.192 57.1427 8.056C56.8147 7.912 56.4267 7.84 55.9787 7.84C55.2587 7.84 54.7027 8.028 54.3107 8.404C53.9187 8.78 53.7227 9.316 53.7227 10.012H53.4947V8.704H53.7827C53.9107 8.192 54.1827 7.772 54.5987 7.444C55.0227 7.108 55.5907 6.94 56.3027 6.94C56.9187 6.94 57.4387 7.072 57.8627 7.336C58.2867 7.6 58.6107 7.964 58.8347 8.428C59.0587 8.892 59.1707 9.428 59.1707 10.036C59.1707 10.636 59.0587 11.168 58.8347 11.632C58.6107 12.096 58.2787 12.46 57.8387 12.724C57.4067 12.988 56.8707 13.12 56.2307 13.12ZM53.6387 13H52.7387V4.96H53.7227V10.924L53.6387 11.08V13ZM63.1204 13.12C62.4724 13.12 61.9044 12.988 61.4164 12.724C60.9284 12.46 60.5484 12.096 60.2764 11.632C60.0044 11.168 59.8684 10.636 59.8684 10.036C59.8684 9.428 60.0044 8.892 60.2764 8.428C60.5484 7.964 60.9284 7.6 61.4164 7.336C61.9044 7.072 62.4724 6.94 63.1204 6.94C63.7764 6.94 64.3444 7.072 64.8244 7.336C65.3124 7.6 65.6924 7.964 65.9644 8.428C66.2364 8.892 66.3724 9.428 66.3724 10.036C66.3724 10.636 66.2364 11.168 65.9644 11.632C65.6924 12.096 65.3124 12.46 64.8244 12.724C64.3444 12.988 63.7764 13.12 63.1204 13.12ZM63.1204 12.244C63.9124 12.244 64.4884 12.048 64.8484 11.656C65.2164 11.264 65.4004 10.724 65.4004 10.036C65.4004 9.34 65.2164 8.796 64.8484 8.404C64.4884 8.012 63.9124 7.816 63.1204 7.816C62.3364 7.816 61.7604 8.012 61.3924 8.404C61.0244 8.796 60.8404 9.34 60.8404 10.036C60.8404 10.724 61.0244 11.264 61.3924 11.656C61.7604 12.048 62.3364 12.244 63.1204 12.244ZM70.3977 13.12C69.7497 13.12 69.1817 12.988 68.6937 12.724C68.2057 12.46 67.8257 12.096 67.5537 11.632C67.2817 11.168 67.1457 10.636 67.1457 10.036C67.1457 9.428 67.2817 8.892 67.5537 8.428C67.8257 7.964 68.2057 7.6 68.6937 7.336C69.1817 7.072 69.7497 6.94 70.3977 6.94C71.0537 6.94 71.6217 7.072 72.1017 7.336C72.5897 7.6 72.9697 7.964 73.2417 8.428C73.5137 8.892 73.6497 9.428 73.6497 10.036C73.6497 10.636 73.5137 11.168 73.2417 11.632C72.9697 12.096 72.5897 12.46 72.1017 12.724C71.6217 12.988 71.0537 13.12 70.3977 13.12ZM70.3977 12.244C71.1897 12.244 71.7657 12.048 72.1257 11.656C72.4937 11.264 72.6777 10.724 72.6777 10.036C72.6777 9.34 72.4937 8.796 72.1257 8.404C71.7657 8.012 71.1897 7.816 70.3977 7.816C69.6137 7.816 69.0377 8.012 68.6697 8.404C68.3017 8.796 68.1177 9.34 68.1177 10.036C68.1177 10.724 68.3017 11.264 68.6697 11.656C69.0377 12.048 69.6137 12.244 70.3977 12.244ZM80.6871 13H79.5231L77.6151 10.396H75.2751V9.508H77.6151L79.5351 7.06H80.6991L78.4191 9.904L80.6871 13ZM75.7071 13H74.7231V4.96H75.7071V13Z" fill="#1B1B1D"/>
</svg>
