<svg width="84" height="17" viewBox="0 0 84 17" fill="none" xmlns="http://www.w3.org/2000/svg">
<rect x="1" y="0.5" width="16" height="16" rx="8" fill="white"/>
<path d="M8.99913 9.99932C8.19592 9.99932 7.4998 9.35675 7.4998 8.49999C7.4998 7.69677 8.14237 7.00066 8.99913 7.00066C9.80235 7.00066 10.4985 7.64323 10.4985 8.49999C10.4985 9.3032 9.80235 9.99932 8.99913 9.99932Z" fill="#1B2BF3"/>
<path fill-rule="evenodd" clip-rule="evenodd" d="M10.8197 4.85875H7.17852C6.75014 4.9123 6.53595 4.96585 6.3753 5.0194C6.16111 5.07295 6.00047 5.18004 5.83983 5.34068C5.71271 5.4678 5.65265 5.59491 5.58006 5.74856C5.56093 5.78905 5.54087 5.83149 5.51854 5.87616C5.51026 5.90101 5.50069 5.92714 5.49044 5.95515C5.43442 6.1082 5.3579 6.31726 5.3579 6.67937V10.3206C5.41145 10.749 5.465 10.9632 5.51854 11.1238C5.57209 11.338 5.67919 11.4986 5.83983 11.6593C5.96694 11.7864 6.09406 11.8465 6.2477 11.9191C6.28823 11.9382 6.3306 11.9582 6.3753 11.9806C6.40016 11.9889 6.42629 11.9984 6.4543 12.0087C6.60734 12.0647 6.81641 12.1412 7.17852 12.1412H10.8197C11.2481 12.0877 11.4623 12.0341 11.623 11.9806C11.8372 11.927 11.9978 11.8199 12.1584 11.6593C12.2855 11.5322 12.3456 11.4051 12.4182 11.2514C12.4373 11.2109 12.4574 11.1685 12.4797 11.1238C12.488 11.099 12.4976 11.0728 12.5078 11.0448C12.5638 10.8918 12.6404 10.6827 12.6404 10.3206V6.67937C12.5868 6.25099 12.5333 6.0368 12.4797 5.87616C12.4262 5.66197 12.3191 5.50133 12.1584 5.34068C12.0313 5.21357 11.9042 5.15351 11.7506 5.08092C11.7101 5.0618 11.6676 5.04171 11.623 5.0194C11.5981 5.01111 11.572 5.00155 11.544 4.9913C11.3909 4.93528 11.1819 4.85875 10.8197 4.85875ZM8.99913 6.19744C7.71399 6.19744 6.69659 7.21485 6.69659 8.49999C6.69659 9.78513 7.71399 10.8025 8.99913 10.8025C10.2843 10.8025 11.3017 9.78513 11.3017 8.49999C11.3017 7.21485 10.2843 6.19744 8.99913 6.19744ZM11.8907 6.1439C11.8907 6.43963 11.651 6.67937 11.3552 6.67937C11.0595 6.67937 10.8197 6.43963 10.8197 6.1439C10.8197 5.84816 11.0595 5.60842 11.3552 5.60842C11.651 5.60842 11.8907 5.84816 11.8907 6.1439Z" fill="#1B2BF3"/>
<path d="M25.1602 12.5H24.1762V4.46H25.1602V12.5ZM32.4837 12.5H31.4997V9.2C31.4997 8.592 31.3517 8.128 31.0557 7.808C30.7597 7.488 30.2797 7.328 29.6157 7.328C28.9197 7.328 28.3957 7.528 28.0437 7.928C27.6917 8.32 27.5157 8.88 27.5157 9.608H27.2877L27.2637 8.42H27.4917C27.5637 8.084 27.6997 7.764 27.8997 7.46C28.1077 7.156 28.3837 6.912 28.7277 6.728C29.0797 6.536 29.5077 6.44 30.0117 6.44C30.5637 6.44 31.0237 6.556 31.3917 6.788C31.7597 7.02 32.0317 7.332 32.2077 7.724C32.3917 8.108 32.4837 8.536 32.4837 9.008V12.5ZM27.5157 12.5H26.5317V6.56H27.4317V8.444L27.5157 8.504V12.5ZM36.4967 12.62C35.5687 12.62 34.8487 12.44 34.3367 12.08C33.8247 11.72 33.5687 11.196 33.5687 10.508V10.484H34.5527V10.556C34.5527 11.02 34.7007 11.348 34.9967 11.54C35.3007 11.724 35.8007 11.816 36.4967 11.816C37.1367 11.816 37.5807 11.74 37.8287 11.588C38.0767 11.436 38.2007 11.204 38.2007 10.892C38.2007 10.596 38.1047 10.388 37.9127 10.268C37.7207 10.14 37.3887 10.04 36.9167 9.968L35.3087 9.74C34.7647 9.668 34.3327 9.512 34.0127 9.272C33.6927 9.032 33.5327 8.664 33.5327 8.168C33.5327 7.824 33.6367 7.524 33.8447 7.268C34.0607 7.004 34.3687 6.8 34.7687 6.656C35.1687 6.512 35.6487 6.44 36.2087 6.44C36.7847 6.44 37.2847 6.52 37.7087 6.68C38.1407 6.84 38.4727 7.076 38.7047 7.388C38.9367 7.7 39.0527 8.092 39.0527 8.564V8.588H38.0687V8.528C38.0687 8.248 38.0127 8.016 37.9007 7.832C37.7887 7.64 37.5967 7.496 37.3247 7.4C37.0527 7.304 36.6727 7.256 36.1847 7.256C35.5767 7.256 35.1447 7.332 34.8887 7.484C34.6327 7.628 34.5047 7.864 34.5047 8.192C34.5047 8.472 34.5927 8.676 34.7687 8.804C34.9527 8.924 35.2807 9.024 35.7527 9.104L37.1807 9.308C37.8367 9.388 38.3327 9.552 38.6687 9.8C39.0047 10.04 39.1727 10.404 39.1727 10.892C39.1727 11.26 39.0567 11.576 38.8247 11.84C38.6007 12.096 38.2847 12.292 37.8767 12.428C37.4767 12.556 37.0167 12.62 36.4967 12.62ZM43.9626 12.5H42.6546C42.0466 12.5 41.5626 12.356 41.2026 12.068C40.8506 11.772 40.6746 11.276 40.6746 10.58V5.18H41.6586V10.592C41.6586 10.992 41.7586 11.264 41.9586 11.408C42.1586 11.544 42.4666 11.612 42.8826 11.612H43.9626V12.5ZM43.9626 7.4H39.6426V6.56H43.9626V7.4ZM50.2238 12.5H49.3238V10.904L49.2638 10.856V8.852C49.2638 8.3 49.1318 7.908 48.8678 7.676C48.6038 7.436 48.1598 7.316 47.5358 7.316C46.9278 7.316 46.4638 7.428 46.1438 7.652C45.8318 7.876 45.6758 8.24 45.6758 8.744V8.792H44.6918V8.744C44.6918 8.312 44.8038 7.924 45.0278 7.58C45.2598 7.236 45.5918 6.96 46.0238 6.752C46.4638 6.544 46.9878 6.44 47.5958 6.44C48.2118 6.44 48.7118 6.548 49.0958 6.764C49.4798 6.972 49.7638 7.256 49.9478 7.616C50.1318 7.968 50.2238 8.368 50.2238 8.816V12.5ZM46.5278 12.62C45.9438 12.62 45.4678 12.488 45.0998 12.224C44.7398 11.952 44.5598 11.576 44.5598 11.096C44.5598 10.776 44.6398 10.512 44.7998 10.304C44.9598 10.096 45.1838 9.936 45.4718 9.824C45.7598 9.704 46.0918 9.62 46.4678 9.572L49.3838 9.26V9.884L46.7678 10.172C46.3598 10.212 46.0518 10.292 45.8438 10.412C45.6438 10.532 45.5438 10.736 45.5438 11.024C45.5438 11.304 45.6398 11.516 45.8318 11.66C46.0318 11.804 46.3478 11.876 46.7798 11.876C47.2518 11.876 47.6718 11.808 48.0398 11.672C48.4158 11.536 48.7118 11.324 48.9278 11.036C49.1518 10.748 49.2638 10.38 49.2638 9.932L49.4318 9.98V10.94H49.2638C49.0958 11.468 48.7718 11.88 48.2918 12.176C47.8118 12.472 47.2238 12.62 46.5278 12.62ZM54.5155 14.66C53.9715 14.66 53.4795 14.572 53.0395 14.396C52.6075 14.22 52.2635 13.968 52.0075 13.64C51.7595 13.312 51.6355 12.916 51.6355 12.452H52.6195C52.6195 12.78 52.6915 13.044 52.8355 13.244C52.9795 13.444 53.1955 13.588 53.4835 13.676C53.7715 13.772 54.1315 13.82 54.5635 13.82C55.0595 13.82 55.4555 13.764 55.7515 13.652C56.0555 13.54 56.2755 13.348 56.4115 13.076C56.5475 12.804 56.6155 12.428 56.6155 11.948V8.516L56.6995 8.42V6.56H57.5995V11.9C57.5995 12.556 57.4675 13.084 57.2035 13.484C56.9475 13.892 56.5875 14.188 56.1235 14.372C55.6675 14.564 55.1315 14.66 54.5155 14.66ZM54.0955 11.996C53.5035 11.996 52.9955 11.88 52.5715 11.648C52.1475 11.408 51.8195 11.08 51.5875 10.664C51.3635 10.248 51.2515 9.768 51.2515 9.224C51.2515 8.672 51.3675 8.188 51.5995 7.772C51.8395 7.356 52.1795 7.032 52.6195 6.8C53.0595 6.56 53.5835 6.44 54.1915 6.44C54.8155 6.44 55.3515 6.584 55.7995 6.872C56.2475 7.152 56.5275 7.552 56.6395 8.072H56.9035L56.8435 9.068H56.6155C56.6155 8.692 56.5235 8.376 56.3395 8.12C56.1635 7.856 55.9155 7.656 55.5955 7.52C55.2755 7.376 54.8915 7.304 54.4435 7.304C54.0035 7.304 53.6195 7.368 53.2915 7.496C52.9635 7.616 52.7075 7.816 52.5235 8.096C52.3395 8.368 52.2475 8.744 52.2475 9.224C52.2475 9.696 52.3355 10.072 52.5115 10.352C52.6955 10.632 52.9475 10.832 53.2675 10.952C53.5875 11.072 53.9595 11.132 54.3835 11.132C55.0875 11.132 55.6355 10.972 56.0275 10.652C56.4195 10.324 56.6155 9.86 56.6155 9.26H56.8435V10.424H56.5555C56.4355 10.88 56.1635 11.256 55.7395 11.552C55.3235 11.848 54.7755 11.996 54.0955 11.996ZM59.9532 12.5H58.9692V6.56H59.8692V8.24L59.9532 8.3V12.5ZM59.9532 9.248H59.7012V8.168H59.9292C59.9852 7.848 60.0972 7.56 60.2652 7.304C60.4412 7.04 60.6732 6.832 60.9612 6.68C61.2492 6.52 61.5972 6.44 62.0052 6.44C62.4692 6.44 62.8452 6.54 63.1332 6.74C63.4212 6.932 63.6332 7.188 63.7692 7.508C63.9052 7.828 63.9732 8.176 63.9732 8.552V9.188H62.9892V8.72C62.9892 8.24 62.8812 7.884 62.6652 7.652C62.4492 7.412 62.0932 7.292 61.5972 7.292C61.0212 7.292 60.6012 7.46 60.3372 7.796C60.0812 8.132 59.9532 8.616 59.9532 9.248ZM70.2628 12.5H69.3628V10.904L69.3028 10.856V8.852C69.3028 8.3 69.1708 7.908 68.9068 7.676C68.6428 7.436 68.1988 7.316 67.5748 7.316C66.9668 7.316 66.5028 7.428 66.1828 7.652C65.8708 7.876 65.7148 8.24 65.7148 8.744V8.792H64.7308V8.744C64.7308 8.312 64.8428 7.924 65.0668 7.58C65.2988 7.236 65.6308 6.96 66.0628 6.752C66.5028 6.544 67.0268 6.44 67.6348 6.44C68.2508 6.44 68.7508 6.548 69.1348 6.764C69.5188 6.972 69.8028 7.256 69.9868 7.616C70.1708 7.968 70.2628 8.368 70.2628 8.816V12.5ZM66.5668 12.62C65.9828 12.62 65.5068 12.488 65.1388 12.224C64.7788 11.952 64.5988 11.576 64.5988 11.096C64.5988 10.776 64.6788 10.512 64.8388 10.304C64.9988 10.096 65.2228 9.936 65.5108 9.824C65.7988 9.704 66.1308 9.62 66.5068 9.572L69.4228 9.26V9.884L66.8068 10.172C66.3988 10.212 66.0908 10.292 65.8828 10.412C65.6828 10.532 65.5828 10.736 65.5828 11.024C65.5828 11.304 65.6788 11.516 65.8708 11.66C66.0708 11.804 66.3868 11.876 66.8188 11.876C67.2908 11.876 67.7108 11.808 68.0788 11.672C68.4548 11.536 68.7508 11.324 68.9668 11.036C69.1908 10.748 69.3028 10.38 69.3028 9.932L69.4708 9.98V10.94H69.3028C69.1348 11.468 68.8108 11.88 68.3308 12.176C67.8508 12.472 67.2628 12.62 66.5668 12.62ZM81.8625 12.5H80.8785V9.2C80.8785 8.56 80.7385 8.088 80.4585 7.784C80.1865 7.48 79.7465 7.328 79.1385 7.328C78.4425 7.328 77.9465 7.52 77.6505 7.904C77.3625 8.288 77.2185 8.856 77.2185 9.608H76.9905L76.9425 8.408H77.1705C77.2265 8.064 77.3425 7.744 77.5185 7.448C77.7025 7.152 77.9585 6.912 78.2865 6.728C78.6145 6.536 79.0265 6.44 79.5225 6.44C80.0425 6.44 80.4745 6.552 80.8185 6.776C81.1705 7 81.4305 7.304 81.5985 7.688C81.7745 8.072 81.8625 8.512 81.8625 9.008V12.5ZM72.5625 12.5H71.5785V6.56H72.4785V8.444L72.5625 8.504V12.5ZM77.2185 12.5H76.2345V9.2C76.2345 8.56 76.0945 8.088 75.8145 7.784C75.5345 7.48 75.0905 7.328 74.4825 7.328C73.7865 7.328 73.2905 7.52 72.9945 7.904C72.7065 8.288 72.5625 8.856 72.5625 9.608H72.3345L72.3105 8.348H72.5265C72.5825 8.012 72.6985 7.7 72.8745 7.412C73.0505 7.124 73.2985 6.892 73.6185 6.716C73.9465 6.532 74.3545 6.44 74.8425 6.44C75.3625 6.44 75.7905 6.552 76.1265 6.776C76.4705 7 76.7265 7.308 76.8945 7.7C77.0625 8.084 77.1465 8.52 77.1465 9.008H77.2185V12.5Z" fill="white"/>
</svg>
