<svg width="16" height="16" viewBox="0 0 16 16" fill="none" xmlns="http://www.w3.org/2000/svg">
<path d="M12.6667 5.3335C13.7713 5.3335 14.6667 4.43807 14.6667 3.3335C14.6667 2.22893 13.7713 1.3335 12.6667 1.3335C11.5622 1.3335 10.6667 2.22893 10.6667 3.3335C10.6667 4.43807 11.5622 5.3335 12.6667 5.3335Z" fill="#1B2BF3"/>
<path d="M13.1999 6.28C13.1866 6.28 13.1733 6.28667 13.1599 6.28667C13.0933 6.3 13.0266 6.30667 12.9533 6.32C12.6733 6.34667 12.3733 6.33333 12.0666 6.27333C11.9866 6.25333 11.9199 6.24 11.8466 6.21333C11.6266 6.16 11.4199 6.07333 11.2266 5.96C11.1466 5.92 11.0666 5.86667 10.9933 5.82C10.6733 5.6 10.3999 5.32667 10.1799 5.00667C10.1333 4.93333 10.0799 4.85333 10.0399 4.77333C9.92659 4.58 9.83992 4.37333 9.78659 4.15333C9.75992 4.08 9.74659 4.01333 9.72659 3.93333C9.66659 3.62667 9.65325 3.32667 9.67992 3.04667C9.69325 2.97333 9.69992 2.90667 9.71325 2.84C9.71325 2.82667 9.71992 2.81333 9.71992 2.8C9.79992 2.38667 9.49325 2 9.06659 2H5.01325C4.91992 2 4.82659 2.00667 4.73992 2.01333C4.65992 2.02 4.58659 2.02667 4.50659 2.04C4.42659 2.04667 4.34659 2.06 4.27325 2.07333C2.66659 2.30667 1.63992 3.32667 1.40659 4.94C1.39325 5.01333 1.37992 5.09333 1.37325 5.17333C1.35992 5.25333 1.35325 5.32667 1.34659 5.40667C1.33992 5.49333 1.33325 5.58667 1.33325 5.68V10.9867C1.33325 11.08 1.33992 11.1733 1.34659 11.26C1.35325 11.34 1.35992 11.4133 1.37325 11.4933C1.37992 11.5733 1.39325 11.6533 1.40659 11.7267C1.63992 13.34 2.66659 14.36 4.27325 14.5933C4.34659 14.6067 4.42659 14.62 4.50659 14.6267C4.58659 14.64 4.65992 14.6467 4.73992 14.6533C4.82659 14.66 4.91992 14.6667 5.01325 14.6667H10.3199C10.4133 14.6667 10.5066 14.66 10.5933 14.6533C10.6733 14.6467 10.7466 14.64 10.8266 14.6267C10.9066 14.62 10.9866 14.6067 11.0599 14.5933C12.6666 14.36 13.6933 13.34 13.9266 11.7267C13.9399 11.6533 13.9533 11.5733 13.9599 11.4933C13.9733 11.4133 13.9799 11.34 13.9866 11.26C13.9933 11.1733 13.9999 11.08 13.9999 10.9867V6.93333C13.9999 6.50667 13.6133 6.2 13.1999 6.28ZM4.49992 8.33333H7.83325C8.10659 8.33333 8.33325 8.56 8.33325 8.83333C8.33325 9.10667 8.10659 9.33333 7.83325 9.33333H4.49992C4.22659 9.33333 3.99992 9.10667 3.99992 8.83333C3.99992 8.56 4.22659 8.33333 4.49992 8.33333ZM10.4999 12H4.49992C4.22659 12 3.99992 11.7733 3.99992 11.5C3.99992 11.2267 4.22659 11 4.49992 11H10.4999C10.7733 11 10.9999 11.2267 10.9999 11.5C10.9999 11.7733 10.7733 12 10.4999 12Z" fill="#1B2BF3"/>
</svg>
