<svg width="16" height="16" viewBox="0 0 16 16" fill="none" xmlns="http://www.w3.org/2000/svg">
<path d="M10.792 1.33337H5.20536C2.7787 1.33337 1.33203 2.78004 1.33203 5.20671V10.7867C1.33203 13.22 2.7787 14.6667 5.20536 14.6667H10.7854C13.212 14.6667 14.6587 13.22 14.6587 10.7934V5.20671C14.6654 2.78004 13.2187 1.33337 10.792 1.33337ZM10.912 9.75337L9.43203 11.2334C9.07203 11.5934 8.60536 11.7667 8.1387 11.7667C7.67203 11.7667 7.1987 11.5867 6.84537 11.2334C6.13203 10.52 6.13203 9.35337 6.84537 8.64004L7.78537 7.70004C7.9787 7.50671 8.2987 7.50671 8.49203 7.70004C8.68536 7.89337 8.68536 8.21337 8.49203 8.40671L7.55203 9.34671C7.22536 9.67337 7.22536 10.2 7.55203 10.5267C7.8787 10.8534 8.40536 10.8534 8.73203 10.5267L10.212 9.04671C10.6187 8.64004 10.8454 8.09337 10.8454 7.51337C10.8454 6.93337 10.6187 6.39337 10.212 5.98004C9.39203 5.16004 7.96536 5.16004 7.14536 5.98004L5.52536 7.60004C4.83203 8.29337 4.83203 9.42671 5.52536 10.1267C5.7187 10.32 5.7187 10.64 5.52536 10.8334C5.33203 11.0267 5.01203 11.0267 4.8187 10.8334C3.73203 9.74671 3.73203 7.98004 4.8187 6.89337L6.43203 5.28004C7.03203 4.68004 7.82537 4.35337 8.67203 4.35337C9.5187 4.35337 10.312 4.68004 10.912 5.28004C11.512 5.88004 11.8387 6.67337 11.8387 7.52004C11.8387 8.36671 11.512 9.16004 10.912 9.75337Z" fill="#8C91FF"/>
</svg>
