<svg width="90" height="90" viewBox="0 0 90 90" fill="none" xmlns="http://www.w3.org/2000/svg">
<g style="mix-blend-mode:screen" opacity="0.5" clip-path="url(#clip0_536_12519)">
<path d="M75.3402 83.0363L7.06776 75.4696C3.78523 75.1059 1.41929 72.15 1.78299 68.8675L8.05811 12.2485C8.42199 8.96592 11.3779 6.59981 14.6602 6.96369L82.9326 14.5304C86.2152 14.8943 88.5813 17.8502 88.2174 21.1325L81.9423 77.7515C81.5786 81.034 78.6227 83.4002 75.3402 83.0363Z" fill="url(#paint0_linear_536_12519)"/>
<path d="M88.2155 21.1327L85.7414 43.4622L80.2422 14.2327L82.9318 14.5305C86.2132 14.8937 88.5788 17.8493 88.2155 21.1327Z" fill="url(#paint1_linear_536_12519)"/>
<path d="M85.1247 72.5188L17.6183 85.2183C14.3727 85.8289 11.2465 83.6927 10.6359 80.4471L0.104165 24.4634C-0.506423 21.2177 1.62975 18.0915 4.8754 17.4809L72.3818 4.78141C75.6274 4.17082 78.7536 6.307 79.3642 9.55265L89.8959 65.5364C90.5065 68.7822 88.3703 71.9084 85.1247 72.5188Z" fill="url(#paint2_linear_536_12519)"/>
<path d="M80.8047 17.214V73.3315L85.124 72.5188C88.3696 71.9082 90.5058 68.782 89.8952 65.5364L80.8047 17.214Z" fill="url(#paint3_linear_536_12519)"/>
<path d="M10.3164 78.7388L10.6378 80.447C11.2483 83.6927 14.3745 85.8288 17.6202 85.2182L52.0628 78.7388H10.3164Z" fill="url(#paint4_linear_536_12519)"/>
<path d="M74.8264 79.088H6.13613C2.83348 79.088 0.15625 76.4108 0.15625 73.1081V16.1424C0.15625 12.8397 2.83348 10.1625 6.13613 10.1625H74.8264C78.1291 10.1625 80.8063 12.8397 80.8063 16.1424V73.1081C80.8063 76.4108 78.1291 79.088 74.8264 79.088Z" fill="url(#paint5_linear_536_12519)"/>
<path d="M69.2263 73.4692H11.7354C8.97129 73.4692 6.73047 71.2284 6.73047 68.4643V20.7864C6.73047 18.0223 8.97129 15.7815 11.7354 15.7815H69.2263C71.9904 15.7815 74.2312 18.0223 74.2312 20.7864V68.4643C74.2312 71.2284 71.9904 73.4692 69.2263 73.4692Z" fill="url(#paint6_linear_536_12519)"/>
<path d="M44.4841 73.4692H11.7369C8.97235 73.4692 6.73047 71.2291 6.73047 68.4647V60.6488L15.0391 50.5497C17.7811 47.2139 22.8849 47.2139 25.6289 50.5497L30.8021 56.8391L44.4841 73.4692Z" fill="url(#paint7_linear_536_12519)"/>
<path d="M74.2337 55.8969V68.4646C74.2337 71.2292 71.9918 73.4691 69.2272 73.4691H17.1211L30.8032 56.8391L47.6113 36.4068C50.3533 33.0729 55.4592 33.0729 58.2012 36.4068L74.2337 55.8969Z" fill="url(#paint8_linear_536_12519)"/>
<path d="M24.2186 34.9655C28.1384 34.9655 31.316 31.7878 31.316 27.868C31.316 23.9482 28.1384 20.7705 24.2186 20.7705C20.2987 20.7705 17.1211 23.9482 17.1211 27.868C17.1211 31.7878 20.2987 34.9655 24.2186 34.9655Z" fill="url(#paint9_linear_536_12519)"/>
</g>
<defs>
<linearGradient id="paint0_linear_536_12519" x1="22.9967" y1="17.5009" x2="73.7541" y2="80.8903" gradientUnits="userSpaceOnUse">
<stop stop-color="#585858"/>
<stop offset="0.4112" stop-color="#616161"/>
<stop offset="0.7781" stop-color="#676767"/>
<stop offset="1" stop-color="#6A6A6A"/>
</linearGradient>
<linearGradient id="paint1_linear_536_12519" x1="86.5549" y1="28.0614" x2="82.3095" y2="28.998" gradientUnits="userSpaceOnUse">
<stop stop-color="#444444" stop-opacity="0"/>
<stop offset="1" stop-color="#313131"/>
</linearGradient>
<linearGradient id="paint2_linear_536_12519" x1="15.9238" y1="25.1334" x2="82.9879" y2="70.9529" gradientUnits="userSpaceOnUse">
<stop stop-color="#717171"/>
<stop offset="0.2157" stop-color="#7D7D7D"/>
<stop offset="0.5613" stop-color="#737373"/>
<stop offset="0.8347" stop-color="#656565"/>
<stop offset="1" stop-color="#606060"/>
</linearGradient>
<linearGradient id="paint3_linear_536_12519" x1="86.7669" y1="45.2728" x2="79.5237" y2="45.2728" gradientUnits="userSpaceOnUse">
<stop stop-color="#717171" stop-opacity="0"/>
<stop offset="0.2354" stop-color="#676767" stop-opacity="0.235"/>
<stop offset="0.6035" stop-color="#404040" stop-opacity="0.604"/>
<stop offset="0.8679" stop-color="#1F1F1F" stop-opacity="0.868"/>
<stop offset="1" stop-color="#121212"/>
</linearGradient>
<linearGradient id="paint4_linear_536_12519" x1="31.1895" y1="82.397" x2="31.1895" y2="78.1059" gradientUnits="userSpaceOnUse">
<stop stop-color="#717171" stop-opacity="0"/>
<stop offset="0.2354" stop-color="#676767" stop-opacity="0.235"/>
<stop offset="0.6035" stop-color="#404040" stop-opacity="0.604"/>
<stop offset="0.8679" stop-color="#1F1F1F" stop-opacity="0.868"/>
<stop offset="1" stop-color="#121212"/>
</linearGradient>
<linearGradient id="paint5_linear_536_12519" x1="15.5771" y1="19.721" x2="72.995" y2="77.1389" gradientUnits="userSpaceOnUse">
<stop stop-color="#B6B6B6"/>
<stop offset="1" stop-color="#A9A9A9"/>
</linearGradient>
<linearGradient id="paint6_linear_536_12519" x1="19.9008" y1="17.8508" x2="75.9027" y2="90.7095" gradientUnits="userSpaceOnUse">
<stop stop-color="#474747"/>
<stop offset="0.2969" stop-color="#505050"/>
<stop offset="0.7345" stop-color="#5A5A5A"/>
<stop offset="1" stop-color="#5E5E5E"/>
</linearGradient>
<linearGradient id="paint7_linear_536_12519" x1="13.3404" y1="55.8581" x2="37.8747" y2="87.7774" gradientUnits="userSpaceOnUse">
<stop stop-color="#808080"/>
<stop offset="0.2154" stop-color="#8C8C8C" stop-opacity="0.784"/>
<stop offset="0.5604" stop-color="#838383" stop-opacity="0.439"/>
<stop offset="0.8334" stop-color="#757575" stop-opacity="0.165"/>
<stop offset="0.9985" stop-color="#707070" stop-opacity="0"/>
</linearGradient>
<linearGradient id="paint8_linear_536_12519" x1="35.0888" y1="50.907" x2="64.6789" y2="89.4037" gradientUnits="userSpaceOnUse">
<stop stop-color="#808080"/>
<stop offset="0.2157" stop-color="#8C8C8C"/>
<stop offset="0.5613" stop-color="#838383"/>
<stop offset="0.8347" stop-color="#757575"/>
<stop offset="1" stop-color="#707070"/>
</linearGradient>
<linearGradient id="paint9_linear_536_12519" x1="20.6922" y1="23.2803" x2="30.2879" y2="35.7645" gradientUnits="userSpaceOnUse">
<stop stop-color="#8B8B8B"/>
<stop offset="0.3043" stop-color="#888888"/>
<stop offset="0.8558" stop-color="#7E7E7E"/>
<stop offset="1" stop-color="#7B7B7B"/>
</linearGradient>
<clipPath id="clip0_536_12519">
<rect width="90" height="90" fill="white"/>
</clipPath>
</defs>
</svg>
