<svg width="149" height="36" viewBox="0 0 149 36" fill="none" xmlns="http://www.w3.org/2000/svg">
<g clip-path="url(#clip0_1138_10713)">
<path d="M58.6958 12.9758H63.402V27.5908H58.6958V12.9758Z" fill="white"/>
<path d="M64.3838 12.9757H68.9167V14.9739H69.0032C70.1004 13.4038 71.5151 12.5476 73.5651 12.5476C76.7987 12.5476 78.7042 14.8311 78.7042 18.0853V27.5907H73.9981V19.0273C73.9981 17.4858 73.2186 16.4295 71.6884 16.4295C70.1294 16.4295 69.0899 17.7142 69.0899 19.5124V27.5907H64.3838V12.9757Z" fill="white"/>
<path d="M63.8711 9.06619C63.8711 7.52467 62.6071 6.27518 61.0481 6.27518C59.489 6.27518 58.2251 7.52467 58.2251 9.06619C58.2251 10.6076 59.489 11.8571 61.0481 11.8571C62.6071 11.8571 63.8711 10.6076 63.8711 9.06619Z" fill="white"/>
<path d="M111.804 12.7651C111.67 12.7532 111.516 12.7478 111.336 12.7478C109.546 12.7478 108.333 13.5185 107.294 15.2598H107.207V12.9762H102.703V27.5911H107.409V21.0258C107.409 17.9838 109.113 16.5742 111.804 16.8202V12.7651Z" fill="white"/>
<path d="M134.9 18.3718C133.023 18.0294 131.348 17.8866 131.348 16.8591C131.348 15.9455 132.244 15.5174 133.398 15.5174C134.698 15.5174 135.593 15.917 135.766 17.2302H140.097C139.866 14.3471 137.614 12.5487 133.427 12.5487C129.934 12.5487 127.047 14.1473 127.047 17.2302C127.047 20.6553 129.789 21.3405 132.359 21.7687C134.322 22.1113 136.112 22.254 136.112 23.567C136.112 24.5091 135.217 25.0229 133.803 25.0229C132.383 25.0229 131.445 24.4291 131.157 23.2246H126.672C127.002 26.229 129.67 28.0486 133.832 28.0486C137.7 28.0486 140.559 26.393 140.559 23.1961C140.559 19.4565 137.498 18.8 134.9 18.3718Z" fill="white"/>
<path d="M119.106 15.8593C120.636 15.8593 121.733 16.9726 121.906 18.714H116.074C116.392 16.9726 117.316 15.8593 119.106 15.8593ZM119.366 24.6796C117.431 24.6796 116.334 23.4523 116.045 21.4827H126.67C126.699 18.5141 125.833 15.9735 124.072 14.3751C122.801 13.2333 121.127 12.5482 119.019 12.5482C114.515 12.5482 111.426 15.8878 111.426 20.2553C111.426 24.6796 114.429 28.0195 119.308 28.0195C121.184 28.0195 122.686 27.5343 123.927 26.6779C125.227 25.793 126.093 24.537 126.41 23.224H121.82C121.415 24.1374 120.607 24.6796 119.366 24.6796Z" fill="white"/>
<path d="M148.847 24.1451C148.629 24.1536 148.336 24.1662 148.067 24.1662C147.056 24.1662 146.421 23.8806 146.421 22.7388V15.888H148.847V12.9765H146.421V8.35222H141.831V12.9765H140.386V15.888H141.831V23.7379C141.831 26.878 143.794 27.7627 146.537 27.7627C147.583 27.7627 148.374 27.6852 148.847 27.5941V24.1451Z" fill="white"/>
<path d="M87.1098 24.1508C86.9221 24.158 86.7054 24.1652 86.5029 24.1652C85.4925 24.1652 84.8572 23.8796 84.8572 22.7378V15.887H87.1098V12.9755H84.8572V8.35124H80.2666V12.9755H78.7358V15.887H80.2666V23.7369C80.2666 26.877 82.2298 27.7617 84.9727 27.7617C85.9008 27.7617 86.6275 27.7007 87.1098 27.6233V24.1508Z" fill="white"/>
<path d="M97.3599 18.7138C97.1868 16.9726 96.0894 15.8592 94.5592 15.8592C92.7692 15.8592 91.8453 16.9726 91.5277 18.7138H97.3599ZM86.8794 20.2552C86.8794 15.8878 89.9686 12.5482 94.4727 12.5482C96.5803 12.5482 98.255 13.2332 99.5253 14.375C101.287 15.9735 102.153 18.514 102.124 21.4827H91.499C91.7875 23.4522 92.8847 24.6796 94.8192 24.6796C96.0606 24.6796 96.8691 24.1373 97.2731 23.2239H101.864C101.546 24.5369 100.68 25.7929 99.3808 26.6779C98.1395 27.5341 96.6381 28.0194 94.7614 28.0194C89.882 28.0194 86.8794 24.6796 86.8794 20.2552Z" fill="white"/>
<path d="M50.5226 16.7724C52.3705 16.7724 53.4099 15.6876 53.4099 14.0604C53.4099 12.4335 52.3415 11.4345 50.5226 11.4345H46.9134V16.7724H50.5226ZM42.1489 7.18127H50.3214C52.8331 7.18127 54.6809 7.86628 55.9513 9.06522C57.2795 10.2925 58.0302 12.0339 58.0302 14.0891C58.0302 17.9997 55.2873 20.7687 51.043 20.7687H46.9134V27.5908H42.1489V7.18127Z" fill="white"/>
<path fill-rule="evenodd" clip-rule="evenodd" d="M-0.0947266 18.0283C-0.0947266 8.36334 7.74029 0.52832 17.4053 0.52832C27.0703 0.52832 34.9053 8.36334 34.9053 18.0283C34.9053 27.6933 27.0703 35.5283 17.4053 35.5283C7.74029 35.5283 -0.0947266 27.6933 -0.0947266 18.0283ZM8.65527 18.0283C8.65527 13.2158 12.5928 9.27832 17.4053 9.27832C22.2178 9.27832 26.1553 13.2158 26.0459 17.5908C26.0459 22.4033 22.1084 26.3408 17.2959 26.3408C16.4209 26.3408 15.5459 26.2314 14.7803 26.0127C15.1084 25.4658 15.4365 24.8096 15.6553 24.1533C15.7646 23.7158 16.3115 21.7471 16.3115 21.7471C16.6396 22.2939 17.5146 22.8408 18.499 22.8408C21.3428 22.8408 23.2021 20.2158 23.2021 16.8252C23.2021 14.2002 21.0146 11.7939 17.624 11.7939C13.4678 11.7939 11.3896 14.7471 11.3896 17.2627C11.3896 18.7939 11.9365 20.1064 13.1397 20.6533C13.3584 20.7627 13.4678 20.6533 13.5771 20.4346C13.6865 20.3252 13.7959 19.8877 13.7959 19.7783C13.8732 19.6236 13.8412 19.5783 13.7771 19.4877C13.7506 19.4502 13.7186 19.4049 13.6865 19.3408C13.3584 18.9033 13.1397 18.3564 13.1397 17.5908C13.1397 15.4033 14.7803 13.4346 17.4053 13.4346C19.7021 13.4346 21.0147 14.8564 21.0147 16.8252C21.0147 19.4502 19.9209 21.5283 18.2803 21.5283C17.2959 21.5283 16.6396 20.7627 16.8584 19.8877C16.9497 19.4311 17.0982 18.9555 17.2402 18.5006C17.4384 17.8657 17.624 17.2712 17.624 16.8252C17.624 16.0596 17.1865 15.5127 16.4209 15.5127C15.5459 15.5127 14.7803 16.4971 14.7803 17.8096C14.7803 18.6846 15.1084 19.2314 15.1084 19.2314C15.1084 19.2314 14.2334 23.2783 14.0146 24.0439C13.9053 24.7001 13.9053 25.3563 13.9053 26.0125C10.8428 24.7 8.65527 21.6377 8.65527 18.0283Z" fill="white"/>
</g>
<defs>
<clipPath id="clip0_1138_10713">
<rect width="149" height="36" fill="white" transform="translate(-0.000488281 0.000244141)"/>
</clipPath>
</defs>
</svg>
