<svg width="16" height="16" viewBox="0 0 16 16" fill="none" xmlns="http://www.w3.org/2000/svg">
<path d="M10.5187 1.33301H5.4787C2.9587 1.33301 2.33203 2.00634 2.33203 4.69301V12.1997C2.33203 13.973 3.30536 14.393 4.48536 13.1263L4.49203 13.1197C5.0387 12.5397 5.87203 12.5863 6.34537 13.2197L7.0187 14.1197C7.5587 14.833 8.43203 14.833 8.97203 14.1197L9.64536 13.2197C10.1254 12.5797 10.9587 12.533 11.5054 13.1197C12.692 14.3863 13.6587 13.9663 13.6587 12.193V4.69301C13.6654 2.00634 13.0387 1.33301 10.5187 1.33301ZM5.9987 4.66634C6.36536 4.66634 6.66536 4.96634 6.66536 5.33301C6.66536 5.69967 6.37203 5.99967 5.9987 5.99967C5.62536 5.99967 5.33203 5.69967 5.33203 5.33301C5.33203 4.96634 5.62536 4.66634 5.9987 4.66634ZM9.9987 9.33301C9.62536 9.33301 9.33203 9.03301 9.33203 8.66634C9.33203 8.29967 9.63203 7.99967 9.9987 7.99967C10.3654 7.99967 10.6654 8.29967 10.6654 8.66634C10.6654 9.03301 10.372 9.33301 9.9987 9.33301ZM10.5987 5.05967L6.11203 9.54634C6.01203 9.64634 5.88537 9.69301 5.7587 9.69301C5.63203 9.69301 5.50536 9.64634 5.40536 9.54634C5.21203 9.35301 5.21203 9.03301 5.40536 8.83967L9.89203 4.35301C10.0854 4.15967 10.4054 4.15967 10.5987 4.35301C10.792 4.54634 10.792 4.86634 10.5987 5.05967Z" fill="#B7B7C2"/>
</svg>
