<svg width="130" height="130" viewBox="0 0 130 130" fill="none" xmlns="http://www.w3.org/2000/svg">
<g clip-path="url(#clip0_536_11397)">
<path d="M30.0186 128.984C14.0263 128.984 1.01562 115.974 1.01562 99.9814V30.0186C1.01562 14.0263 14.0263 1.01562 30.0186 1.01562H99.9817C115.974 1.01562 128.984 14.0263 128.984 30.0186V99.9817C128.984 115.974 115.974 128.984 99.9814 128.984H30.0186Z" fill="url(#paint0_linear_536_11397)"/>
<path opacity="0.5" d="M130 64.8555V99.9809C130 116.561 116.56 130 99.9802 130H73.1754L37.5508 94.3756L101.587 36.4434L130 64.8555Z" fill="url(#paint1_linear_536_11397)"/>
<path d="M101.437 36.5527L44.4336 77.1523L64.5282 97.247L101.437 36.5527Z" fill="url(#paint2_linear_536_11397)"/>
<path d="M37.4609 69.3605V94.3763L44.4327 77.1523L101.436 36.5527L37.4609 69.3605Z" fill="url(#paint3_linear_536_11397)"/>
<path d="M23.5195 56.2373L37.4628 69.3605L101.438 36.5527L23.5195 56.2373Z" fill="url(#paint4_linear_536_11397)"/>
<path d="M37.4609 94.3763L51.1907 83.9106L44.4327 77.1523L37.4609 94.3763Z" fill="url(#paint5_linear_536_11397)"/>
<path d="M101.437 36.5527L44.4336 77.1523L64.5282 97.247L101.437 36.5527Z" fill="white"/>
<path d="M37.4609 69.3605V94.3763L44.4327 77.1523L101.436 36.5527L37.4609 69.3605Z" fill="url(#paint6_linear_536_11397)"/>
<path d="M23.5195 56.2373L37.4628 69.3605L101.438 36.5527L23.5195 56.2373Z" fill="white"/>
</g>
<defs>
<linearGradient id="paint0_linear_536_11397" x1="114" y1="5.5" x2="19.5" y2="123.5" gradientUnits="userSpaceOnUse">
<stop stop-color="#FFE2A3"/>
<stop offset="1" stop-color="#FF9D45"/>
</linearGradient>
<linearGradient id="paint1_linear_536_11397" x1="69.306" y1="65.1472" x2="124.485" y2="120.324" gradientUnits="userSpaceOnUse">
<stop stop-color="#FF7D42"/>
<stop offset="1" stop-color="#FF8F64" stop-opacity="0"/>
</linearGradient>
<linearGradient id="paint2_linear_536_11397" x1="44.4336" y1="66.8999" x2="101.437" y2="66.8999" gradientUnits="userSpaceOnUse">
<stop offset="0.009" stop-color="#F3E0DF"/>
<stop offset="1" stop-color="#E8E0BA"/>
</linearGradient>
<linearGradient id="paint3_linear_536_11397" x1="61.6264" y1="53.9753" x2="67.0042" y2="61.8743" gradientUnits="userSpaceOnUse">
<stop offset="0.009" stop-color="#65BCC0"/>
<stop offset="1" stop-color="#53838A"/>
</linearGradient>
<linearGradient id="paint4_linear_536_11397" x1="23.5195" y1="52.9566" x2="101.438" y2="52.9566" gradientUnits="userSpaceOnUse">
<stop offset="0.009" stop-color="#F3E0DF"/>
<stop offset="1" stop-color="#E8E0BA"/>
</linearGradient>
<linearGradient id="paint5_linear_536_11397" x1="44.3331" y1="89.1041" x2="46.3491" y2="78.1785" gradientUnits="userSpaceOnUse">
<stop offset="0.009" stop-color="#FFE7E5"/>
<stop offset="1" stop-color="#DFDBC7"/>
</linearGradient>
<linearGradient id="paint6_linear_536_11397" x1="61.6264" y1="53.9753" x2="67.0042" y2="61.8743" gradientUnits="userSpaceOnUse">
<stop offset="0.009" stop-color="#C2FCFF"/>
<stop offset="1" stop-color="#70D7E5"/>
</linearGradient>
<clipPath id="clip0_536_11397">
<rect width="130" height="130" fill="white"/>
</clipPath>
</defs>
</svg>
