<svg width="190" height="150" viewBox="0 0 190 150" fill="none" xmlns="http://www.w3.org/2000/svg">
<path d="M163.093 93.2715V135.751C163.093 152.834 149.245 166.682 132.162 166.682V93.2715H163.093Z" fill="url(#paint0_linear_469_26411)"/>
<path d="M149.29 104.066H146.268V163.275C156.254 158.146 163.092 147.75 163.092 135.751V117.868L149.29 104.066Z" fill="url(#paint1_linear_469_26411)"/>
<path d="M138.633 173.586H37.6007C31.6955 173.586 26.9082 168.799 26.9082 162.894L26.9082 10.6925C26.9082 4.78726 31.6955 0 37.6007 0L138.633 0C144.538 0 149.326 4.78726 149.326 10.6925V162.894C149.326 168.799 144.538 173.586 138.633 173.586Z" fill="url(#paint2_linear_469_26411)"/>
<path d="M134.718 168.411H41.5148C36.0096 168.411 31.5469 163.948 31.5469 158.443L31.5469 15.1476C31.5469 9.64245 36.0096 5.17969 41.5148 5.17969L134.718 5.17969C140.223 5.17969 144.686 9.64245 144.686 15.1476V158.443C144.686 163.948 140.223 168.411 134.718 168.411Z" fill="url(#paint3_linear_469_26411)"/>
<path d="M130.573 10.3574H105.606C104.851 10.3574 104.239 10.9695 104.239 11.725C104.239 13.8318 102.531 15.5396 100.424 15.5396L75.8098 15.5396C73.703 15.5396 71.9952 13.8318 71.9952 11.725C71.9952 10.9699 71.3832 10.3574 70.6276 10.3574L45.6609 10.3574C40.5689 10.3574 36.4414 14.4853 36.4414 19.5769L36.4414 154.005C36.4414 159.097 40.5692 163.224 45.6609 163.224H130.573C135.665 163.224 139.792 159.096 139.792 154.005V19.5769C139.792 14.4853 135.665 10.3574 130.573 10.3574Z" fill="url(#paint4_linear_469_26411)"/>
<path d="M149.326 162.895V59.4242L93.0982 2.94058C91.0038 -0.232796 86.3476 -0.232796 84.2528 2.94058L63.5745 34.2716C61.6637 37.167 63.0309 40.8515 65.9211 42.0735L74.853 51.4424C61.3325 56.9118 51.793 70.1641 51.793 85.6454C51.793 96.5402 56.518 106.33 64.0293 113.082L124.535 173.588H138.633C144.538 173.588 149.326 168.801 149.326 162.895Z" fill="url(#paint5_linear_469_26411)"/>
<path d="M149.095 165.11L116.631 132.646C115.899 131.392 114.542 130.547 112.986 130.547H64.5541C62.2223 130.547 60.332 132.437 60.332 134.769V142.22C60.332 143.777 61.177 145.133 62.431 145.865L90.1512 173.586H138.634C143.78 173.586 148.074 169.951 149.095 165.11Z" fill="url(#paint6_linear_469_26411)"/>
<path d="M112.333 145.79H63.9018C61.57 145.79 59.6797 143.899 59.6797 141.568V134.117C59.6797 131.785 61.57 129.895 63.9018 129.895H112.333C114.665 129.895 116.555 131.785 116.555 134.117V141.568C116.555 143.899 114.665 145.79 112.333 145.79Z" fill="url(#paint7_linear_469_26411)"/>
<path d="M83.6983 2.38031L63.0199 33.7113C60.6949 37.2345 63.2215 41.9294 67.4425 41.9294H77.1109V67.2512C77.1109 70.0687 79.395 72.3525 82.2122 72.3525H94.0298C96.8474 72.3525 99.1311 70.0684 99.1311 67.2512V41.9294H108.8C113.021 41.9294 115.547 37.2345 113.222 33.7113L92.5433 2.38031C90.4489 -0.793436 85.7927 -0.793436 83.6983 2.38031Z" fill="url(#paint8_linear_469_26411)"/>
<path d="M88.1187 121.966C108.488 121.966 125.001 105.453 125.001 85.0835C125.001 64.714 108.488 48.2012 88.1187 48.2012C67.7491 48.2012 51.2363 64.714 51.2363 85.0835C51.2363 105.453 67.7491 121.966 88.1187 121.966Z" fill="url(#paint9_linear_469_26411)"/>
<path d="M88.1199 113.771C103.963 113.771 116.806 100.928 116.806 85.0847C116.806 69.2417 103.963 56.3984 88.1199 56.3984C72.2769 56.3984 59.4336 69.2417 59.4336 85.0847C59.4336 100.928 72.2769 113.771 88.1199 113.771Z" fill="url(#paint10_linear_469_26411)"/>
<path d="M124.112 93.1572L99.9992 69.0443C98.7601 67.1827 95.4414 66.4204 92.7464 66.1451C92.5523 65.8933 90.7291 64.1464 90.6203 64.0123C90.2522 63.5593 89.5496 63.2266 88.8458 63.2266C87.6645 63.2266 86.805 63.9247 86.805 64.6765V66.1801C81.1125 66.9856 76.0644 70.2614 76.0644 77.0817C76.0644 80.3392 77.368 82.5704 79.2642 84.2178C79.2642 84.2178 86.7409 91.7117 86.805 91.7817V96.8443C82.831 96.1461 81.0052 92.9776 78.7494 92.9776C76.7086 92.9776 75.0977 95.6626 75.0977 97.4884C75.0977 98.824 75.8949 100.142 77.2447 101.269L96.8877 120.912C110.443 117.606 121.062 106.811 124.112 93.1572Z" fill="url(#paint11_linear_469_26411)"/>
<path d="M90.723 80.7882V72.9475C94.2137 73.2161 95.2342 74.9347 97.006 74.9347C99.3691 74.9347 100.335 71.9811 100.335 70.5312C100.335 66.8258 94.0521 65.9663 90.7226 65.859V64.5164C90.7226 63.7646 89.7022 63.0664 88.6818 63.0664C87.5004 63.0664 86.6409 63.7646 86.6409 64.5164V66.02C80.9484 66.8254 75.9004 70.1013 75.9004 76.9215C75.9004 83.7954 81.7002 86.1045 86.6409 87.9843V96.6841C82.667 95.986 80.8411 92.8174 78.5853 92.8174C76.5445 92.8174 74.9336 95.5024 74.9336 97.3283C74.9336 100.765 80.1966 104.095 86.6409 104.309V105.652C86.6409 106.404 87.5 107.102 88.6818 107.102C89.7022 107.102 90.7226 106.404 90.7226 105.652V104.095C97.0056 103.074 101.302 99.0468 101.302 92.3879C101.303 85.1377 95.6097 82.6137 90.723 80.7882ZM87.1785 79.4992C85.1377 78.6401 83.7414 77.6733 83.7414 76.1161C83.7414 74.827 84.7618 73.592 87.1785 73.1088V79.4992ZM90.1861 96.6301V89.4339C92.1193 90.3467 93.4616 91.4748 93.4616 93.247C93.4619 95.1801 92.0116 96.2005 90.1861 96.6301Z" fill="url(#paint12_linear_469_26411)"/>
<path d="M26.9082 145.521V162.893C26.9082 168.799 31.6955 173.586 37.6007 173.586H138.633C144.538 173.586 149.326 168.799 149.326 162.893V145.521H26.9082Z" fill="url(#paint13_linear_469_26411)"/>
<path d="M149.325 126.482V100.467H123.311L149.325 126.482Z" fill="url(#paint14_linear_469_26411)"/>
<path d="M163.093 104.064H133.394C124.694 104.064 117.641 97.011 117.641 88.3109V88.0527C117.641 82.3475 122.265 77.7227 127.971 77.7227H147.339C156.04 77.7227 163.093 84.7758 163.093 93.4759V104.064Z" fill="url(#paint15_linear_469_26411)"/>
<defs>
<linearGradient id="paint0_linear_469_26411" x1="113.672" y1="109.446" x2="150.809" y2="131.901" gradientUnits="userSpaceOnUse">
<stop stop-color="#FFDCBD"/>
<stop offset="1" stop-color="#FFA9B1"/>
</linearGradient>
<linearGradient id="paint1_linear_469_26411" x1="160.518" y1="133.67" x2="149.578" y2="133.67" gradientUnits="userSpaceOnUse">
<stop stop-color="#FFA9B1" stop-opacity="0"/>
<stop offset="1" stop-color="#F89580"/>
</linearGradient>
<linearGradient id="paint2_linear_469_26411" x1="40.3535" y1="39.0297" x2="151.187" y2="149.863" gradientUnits="userSpaceOnUse">
<stop stop-color="#537983"/>
<stop offset="1" stop-color="#3E5959"/>
</linearGradient>
<linearGradient id="paint3_linear_469_26411" x1="145.405" y1="144.084" x2="-12.9168" y2="-14.2383" gradientUnits="userSpaceOnUse">
<stop stop-color="#537983"/>
<stop offset="1" stop-color="#3E5959"/>
</linearGradient>
<linearGradient id="paint4_linear_469_26411" x1="59.0406" y1="57.7147" x2="148.001" y2="146.675" gradientUnits="userSpaceOnUse">
<stop stop-color="#EEF5F6"/>
<stop offset="1" stop-color="#CBE5E8"/>
</linearGradient>
<linearGradient id="paint5_linear_469_26411" x1="145.297" y1="108.929" x2="26.8266" y2="40.7528" gradientUnits="userSpaceOnUse">
<stop stop-color="#3E5959" stop-opacity="0"/>
<stop offset="1" stop-color="#384949"/>
</linearGradient>
<linearGradient id="paint6_linear_469_26411" x1="106.059" y1="157.523" x2="93.3924" y2="124.925" gradientUnits="userSpaceOnUse">
<stop stop-color="#3E5959" stop-opacity="0"/>
<stop offset="1" stop-color="#384949"/>
</linearGradient>
<linearGradient id="paint7_linear_469_26411" x1="88.1175" y1="125.672" x2="88.1175" y2="150.757" gradientUnits="userSpaceOnUse">
<stop stop-color="#C1E9AF"/>
<stop offset="1" stop-color="#4FC123"/>
</linearGradient>
<linearGradient id="paint8_linear_469_26411" x1="70.3145" y1="21.2812" x2="99.1591" y2="50.1254" gradientUnits="userSpaceOnUse">
<stop stop-color="#FE99A0"/>
<stop offset="1" stop-color="#FD4755"/>
</linearGradient>
<linearGradient id="paint9_linear_469_26411" x1="69.4912" y1="66.4564" x2="111.244" y2="108.208" gradientUnits="userSpaceOnUse">
<stop stop-color="#FFE177"/>
<stop offset="1" stop-color="#FE9738"/>
</linearGradient>
<linearGradient id="paint10_linear_469_26411" x1="102.608" y1="99.5728" x2="70.1339" y2="67.0992" gradientUnits="userSpaceOnUse">
<stop stop-color="#FFE177"/>
<stop offset="1" stop-color="#FE9738"/>
</linearGradient>
<linearGradient id="paint11_linear_469_26411" x1="111.661" y1="100.87" x2="77.9458" y2="84.8504" gradientUnits="userSpaceOnUse">
<stop stop-color="#FE9738" stop-opacity="0"/>
<stop offset="1" stop-color="#F46700"/>
</linearGradient>
<linearGradient id="paint12_linear_469_26411" x1="80.8124" y1="77.3268" x2="97.874" y2="94.3885" gradientUnits="userSpaceOnUse">
<stop stop-color="#FE9738"/>
<stop offset="1" stop-color="#F46700"/>
</linearGradient>
<linearGradient id="paint13_linear_469_26411" x1="88.1169" y1="155.885" x2="88.1169" y2="174.454" gradientUnits="userSpaceOnUse">
<stop stop-color="#3E5959" stop-opacity="0"/>
<stop offset="1" stop-color="#384949"/>
</linearGradient>
<linearGradient id="paint14_linear_469_26411" x1="136.318" y1="121.914" x2="136.318" y2="97.7233" gradientUnits="userSpaceOnUse">
<stop stop-color="#3E5959" stop-opacity="0"/>
<stop offset="1" stop-color="#384949"/>
</linearGradient>
<linearGradient id="paint15_linear_469_26411" x1="129.032" y1="84.0396" x2="166.169" y2="106.495" gradientUnits="userSpaceOnUse">
<stop stop-color="#FFDCBD"/>
<stop offset="1" stop-color="#FFA9B1"/>
</linearGradient>
</defs>
</svg>
