<svg width="16" height="16" viewBox="0 0 16 16" fill="none" xmlns="http://www.w3.org/2000/svg">
<path d="M11.332 2.33333H4.66536C2.66536 2.33333 1.33203 3.33333 1.33203 5.66667V10.3333C1.33203 12.6667 2.66536 13.6667 4.66536 13.6667H11.332C13.332 13.6667 14.6654 12.6667 14.6654 10.3333V5.66667C14.6654 3.33333 13.332 2.33333 11.332 2.33333ZM11.6454 6.39333L9.5587 8.06C9.1187 8.41333 8.5587 8.58667 7.9987 8.58667C7.4387 8.58667 6.87203 8.41333 6.4387 8.06L4.35203 6.39333C4.1387 6.22 4.10536 5.9 4.27203 5.68667C4.44536 5.47333 4.7587 5.43333 4.97203 5.60667L7.0587 7.27333C7.56536 7.68 8.42536 7.68 8.93203 7.27333L11.0187 5.60667C11.232 5.43333 11.552 5.46667 11.7187 5.68667C11.892 5.9 11.8587 6.22 11.6454 6.39333Z" fill="#B7B7C2"/>
</svg>
