<svg width="12" height="15" viewBox="0 0 12 15" fill="none" xmlns="http://www.w3.org/2000/svg">
<path d="M11.7448 5.13329C11.0448 2.05329 8.35811 0.666626 5.99811 0.666626C5.99811 0.666626 5.99811 0.666626 5.99144 0.666626C3.63811 0.666626 0.944777 2.04663 0.244777 5.12663C-0.535223 8.56663 1.57144 11.48 3.47811 13.3133C4.18478 13.9933 5.09144 14.3333 5.99811 14.3333C6.90478 14.3333 7.81144 13.9933 8.51144 13.3133C10.4181 11.48 12.5248 8.57329 11.7448 5.13329ZM5.99811 8.47329C4.83811 8.47329 3.89811 7.53329 3.89811 6.37329C3.89811 5.21329 4.83811 4.27329 5.99811 4.27329C7.15811 4.27329 8.09811 5.21329 8.09811 6.37329C8.09811 7.53329 7.15811 8.47329 5.99811 8.47329Z" fill="white"/>
</svg>
