<svg width="14" height="12" viewBox="0 0 14 12" fill="none" xmlns="http://www.w3.org/2000/svg">
<path d="M10.332 0.333008H3.66536C1.66536 0.333008 0.332031 1.33301 0.332031 3.66634V8.33301C0.332031 10.6663 1.66536 11.6663 3.66536 11.6663H10.332C12.332 11.6663 13.6654 10.6663 13.6654 8.33301V3.66634C13.6654 1.33301 12.332 0.333008 10.332 0.333008ZM10.6454 4.39301L8.5587 6.05967C8.1187 6.41301 7.5587 6.58634 6.9987 6.58634C6.4387 6.58634 5.87203 6.41301 5.4387 6.05967L3.35203 4.39301C3.1387 4.21967 3.10536 3.89967 3.27203 3.68634C3.44536 3.47301 3.7587 3.43301 3.97203 3.60634L6.0587 5.27301C6.56536 5.67967 7.42536 5.67967 7.93203 5.27301L10.0187 3.60634C10.232 3.43301 10.552 3.46634 10.7187 3.68634C10.892 3.89967 10.8587 4.21967 10.6454 4.39301Z" fill="#A3A3B0"/>
</svg>
