<svg width="14" height="12" viewBox="0 0 14 12" fill="none" xmlns="http://www.w3.org/2000/svg">
<path d="M10.332 0.333496H3.66536C1.66536 0.333496 0.332031 1.3335 0.332031 3.66683V8.3335C0.332031 10.6668 1.66536 11.6668 3.66536 11.6668H10.332C12.332 11.6668 13.6654 10.6668 13.6654 8.3335V3.66683C13.6654 1.3335 12.332 0.333496 10.332 0.333496ZM10.6454 4.3935L8.5587 6.06016C8.1187 6.4135 7.5587 6.58683 6.9987 6.58683C6.4387 6.58683 5.87203 6.4135 5.4387 6.06016L3.35203 4.3935C3.1387 4.22016 3.10536 3.90016 3.27203 3.68683C3.44536 3.4735 3.7587 3.4335 3.97203 3.60683L6.0587 5.2735C6.56536 5.68016 7.42536 5.68016 7.93203 5.2735L10.0187 3.60683C10.232 3.4335 10.552 3.46683 10.7187 3.68683C10.892 3.90016 10.8587 4.22016 10.6454 4.3935Z" fill="#8C91FF"/>
</svg>
