<svg width="14" height="13" viewBox="0 0 14 13" fill="none" xmlns="http://www.w3.org/2000/svg">
<path d="M10.332 0.833313H3.66536C1.66536 0.833313 0.332031 1.83331 0.332031 4.16665V8.83331C0.332031 11.1666 1.66536 12.1666 3.66536 12.1666H10.332C12.332 12.1666 13.6654 11.1666 13.6654 8.83331V4.16665C13.6654 1.83331 12.332 0.833313 10.332 0.833313ZM10.6454 4.89331L8.5587 6.55998C8.1187 6.91331 7.5587 7.08665 6.9987 7.08665C6.4387 7.08665 5.87203 6.91331 5.4387 6.55998L3.35203 4.89331C3.1387 4.71998 3.10536 4.39998 3.27203 4.18665C3.44536 3.97331 3.7587 3.93331 3.97203 4.10665L6.0587 5.77331C6.56536 6.17998 7.42536 6.17998 7.93203 5.77331L10.0187 4.10665C10.232 3.93331 10.552 3.96665 10.7187 4.18665C10.892 4.39998 10.8587 4.71998 10.6454 4.89331Z" fill="white"/>
</svg>
