<svg width="36" height="36" viewBox="0 0 36 36" fill="none" xmlns="http://www.w3.org/2000/svg">
<path d="M14.9988 6.99994L13.9769 14.0496L11.2611 14.7774C10.8103 14.8981 10.3799 15.0497 9.97579 15.2546L10.378 12.2481L10.3959 12.1346L10.4152 11.9361C10.4279 11.8482 10.4323 11.7745 10.451 11.7091C10.946 8.32746 12.1573 6.98831 14.9988 6.99994Z" fill="white"/>
<path d="M24.4257 11.5759L24.4001 11.5707C23.6726 11.5603 22.958 11.6431 22.2593 11.8303L15.2049 13.7205L16.1612 7.14735L16.1739 7.05941C16.3467 7.07348 16.5369 7.10707 16.721 7.11812L19.4923 7.49883C21.0324 7.70215 22.1616 8.03973 22.9521 8.60092C23.0898 8.70897 23.2132 8.80878 23.3426 8.93112C23.4863 9.06171 23.6074 9.19834 23.6978 9.3553C23.77 9.44464 23.828 9.52574 23.8777 9.62112C24.2007 10.1506 24.3871 10.8011 24.4257 11.5759Z" fill="white"/>
<path d="M20.3176 24.2356L20.5993 24.1601C20.9374 24.0695 21.1376 23.6898 21.038 23.3179C20.9112 22.8446 20.7578 22.8132 20.4346 22.779L19.916 22.7368L20.3176 24.2356Z" fill="white"/>
<path d="M24.3617 13.3203C23.8153 13.3097 23.2646 13.3727 22.7124 13.5207L11.7137 16.4677C10.9474 16.6731 10.2654 17.0128 9.66778 17.487C7.93342 18.8576 7.08097 21.1755 7.6879 23.4406L8.27671 25.6381C8.34918 25.9086 8.44117 26.1617 8.54745 26.4231C9.75559 29.9403 12.1847 31.3427 15.8317 30.6191C16.0999 30.5835 16.3651 30.5366 16.6469 30.4611L25.4368 28.1058C29.6064 26.9886 31.2724 24.4164 30.4297 20.4148C30.3836 20.1977 30.3345 19.9693 30.2741 19.7439L29.6853 17.5464C29.0179 15.056 26.7997 13.4038 24.3617 13.3203ZM20.5216 21.572C21.0883 21.6134 21.8896 21.8094 22.2097 23.0039C22.4845 24.0294 21.9048 25.0664 20.9131 25.3321L20.6314 25.4076L20.6978 25.6555C20.7854 25.9824 20.5956 26.311 20.2688 26.3986C19.942 26.4861 19.6134 26.2964 19.5258 25.9696L19.4594 25.7217L19.358 25.7488C18.2761 26.0387 17.1413 25.3645 16.8393 24.2375C16.7518 23.9107 16.9415 23.5821 17.2683 23.4945C17.5951 23.407 17.9237 23.5967 18.0113 23.9235C18.1381 24.3968 18.6044 24.6946 19.0439 24.5768L19.1453 24.5497L18.635 22.6452L17.6971 22.5704C17.1304 22.529 16.329 22.3331 16.0089 21.1385C15.7342 20.113 16.3138 19.076 17.3055 18.8103L17.5873 18.7348L17.5208 18.4869C17.4333 18.1601 17.623 17.8314 17.9498 17.7439C18.2766 17.6563 18.6052 17.846 18.6928 18.1728L18.7592 18.4208L18.8607 18.3936C19.9425 18.1037 21.0774 18.778 21.3793 19.9049C21.4669 20.2317 21.2771 20.5603 20.9503 20.6479C20.6235 20.7355 20.2949 20.5457 20.2073 20.2189C20.0805 19.7456 19.6142 19.4478 19.1747 19.5656L19.0733 19.5928L19.5836 21.4972L20.5216 21.572Z" fill="white"/>
<path d="M17.1812 20.8245C17.308 21.2978 17.4613 21.3291 17.7845 21.3633L18.3031 21.4055L17.9015 19.9068L17.6198 19.9822C17.2705 20.0758 17.0815 20.4526 17.1812 20.8245Z" fill="white"/>
</svg>
