<svg width="25" height="24" viewBox="0 0 25 24" fill="none" xmlns="http://www.w3.org/2000/svg">
<path d="M12.4392 2.20983L10.0292 7.81983H7.61922C7.21922 7.81983 6.82922 7.84983 6.44922 7.92983L7.44922 5.52983L7.48922 5.43983L7.54922 5.27983C7.57922 5.20983 7.59922 5.14983 7.62922 5.09983C8.78922 2.40983 10.0892 1.56983 12.4392 2.20983Z" fill="white"/>
<path d="M19.2311 8.08953L19.2111 8.07953C18.6111 7.90953 18.0011 7.81953 17.3811 7.81953L11.1211 7.81953L13.3711 2.58953L13.4011 2.51953C13.5411 2.56953 13.6911 2.63953 13.8411 2.68953L16.0511 3.61953C17.2811 4.12953 18.1411 4.65953 18.6711 5.29953C18.7611 5.41953 18.8411 5.52953 18.9211 5.65953C19.0111 5.79953 19.0811 5.93953 19.1211 6.08953C19.1611 6.17953 19.1911 6.25953 19.2111 6.34953C19.3611 6.85953 19.3711 7.43953 19.2311 8.08953Z" fill="white"/>
<path d="M13.0195 17.6601H13.2695C13.5695 17.6601 13.8195 17.3901 13.8195 17.0601C13.8195 16.6401 13.6995 16.5801 13.4395 16.4801L13.0195 16.3301V17.6601Z" fill="white"/>
<path d="M18.7883 9.52031C18.3383 9.39031 17.8683 9.32031 17.3783 9.32031L7.61828 9.32031C6.93828 9.32031 6.29828 9.45031 5.69828 9.71031C3.95828 10.4603 2.73828 12.1903 2.73828 14.2003L2.73828 16.1503C2.73828 16.3903 2.75828 16.6203 2.78828 16.8603C3.00828 20.0403 4.70828 21.7403 7.88828 21.9503C8.11828 21.9803 8.34828 22.0003 8.59828 22.0003H16.3983C20.0983 22.0003 22.0483 20.2403 22.2383 16.7403C22.2483 16.5503 22.2583 16.3503 22.2583 16.1503V14.2003C22.2583 11.9903 20.7883 10.1303 18.7883 9.52031ZM13.7783 15.5003C14.2383 15.6603 14.8583 16.0003 14.8583 17.0603C14.8583 17.9703 14.1483 18.7003 13.2683 18.7003H13.0183V18.9203C13.0183 19.2103 12.7883 19.4403 12.4983 19.4403C12.2083 19.4403 11.9783 19.2103 11.9783 18.9203V18.7003H11.8883C10.9283 18.7003 10.1383 17.8903 10.1383 16.8903C10.1383 16.6003 10.3683 16.3703 10.6583 16.3703C10.9483 16.3703 11.1783 16.6003 11.1783 16.8903C11.1783 17.3103 11.4983 17.6603 11.8883 17.6603H11.9783L11.9783 15.9703L11.2183 15.7003C10.7583 15.5403 10.1383 15.2003 10.1383 14.1403C10.1383 13.2303 10.8483 12.5003 11.7283 12.5003H11.9783V12.2803C11.9783 11.9903 12.2083 11.7603 12.4983 11.7603C12.7883 11.7603 13.0183 11.9903 13.0183 12.2803V12.5003H13.1083C14.0683 12.5003 14.8583 13.3103 14.8583 14.3103C14.8583 14.6003 14.6283 14.8303 14.3383 14.8303C14.0483 14.8303 13.8183 14.6003 13.8183 14.3103C13.8183 13.8903 13.4983 13.5403 13.1083 13.5403H13.0183V15.2303L13.7783 15.5003Z" fill="white"/>
<path d="M11.1797 14.14C11.1797 14.56 11.2997 14.62 11.5597 14.72L11.9797 14.87V13.54H11.7297C11.4197 13.54 11.1797 13.81 11.1797 14.14Z" fill="white"/>
</svg>
