<?xml version="1.0" encoding="utf-8"?>
<!-- Generator: Adobe Illustrator 26.0.0, SVG Export Plug-In . SVG Version: 6.00 Build 0)  -->
<!DOCTYPE svg PUBLIC "-//W3C//DTD SVG 1.1//EN" "http://www.w3.org/Graphics/SVG/1.1/DTD/svg11.dtd" [
	<!ENTITY ns_extend "http://ns.adobe.com/Extensibility/1.0/">
	<!ENTITY ns_ai "http://ns.adobe.com/AdobeIllustrator/10.0/">
	<!ENTITY ns_graphs "http://ns.adobe.com/Graphs/1.0/">
	<!ENTITY ns_vars "http://ns.adobe.com/Variables/1.0/">
	<!ENTITY ns_imrep "http://ns.adobe.com/ImageReplacement/1.0/">
	<!ENTITY ns_sfw "http://ns.adobe.com/SaveForWeb/1.0/">
	<!ENTITY ns_custom "http://ns.adobe.com/GenericCustomNamespace/1.0/">
	<!ENTITY ns_adobe_xpath "http://ns.adobe.com/XPath/1.0/">
]>
<svg version="1.1" id="Layer_1" xmlns:x="&ns_extend;" xmlns:i="&ns_ai;" xmlns:graph="&ns_graphs;"
	 xmlns="http://www.w3.org/2000/svg" xmlns:xlink="http://www.w3.org/1999/xlink" x="0px" y="0px" viewBox="0 0 1440 850"
	 style="enable-background:new 0 0 1440 850;" xml:space="preserve">
<style type="text/css">
	.st0{display:none;fill:none;}
	.st1{fill:#1B2BF3;}
</style>
<metadata>
	<sfw  xmlns="&ns_sfw;">
		<slices></slices>
		<sliceSourceBounds  bottomLeftOrigin="true" height="850" width="1440" x="0" y="0"></sliceSourceBounds>
	</sfw>
</metadata>
<rect class="st0" width="1200" height="250"/>
<g>
	<path class="st1" d="M0,0v850h1440V0H0z M230.2,389.5c-3.7,6.6-8.9,11.7-15.7,15.4c-6.8,3.6-14.9,5.4-24.3,5.4
		c-9.1,0-17.1-1.8-23.9-5.4c-6.8-3.7-12.1-8.8-15.9-15.4c-3.8-6.7-5.6-14.5-5.6-23.4c0-9,1.9-16.7,5.6-23.3
		c3.8-6.7,9-11.8,15.9-15.4c6.8-3.7,14.8-5.5,23.9-5.5c9.4,0,17.5,1.8,24.3,5.5c6.8,3.6,12.1,8.7,15.7,15.4
		c3.8,6.6,5.6,14.3,5.6,23.3C235.8,375.1,234,382.9,230.2,389.5z M314.5,409h-15.4v-19.7h-0.9c-0.6,3.6-1.9,7-4,10.2
		c-2,3.2-4.9,5.8-8.7,7.8c-3.7,2-8.3,2.9-14,2.9c-6,0-10.9-1.2-14.8-3.5s-6.9-5.4-8.8-9.3c-2-3.9-2.9-8.3-2.9-13.2v-39.2h16.5v34
		c0,5.5,1.3,9.6,4,12.3c2.7,2.6,7.3,4,13.7,4c6.7,0,11.4-1.5,14.3-4.5c3-3.1,4.5-7.7,4.5-13.8v-32h16.5V409z M384.1,375.7h-16.5
		v-6.1c0-4.1-0.9-7-2.8-8.8c-1.8-1.9-4.8-2.8-9.1-2.8c-4.9,0-8.4,1.2-10.5,3.7c-2,2.5-3.1,6.1-3.1,10.9V409h-16.5v-63.9h15.2v17h1
		c0.6-3.5,1.8-6.6,3.6-9.3s4.2-4.9,7.2-6.5c3-1.6,6.7-2.4,11-2.4c4.9,0,8.8,1,11.8,3.1c3,2,5.2,4.7,6.5,8.1
		c1.5,3.4,2.2,7.2,2.2,11.3V375.7z M522,409h-24.6l-15-46.3l-6.1-23.4H475l-6,23.4L454.2,409h-24.4l-21.4-85.8h18.3l12.2,51.5
		l3.5,18.4h1.2l4.4-18.4l15.7-51.5H488l16.3,51.5l4.5,18.4h1.2l3.3-18.4l11.5-51.5h18L522,409z M566.8,409h-16.5v-63.9h16.5V409z
		 M566.8,338.1h-16.5v-14.8h16.5V338.1z M646.9,409h-16.4v-34c0-5.5-1.3-9.6-4-12.3c-2.6-2.6-7.1-4-13.4-4c-6.5,0-11.2,1.5-14.1,4.6
		c-2.8,3-4.2,7.6-4.2,13.7v32h-16.5v-63.9h15.2v19.7h1c0.6-3.6,1.9-7,4-10.1c2-3.2,4.9-5.8,8.6-7.8c3.7-2,8.3-3.1,13.8-3.1
		c5.8,0,10.6,1.2,14.5,3.6c3.9,2.3,6.8,5.4,8.7,9.3s2.8,8.3,2.8,13.2V409z M726.6,409h-16.4v-34c0-5.5-1.3-9.6-4-12.3
		c-2.6-2.6-7.1-4-13.4-4c-6.5,0-11.2,1.5-14.1,4.6c-2.8,3-4.2,7.6-4.2,13.7v32H658v-63.9h15.2v19.7h1c0.6-3.6,1.9-7,4-10.1
		c2-3.2,4.9-5.8,8.6-7.8c3.7-2,8.3-3.1,13.8-3.1c5.8,0,10.6,1.2,14.5,3.6c3.9,2.3,6.8,5.4,8.7,9.3s2.8,8.3,2.8,13.2V409z M754.3,409
		h-16.5v-63.9h16.5V409z M754.3,338.1h-16.5v-14.8h16.5V338.1z M834.4,409H818v-34c0-5.5-1.3-9.6-4-12.3c-2.6-2.6-7.1-4-13.4-4
		c-6.5,0-11.2,1.5-14.1,4.6c-2.8,3-4.2,7.6-4.2,13.7v32h-16.5v-63.9H781v19.7h1c0.6-3.6,1.9-7,4-10.1c2-3.2,4.9-5.8,8.6-7.8
		c3.7-2,8.3-3.1,13.8-3.1c5.8,0,10.6,1.2,14.5,3.6c3.9,2.3,6.8,5.4,8.7,9.3s2.8,8.3,2.8,13.2V409z M915.5,400.6
		c0,7.3-1.5,13.3-4.4,17.9c-2.8,4.6-6.9,8-12.2,10.2c-5.3,2.2-11.6,3.3-18.9,3.3c-6.6,0-12.3-1-17.3-2.9c-4.9-2-8.7-4.8-11.4-8.4
		c-2.7-3.7-4.1-8.1-4.1-13.4h16.4c0,2.7,0.5,4.9,1.5,6.5c1.1,1.6,2.9,2.8,5.4,3.5c2.6,0.8,6.1,1.2,10.5,1.2c4.5,0,8.1-0.5,10.6-1.4
		c2.6-0.9,4.5-2.6,5.6-5.1c1.1-2.4,1.7-5.8,1.7-10.1v-15.1h-1c-1,4.8-3.6,8.7-7.7,11.8c-4.1,3-9.7,4.5-16.9,4.5
		c-6.3,0-11.7-1.2-16.3-3.6c-4.4-2.5-7.9-5.9-10.4-10.4c-2.4-4.4-3.6-9.6-3.6-15.6c0-5.9,1.2-11.1,3.7-15.5
		c2.6-4.4,6.1-7.9,10.8-10.2c4.7-2.5,10.2-3.7,16.5-3.7c6.7,0,12.2,1.5,16.6,4.4c4.5,2.8,7.3,7,8.4,12.7h0.9v-15.7h15.4V400.6z
		 M1018.4,397.1c-2.5,3.9-6.5,7.1-11.9,9.6c-5.5,2.4-12.6,3.6-21.4,3.6c-8.5,0-15.7-1.2-21.6-3.5s-10.4-5.7-13.4-10.1
		c-3-4.4-4.5-9.9-4.5-16.3v-0.8h16.5v2.3c0,3,0.7,5.5,2,7.4c1.4,1.9,3.7,3.3,7,4.4c3.3,0.9,8,1.4,14,1.4c5.4,0,9.6-0.3,12.5-1
		c3-0.7,5.1-1.7,6.3-3.2c1.2-1.5,1.8-3.3,1.8-5.6c0-3.2-1-5.5-3.1-6.9c-2-1.5-5.5-2.7-10.5-3.6l-22.5-3.5c-4.9-0.9-9.2-2.2-12.9-4.1
		c-3.7-2-6.5-4.5-8.6-7.7c-2-3.2-2.9-7.2-2.9-11.9c0-3.2,0.7-6.3,2-9.3c1.4-3.1,3.5-5.8,6.5-8.2c3-2.5,6.9-4.4,11.6-5.9
		c4.9-1.5,10.8-2.3,17.8-2.3c8.6,0,15.7,1.3,21.1,3.8c5.5,2.5,9.7,6,12.4,10.5c2.7,4.4,4.1,9.6,4.1,15.5v0.8h-16.6v-1.8
		c0-3.1-0.7-5.6-2.1-7.7c-1.3-2-3.6-3.5-6.9-4.5c-3.2-1-7.8-1.5-13.6-1.5c-4.9,0-8.9,0.4-11.8,1.2c-2.9,0.7-5,1.7-6.3,3.2
		c-1.3,1.5-1.9,3.3-1.9,5.5c0,2,0.4,3.7,1.3,5c0.9,1.3,2.2,2.3,4,3.1c1.8,0.7,4.1,1.3,7,1.9l22.4,3.8c6.1,0.9,11,2.5,14.7,4.7
		c3.8,2.2,6.7,4.9,8.5,8.2c1.8,3.2,2.7,6.8,2.7,10.9C1022.3,389,1021,393.2,1018.4,397.1z M1074.7,358.8h-21.9v26.4
		c0,3.6,0.8,6,2.4,7.2s4.3,1.8,7.9,1.8h11.5V409h-15.4c-7.1,0-12.7-1.7-16.9-5.2c-4.1-3.5-6.1-9.2-6.1-17v-27.9h-10.4v-13.7h10.4
		v-13.2h16.5v13.2h21.9V358.8z M1147.3,394.5c-3,5-7.2,8.9-12.6,11.6c-5.4,2.7-11.6,4.1-18.8,4.1c-7.2,0-13.5-1.4-19-4.1
		c-5.4-2.7-9.6-6.6-12.7-11.6c-3-5-4.5-10.8-4.5-17.4c0-6.7,1.5-12.6,4.5-17.5c3.1-4.9,7.3-8.8,12.7-11.5c5.5-2.8,11.8-4.2,19-4.2
		c7.2,0,13.4,1.4,18.8,4.2c5.4,2.7,9.6,6.6,12.6,11.5c3.1,4.9,4.6,10.8,4.6,17.5C1151.9,383.7,1150.3,389.5,1147.3,394.5z
		 M1219.3,375.7h-16.5v-6.1c0-4.1-0.9-7-2.8-8.8c-1.8-1.9-4.8-2.8-9.1-2.8c-4.9,0-8.4,1.2-10.5,3.7c-2,2.5-3.1,6.1-3.1,10.9V409
		h-16.5v-63.9h15.2v17h1c0.6-3.5,1.8-6.6,3.6-9.3c1.8-2.7,4.2-4.9,7.2-6.5c3-1.6,6.7-2.4,11-2.4c4.9,0,8.8,1,11.8,3.1
		c3,2,5.2,4.7,6.5,8.1c1.5,3.4,2.2,7.2,2.2,11.3V375.7z M1266.3,414.8c-1.9,4.1-4.1,7.3-6.7,9.6c-2.5,2.4-5.5,4.1-9,5
		c-3.5,0.9-7.7,1.4-12.5,1.4h-9.7v-15h14.1c2.6,0,4.5-0.4,5.8-1.3c1.3-0.8,2.3-2.1,3.2-4l0.6-1.4l-31.4-64h18.7l14.8,31.6l5.9,15.1
		h1.1l5.5-15.4l13.7-31.4h18.3L1266.3,414.8z"/>
	<path class="st1" d="M1115.9,358.4c-7.1,0-12.2,1.6-15.2,4.7c-3,3.1-4.5,7.7-4.5,14c0,6.1,1.5,10.8,4.5,14
		c3.1,3.1,8.2,4.6,15.2,4.6c7.1,0,12.1-1.5,15.1-4.6c3-3.2,4.5-7.8,4.5-14c0-6.2-1.5-10.9-4.5-14C1128,360,1123,358.4,1115.9,358.4z
		"/>
	<path class="st1" d="M890.1,359.7c-2.9-1-6.5-1.5-10.8-1.5c-4.3,0-7.9,0.5-10.8,1.5c-2.8,0.9-4.9,2.5-6.4,4.7
		c-1.5,2.1-2.2,5.1-2.2,8.8s0.7,6.8,2,9.1c1.5,2.2,3.6,3.8,6.4,4.9c2.8,0.9,6.3,1.4,10.5,1.4c6.7,0,11.6-1.2,15-3.6
		c3.4-2.4,5.1-6.1,5.1-11.1v-1.5c0-3.2-0.8-5.9-2.3-7.9C895.2,362.3,893,360.7,890.1,359.7z"/>
	<path class="st1" d="M206.1,340.8c-4.1-2-9.4-2.9-16-2.9c-6.5,0-11.8,1-15.9,2.9c-4.1,1.9-7.1,4.9-9.1,9.1c-2,4.1-2.9,9.5-2.9,16.3
		c0,6.7,1,12.1,2.9,16.3c2,4.2,5,7.3,9.1,9.2c4.1,1.9,9.4,2.8,15.9,2.8c6.6,0,11.9-0.9,16-2.8c4.2-2,7.3-5,9.2-9.2
		c2-4.2,2.9-9.6,2.9-16.3c0-6.7-1-12.2-2.9-16.3C213.4,345.7,210.3,342.7,206.1,340.8z"/>
</g>
</svg>
