<svg width="1158" height="135" viewBox="0 0 1158 135" fill="none" xmlns="http://www.w3.org/2000/svg">
<g clip-path="url(#clip0_122_7155)">
<path d="M-142 -300V550H1298V-300H-142ZM88.2 89.5C84.5 96.1 79.3 101.2 72.5 104.9C65.7 108.5 57.6 110.3 48.2 110.3C39.1 110.3 31.1 108.5 24.3 104.9C17.5 101.2 12.2 96.1 8.39999 89.5C4.59999 82.8 2.8 75 2.8 66.1C2.8 57.1 4.69999 49.4 8.39999 42.8C12.2 36.1 17.4 31 24.3 27.4C31.1 23.7 39.1 21.9 48.2 21.9C57.6 21.9 65.7 23.7 72.5 27.4C79.3 31 84.6 36.1 88.2 42.8C92 49.4 93.8 57.1 93.8 66.1C93.8 75.1 92 82.9 88.2 89.5ZM172.5 109H157.1V89.3H156.2C155.6 92.9 154.3 96.3 152.2 99.5C150.2 102.7 147.3 105.3 143.5 107.3C139.8 109.3 135.2 110.2 129.5 110.2C123.5 110.2 118.6 109 114.7 106.7C110.8 104.4 107.8 101.3 105.9 97.4C103.9 93.5 103 89.1 103 84.2V45H119.5V79C119.5 84.5 120.8 88.6 123.5 91.3C126.2 93.9 130.8 95.3 137.2 95.3C143.9 95.3 148.6 93.8 151.5 90.8C154.5 87.7 156 83.1 156 77V45H172.5V109ZM242.1 75.7H225.6V69.6C225.6 65.5 224.7 62.6 222.8 60.8C221 58.9 218 58 213.7 58C208.8 58 205.3 59.2 203.2 61.7C201.2 64.2 200.1 67.8 200.1 72.6V109H183.6V45.1H198.8V62.1H199.8C200.4 58.6 201.6 55.5 203.4 52.8C205.2 50.1 207.6 47.9 210.6 46.3C213.6 44.7 217.3 43.9 221.6 43.9C226.5 43.9 230.4 44.9 233.4 47C236.4 49 238.6 51.7 239.9 55.1C241.4 58.5 242.1 62.3 242.1 66.4V75.7ZM380 109H355.4L340.4 62.7L334.3 39.3H333L327 62.7L312.2 109H287.8L266.4 23.2H284.7L296.9 74.7L300.4 93.1H301.6L306 74.7L321.7 23.2H346L362.3 74.7L366.8 93.1H368L371.3 74.7L382.8 23.2H400.8L380 109ZM424.8 109H408.3V45.1H424.8V109ZM424.8 38.1H408.3V23.3H424.8V38.1ZM504.9 109H488.5V75C488.5 69.5 487.2 65.4 484.5 62.7C481.9 60.1 477.4 58.7 471.1 58.7C464.6 58.7 459.9 60.2 457 63.3C454.2 66.3 452.8 70.9 452.8 77V109H436.3V45.1H451.5V64.8H452.5C453.1 61.2 454.4 57.8 456.5 54.7C458.5 51.5 461.4 48.9 465.1 46.9C468.8 44.9 473.4 43.8 478.9 43.8C484.7 43.8 489.5 45 493.4 47.4C497.3 49.7 500.2 52.8 502.1 56.7C504 60.6 504.9 65 504.9 69.9V109ZM584.6 109H568.2V75C568.2 69.5 566.9 65.4 564.2 62.7C561.6 60.1 557.1 58.7 550.8 58.7C544.3 58.7 539.6 60.2 536.7 63.3C533.9 66.3 532.5 70.9 532.5 77V109H516V45.1H531.2V64.8H532.2C532.8 61.2 534.1 57.8 536.2 54.7C538.2 51.5 541.1 48.9 544.8 46.9C548.5 44.9 553.1 43.8 558.6 43.8C564.4 43.8 569.2 45 573.1 47.4C577 49.7 579.9 52.8 581.8 56.7C583.7 60.6 584.6 65 584.6 69.9V109ZM612.3 109H595.8V45.1H612.3V109ZM612.3 38.1H595.8V23.3H612.3V38.1ZM692.4 109H676V75C676 69.5 674.7 65.4 672 62.7C669.4 60.1 664.9 58.7 658.6 58.7C652.1 58.7 647.4 60.2 644.5 63.3C641.7 66.3 640.3 70.9 640.3 77V109H623.8V45.1H639V64.8H640C640.6 61.2 641.9 57.8 644 54.7C646 51.5 648.9 48.9 652.6 46.9C656.3 44.9 660.9 43.8 666.4 43.8C672.2 43.8 677 45 680.9 47.4C684.8 49.7 687.7 52.8 689.6 56.7C691.5 60.6 692.4 65 692.4 69.9V109ZM773.5 100.6C773.5 107.9 772 113.9 769.1 118.5C766.3 123.1 762.2 126.5 756.9 128.7C751.6 130.9 745.3 132 738 132C731.4 132 725.7 131 720.7 129.1C715.8 127.1 712 124.3 709.3 120.7C706.6 117 705.2 112.6 705.2 107.3H721.6C721.6 110 722.1 112.2 723.1 113.8C724.2 115.4 726 116.6 728.5 117.3C731.1 118.1 734.6 118.5 739 118.5C743.5 118.5 747.1 118 749.6 117.1C752.2 116.2 754.1 114.5 755.2 112C756.3 109.6 756.9 106.2 756.9 101.9V86.8H755.9C754.9 91.6 752.3 95.5 748.2 98.6C744.1 101.6 738.5 103.1 731.3 103.1C725 103.1 719.6 101.9 715 99.5C710.6 97 707.1 93.6 704.6 89.1C702.2 84.7 701 79.5 701 73.5C701 67.6 702.2 62.4 704.7 58C707.3 53.6 710.8 50.1 715.5 47.8C720.2 45.3 725.7 44.1 732 44.1C738.7 44.1 744.2 45.6 748.6 48.5C753.1 51.3 755.9 55.5 757 61.2H757.9V45.5H773.3V100.6H773.5ZM876.4 97.1C873.9 101 869.9 104.2 864.5 106.7C859 109.1 851.9 110.3 843.1 110.3C834.6 110.3 827.4 109.1 821.5 106.8C815.6 104.5 811.1 101.1 808.1 96.7C805.1 92.3 803.6 86.8 803.6 80.4V79.6H820.1V81.9C820.1 84.9 820.8 87.4 822.1 89.3C823.5 91.2 825.8 92.6 829.1 93.7C832.4 94.6 837.1 95.1 843.1 95.1C848.5 95.1 852.7 94.8 855.6 94.1C858.6 93.4 860.7 92.4 861.9 90.9C863.1 89.4 863.7 87.6 863.7 85.3C863.7 82.1 862.7 79.8 860.6 78.4C858.6 76.9 855.1 75.7 850.1 74.8L827.6 71.3C822.7 70.4 818.4 69.1 814.7 67.2C811 65.2 808.2 62.7 806.1 59.5C804.1 56.3 803.2 52.3 803.2 47.6C803.2 44.4 803.9 41.3 805.2 38.3C806.6 35.2 808.7 32.5 811.7 30.1C814.7 27.6 818.6 25.7 823.3 24.2C828.2 22.7 834.1 21.9 841.1 21.9C849.7 21.9 856.8 23.2 862.2 25.7C867.7 28.2 871.9 31.7 874.6 36.2C877.3 40.6 878.7 45.8 878.7 51.7V52.5H862.1V50.7C862.1 47.6 861.4 45.1 860 43C858.7 41 856.4 39.5 853.1 38.5C849.9 37.5 845.3 37 839.5 37C834.6 37 830.6 37.4 827.7 38.2C824.8 38.9 822.7 39.9 821.4 41.4C820.1 42.9 819.5 44.7 819.5 46.9C819.5 48.9 819.9 50.6 820.8 51.9C821.7 53.2 823 54.2 824.8 55C826.6 55.7 828.9 56.3 831.8 56.9L854.2 60.7C860.3 61.6 865.2 63.2 868.9 65.4C872.7 67.6 875.6 70.3 877.4 73.6C879.2 76.8 880.1 80.4 880.1 84.5C880.3 89 879 93.2 876.4 97.1ZM932.7 58.8H910.8V85.2C910.8 88.8 911.6 91.2 913.2 92.4C914.8 93.6 917.5 94.2 921.1 94.2H932.6V109H917.2C910.1 109 904.5 107.3 900.3 103.8C896.2 100.3 894.2 94.6 894.2 86.8V58.9H883.8V45.2H894.2V32H910.7V45.2H932.6V58.8H932.7ZM1005.3 94.5C1002.3 99.5 998.1 103.4 992.7 106.1C987.3 108.8 981.1 110.2 973.9 110.2C966.7 110.2 960.4 108.8 954.9 106.1C949.5 103.4 945.3 99.5 942.2 94.5C939.2 89.5 937.7 83.7 937.7 77.1C937.7 70.4 939.2 64.5 942.2 59.6C945.3 54.7 949.5 50.8 954.9 48.1C960.4 45.3 966.7 43.9 973.9 43.9C981.1 43.9 987.3 45.3 992.7 48.1C998.1 50.8 1002.3 54.7 1005.3 59.6C1008.4 64.5 1009.9 70.4 1009.9 77.1C1009.9 83.7 1008.3 89.5 1005.3 94.5ZM1077.3 75.7H1060.8V69.6C1060.8 65.5 1059.9 62.6 1058 60.8C1056.2 58.9 1053.2 58 1048.9 58C1044 58 1040.5 59.2 1038.4 61.7C1036.4 64.2 1035.3 67.8 1035.3 72.6V109H1018.8V45.1H1034V62.1H1035C1035.6 58.6 1036.8 55.5 1038.6 52.8C1040.4 50.1 1042.8 47.9 1045.8 46.3C1048.8 44.7 1052.5 43.9 1056.8 43.9C1061.7 43.9 1065.6 44.9 1068.6 47C1071.6 49 1073.8 51.7 1075.1 55.1C1076.6 58.5 1077.3 62.3 1077.3 66.4V75.7ZM1124.3 114.8C1122.4 118.9 1120.2 122.1 1117.6 124.4C1115.1 126.8 1112.1 128.5 1108.6 129.4C1105.1 130.3 1100.9 130.8 1096.1 130.8H1086.4V115.8H1100.5C1103.1 115.8 1105 115.4 1106.3 114.5C1107.6 113.7 1108.6 112.4 1109.5 110.5L1110.1 109.1L1078.7 45.1H1097.4L1112.2 76.7L1118.1 91.8H1119.2L1124.7 76.4L1138.4 45H1156.7L1124.3 114.8Z" fill="#0511F0"/>
<path d="M973.899 58.3999C966.799 58.3999 961.699 59.9999 958.699 63.0999C955.699 66.1999 954.199 70.7999 954.199 77.0999C954.199 83.1999 955.699 87.8999 958.699 91.0999C961.799 94.1999 966.899 95.6999 973.899 95.6999C980.999 95.6999 985.999 94.1999 988.999 91.0999C991.999 87.8999 993.499 83.2999 993.499 77.0999C993.499 70.8999 991.999 66.1999 988.999 63.0999C985.999 59.9999 980.999 58.3999 973.899 58.3999Z" fill="#0511F0"/>
<path d="M748.1 59.7002C745.2 58.7002 741.6 58.2002 737.3 58.2002C733 58.2002 729.4 58.7002 726.5 59.7002C723.7 60.6002 721.6 62.2002 720.1 64.4002C718.6 66.5002 717.9 69.5002 717.9 73.2002C717.9 76.9002 718.6 80.0002 719.9 82.3002C721.4 84.5002 723.5 86.1002 726.3 87.2002C729.1 88.1002 732.6 88.6002 736.8 88.6002C743.5 88.6002 748.4 87.4002 751.8 85.0002C755.2 82.6002 756.9 78.9002 756.9 73.9002V72.4002C756.9 69.2002 756.1 66.5002 754.6 64.5002C753.2 62.3002 751 60.7002 748.1 59.7002Z" fill="#0511F0"/>
<path d="M64.0992 40.7999C59.9992 38.7999 54.6992 37.8999 48.0992 37.8999C41.5992 37.8999 36.2992 38.8999 32.1992 40.7999C28.0992 42.6999 25.0992 45.6999 23.0992 49.8999C21.0992 53.9999 20.1992 59.3999 20.1992 66.1999C20.1992 72.8999 21.1992 78.2999 23.0992 82.4999C25.0992 86.6999 28.0992 89.7999 32.1992 91.6999C36.2992 93.5999 41.5992 94.4999 48.0992 94.4999C54.6992 94.4999 59.9992 93.5999 64.0992 91.6999C68.2992 89.6999 71.3992 86.6999 73.2992 82.4999C75.2992 78.2999 76.1992 72.8999 76.1992 66.1999C76.1992 59.4999 75.1992 53.9999 73.2992 49.8999C71.3992 45.6999 68.2992 42.6999 64.0992 40.7999Z" fill="#0511F0"/>
</g>
<defs>
<clipPath id="clip0_122_7155">
<rect width="1158" height="135" fill="white"/>
</clipPath>
</defs>
</svg>
